<svg xmlns="http://www.w3.org/2000/svg" xmlns:xlink="http://www.w3.org/1999/xlink" width="530.008" height="597.844" viewBox="0 0 530.008 597.844">
  <defs>
    <filter id="Union_3" x="98.509" y="0" width="431.499" height="405.649" filterUnits="userSpaceOnUse">
      <feOffset dy="3" input="SourceAlpha"/>
      <feGaussianBlur stdDeviation="3" result="blur"/>
      <feFlood flood-opacity="0.161"/>
      <feComposite operator="in" in2="blur"/>
    </filter>
    <filter id="Union_3-2" x="98.509" y="0" width="431.499" height="405.649" filterUnits="userSpaceOnUse">
      <feOffset dx="3" dy="3" input="SourceAlpha"/>
      <feGaussianBlur stdDeviation="2.5" result="blur-2"/>
      <feFlood flood-opacity="0.161" result="color"/>
      <feComposite operator="out" in="SourceGraphic" in2="blur-2"/>
      <feComposite operator="in" in="color"/>
      <feComposite operator="in" in2="SourceGraphic"/>
    </filter>
  </defs>
  <g id="_2.glassbox" data-name="2.glassbox" transform="translate(-39 -458.156)">
    <g data-type="innerShadowGroup">
      <g transform="matrix(1, 0, 0, 1, 39, 458.16)" filter="url(#Union_3)">
        <g id="Union_3-3" data-name="Union 3" transform="translate(2973.51 2215)" fill="#fff">
          <path d="M -2796.535888671875 -1822.4453125 L -2782.181884765625 -1859.832885742188 L -2781.921142578125 -1860.512084960938 L -2782.648681640625 -1860.512084960938 L -2787.999267578125 -1860.512084960938 C -2793.2578125 -1860.512084960938 -2798.51318359375 -1861.041870117188 -2803.618896484375 -1862.086547851562 C -2808.5947265625 -1863.104736328125 -2813.489013671875 -1864.6240234375 -2818.165771484375 -1866.602172851562 C -2822.758056640625 -1868.544555664062 -2827.18701171875 -1870.948608398438 -2831.330322265625 -1873.74755859375 C -2835.43408203125 -1876.520141601562 -2839.293212890625 -1879.7041015625 -2842.800537109375 -1883.211303710938 C -2846.3076171875 -1886.718505859375 -2849.49169921875 -1890.57763671875 -2852.26416015625 -1894.681518554688 C -2855.063232421875 -1898.824584960938 -2857.46728515625 -1903.253662109375 -2859.40966796875 -1907.845825195312 C -2861.3876953125 -1912.522705078125 -2862.906982421875 -1917.4169921875 -2863.92529296875 -1922.392822265625 C -2864.969970703125 -1927.49853515625 -2865.499755859375 -1932.753662109375 -2865.499755859375 -1938.012329101562 L -2865.499755859375 -2130.999267578125 C -2865.499755859375 -2136.2578125 -2864.969970703125 -2141.51318359375 -2863.92529296875 -2146.618896484375 C -2862.906982421875 -2151.5947265625 -2861.3876953125 -2156.489013671875 -2859.40966796875 -2161.165771484375 C -2857.46728515625 -2165.758056640625 -2855.063232421875 -2170.18701171875 -2852.26416015625 -2174.330322265625 C -2849.49169921875 -2178.43408203125 -2846.3076171875 -2182.293212890625 -2842.800537109375 -2185.800537109375 C -2839.293212890625 -2189.3076171875 -2835.43408203125 -2192.49169921875 -2831.330322265625 -2195.26416015625 C -2827.18701171875 -2198.063232421875 -2822.758056640625 -2200.46728515625 -2818.165771484375 -2202.40966796875 C -2813.489013671875 -2204.3876953125 -2808.5947265625 -2205.906982421875 -2803.618896484375 -2206.92529296875 C -2798.51318359375 -2207.969970703125 -2793.2578125 -2208.499755859375 -2787.999267578125 -2208.499755859375 L -2530.501220703125 -2208.499755859375 C -2525.24267578125 -2208.499755859375 -2519.987548828125 -2207.969970703125 -2514.881591796875 -2206.92529296875 C -2509.906005859375 -2205.906982421875 -2505.01171875 -2204.3876953125 -2500.334716796875 -2202.40966796875 C -2495.74267578125 -2200.46728515625 -2491.3134765625 -2198.063232421875 -2487.17041015625 -2195.26416015625 C -2483.066650390625 -2192.49169921875 -2479.20751953125 -2189.3076171875 -2475.7001953125 -2185.800537109375 C -2472.193115234375 -2182.293212890625 -2469.009033203125 -2178.43408203125 -2466.236572265625 -2174.330322265625 C -2463.4375 -2170.18701171875 -2461.033447265625 -2165.758056640625 -2459.091064453125 -2161.165771484375 C -2457.113037109375 -2156.489013671875 -2455.59375 -2151.5947265625 -2454.575439453125 -2146.618896484375 C -2453.53076171875 -2141.51318359375 -2453.0009765625 -2136.2578125 -2453.0009765625 -2130.999267578125 L -2453.0009765625 -1938.012329101562 C -2453.0009765625 -1932.753662109375 -2453.53076171875 -1927.49853515625 -2454.575439453125 -1922.392822265625 C -2455.59375 -1917.4169921875 -2457.113037109375 -1912.522705078125 -2459.091064453125 -1907.845825195312 C -2461.033447265625 -1903.253662109375 -2463.4375 -1898.824584960938 -2466.236572265625 -1894.681518554688 C -2469.009033203125 -1890.57763671875 -2472.193115234375 -1886.718505859375 -2475.7001953125 -1883.211303710938 C -2479.20751953125 -1879.7041015625 -2483.066650390625 -1876.520141601562 -2487.17041015625 -1873.74755859375 C -2491.3134765625 -1870.948608398438 -2495.74267578125 -1868.544555664062 -2500.334716796875 -1866.602172851562 C -2505.01171875 -1864.6240234375 -2509.906005859375 -1863.104736328125 -2514.881591796875 -1862.086547851562 C -2519.987548828125 -1861.041870117188 -2525.24267578125 -1860.512084960938 -2530.501220703125 -1860.512084960938 L -2727.01708984375 -1860.512084960938 L -2727.145263671875 -1860.512084960938 L -2727.257568359375 -1860.450439453125 L -2796.535888671875 -1822.4453125 Z" stroke="none"/>
          <path d="M -2795.580078125 -1823.5400390625 L -2727.2734375 -1861.012084960938 L -2530.501220703125 -1861.012084960938 C -2520.105712890625 -1861.012084960938 -2510.02197265625 -1863.0478515625 -2500.529541015625 -1867.062744140625 C -2495.96728515625 -1868.992431640625 -2491.566650390625 -1871.380981445312 -2487.450439453125 -1874.161865234375 C -2483.372802734375 -1876.916625976562 -2479.53857421875 -1880.080200195312 -2476.0537109375 -1883.564819335938 C -2472.569091796875 -1887.049560546875 -2469.405517578125 -1890.883911132812 -2466.65087890625 -1894.96142578125 C -2463.869873046875 -1899.077758789062 -2461.4814453125 -1903.478271484375 -2459.551513671875 -1908.040649414062 C -2455.53662109375 -1917.532958984375 -2453.5009765625 -1927.616821289062 -2453.5009765625 -1938.012329101562 L -2453.5009765625 -2130.999267578125 C -2453.5009765625 -2141.394775390625 -2455.53662109375 -2151.478759765625 -2459.551513671875 -2160.97119140625 C -2461.4814453125 -2165.533447265625 -2463.869873046875 -2169.93408203125 -2466.65087890625 -2174.05029296875 C -2469.405517578125 -2178.1279296875 -2472.569091796875 -2181.962158203125 -2476.0537109375 -2185.44677734375 C -2479.53857421875 -2188.931640625 -2483.372802734375 -2192.09521484375 -2487.450439453125 -2194.849853515625 C -2491.566650390625 -2197.630859375 -2495.96728515625 -2200.019287109375 -2500.529541015625 -2201.94921875 C -2510.02197265625 -2205.964111328125 -2520.105712890625 -2207.999755859375 -2530.501220703125 -2207.999755859375 L -2787.999267578125 -2207.999755859375 C -2798.394775390625 -2207.999755859375 -2808.478759765625 -2205.964111328125 -2817.970947265625 -2201.94921875 C -2822.533447265625 -2200.019287109375 -2826.93408203125 -2197.630859375 -2831.05029296875 -2194.849853515625 C -2835.1279296875 -2192.09521484375 -2838.962158203125 -2188.931640625 -2842.44677734375 -2185.44677734375 C -2845.931640625 -2181.962158203125 -2849.09521484375 -2178.1279296875 -2851.849853515625 -2174.05029296875 C -2854.630859375 -2169.93408203125 -2857.019287109375 -2165.533447265625 -2858.94921875 -2160.97119140625 C -2862.964111328125 -2151.478759765625 -2864.999755859375 -2141.394775390625 -2864.999755859375 -2130.999267578125 L -2864.999755859375 -1938.012329101562 C -2864.999755859375 -1927.616821289062 -2862.964111328125 -1917.532958984375 -2858.94921875 -1908.040649414062 C -2857.019287109375 -1903.478271484375 -2854.630859375 -1899.077758789062 -2851.849853515625 -1894.96142578125 C -2849.09521484375 -1890.883911132812 -2845.931640625 -1887.049560546875 -2842.44677734375 -1883.564819335938 C -2838.962158203125 -1880.080200195312 -2835.1279296875 -1876.916625976562 -2831.05029296875 -1874.161865234375 C -2826.93408203125 -1871.380981445312 -2822.533447265625 -1868.992431640625 -2817.970947265625 -1867.062744140625 C -2808.478759765625 -1863.0478515625 -2798.394775390625 -1861.012084960938 -2787.999267578125 -1861.012084960938 L -2781.193603515625 -1861.012084960938 L -2795.580078125 -1823.5400390625 M -2797.49169921875 -1821.350708007812 L -2782.648681640625 -1860.012084960938 L -2787.999267578125 -1860.012084960938 C -2831.077880859375 -1860.012084960938 -2865.999755859375 -1894.933837890625 -2865.999755859375 -1938.012329101562 L -2865.999755859375 -2130.999267578125 C -2865.999755859375 -2174.077880859375 -2831.077880859375 -2208.999755859375 -2787.999267578125 -2208.999755859375 L -2530.501220703125 -2208.999755859375 C -2487.4228515625 -2208.999755859375 -2452.5009765625 -2174.077880859375 -2452.5009765625 -2130.999267578125 L -2452.5009765625 -1938.012329101562 C -2452.5009765625 -1894.933837890625 -2487.4228515625 -1860.012084960938 -2530.501220703125 -1860.012084960938 L -2727.01708984375 -1860.012084960938 L -2797.49169921875 -1821.350708007812 Z" stroke="none" fill="#707070"/>
        </g>
      </g>
      <g id="Union_3-4" data-name="Union 3" transform="translate(3012.509 2673.155)" fill="#fff">
        <path d="M -2796.535888671875 -1822.4453125 L -2782.181884765625 -1859.832885742188 L -2781.921142578125 -1860.512084960938 L -2782.648681640625 -1860.512084960938 L -2787.999267578125 -1860.512084960938 C -2793.2578125 -1860.512084960938 -2798.51318359375 -1861.041870117188 -2803.618896484375 -1862.086547851562 C -2808.5947265625 -1863.104736328125 -2813.489013671875 -1864.6240234375 -2818.165771484375 -1866.602172851562 C -2822.758056640625 -1868.544555664062 -2827.18701171875 -1870.948608398438 -2831.330322265625 -1873.74755859375 C -2835.43408203125 -1876.520141601562 -2839.293212890625 -1879.7041015625 -2842.800537109375 -1883.211303710938 C -2846.3076171875 -1886.718505859375 -2849.49169921875 -1890.57763671875 -2852.26416015625 -1894.681518554688 C -2855.063232421875 -1898.824584960938 -2857.46728515625 -1903.253662109375 -2859.40966796875 -1907.845825195312 C -2861.3876953125 -1912.522705078125 -2862.906982421875 -1917.4169921875 -2863.92529296875 -1922.392822265625 C -2864.969970703125 -1927.49853515625 -2865.499755859375 -1932.753662109375 -2865.499755859375 -1938.012329101562 L -2865.499755859375 -2130.999267578125 C -2865.499755859375 -2136.2578125 -2864.969970703125 -2141.51318359375 -2863.92529296875 -2146.618896484375 C -2862.906982421875 -2151.5947265625 -2861.3876953125 -2156.489013671875 -2859.40966796875 -2161.165771484375 C -2857.46728515625 -2165.758056640625 -2855.063232421875 -2170.18701171875 -2852.26416015625 -2174.330322265625 C -2849.49169921875 -2178.43408203125 -2846.3076171875 -2182.293212890625 -2842.800537109375 -2185.800537109375 C -2839.293212890625 -2189.3076171875 -2835.43408203125 -2192.49169921875 -2831.330322265625 -2195.26416015625 C -2827.18701171875 -2198.063232421875 -2822.758056640625 -2200.46728515625 -2818.165771484375 -2202.40966796875 C -2813.489013671875 -2204.3876953125 -2808.5947265625 -2205.906982421875 -2803.618896484375 -2206.92529296875 C -2798.51318359375 -2207.969970703125 -2793.2578125 -2208.499755859375 -2787.999267578125 -2208.499755859375 L -2530.501220703125 -2208.499755859375 C -2525.24267578125 -2208.499755859375 -2519.987548828125 -2207.969970703125 -2514.881591796875 -2206.92529296875 C -2509.906005859375 -2205.906982421875 -2505.01171875 -2204.3876953125 -2500.334716796875 -2202.40966796875 C -2495.74267578125 -2200.46728515625 -2491.3134765625 -2198.063232421875 -2487.17041015625 -2195.26416015625 C -2483.066650390625 -2192.49169921875 -2479.20751953125 -2189.3076171875 -2475.7001953125 -2185.800537109375 C -2472.193115234375 -2182.293212890625 -2469.009033203125 -2178.43408203125 -2466.236572265625 -2174.330322265625 C -2463.4375 -2170.18701171875 -2461.033447265625 -2165.758056640625 -2459.091064453125 -2161.165771484375 C -2457.113037109375 -2156.489013671875 -2455.59375 -2151.5947265625 -2454.575439453125 -2146.618896484375 C -2453.53076171875 -2141.51318359375 -2453.0009765625 -2136.2578125 -2453.0009765625 -2130.999267578125 L -2453.0009765625 -1938.012329101562 C -2453.0009765625 -1932.753662109375 -2453.53076171875 -1927.49853515625 -2454.575439453125 -1922.392822265625 C -2455.59375 -1917.4169921875 -2457.113037109375 -1912.522705078125 -2459.091064453125 -1907.845825195312 C -2461.033447265625 -1903.253662109375 -2463.4375 -1898.824584960938 -2466.236572265625 -1894.681518554688 C -2469.009033203125 -1890.57763671875 -2472.193115234375 -1886.718505859375 -2475.7001953125 -1883.211303710938 C -2479.20751953125 -1879.7041015625 -2483.066650390625 -1876.520141601562 -2487.17041015625 -1873.74755859375 C -2491.3134765625 -1870.948608398438 -2495.74267578125 -1868.544555664062 -2500.334716796875 -1866.602172851562 C -2505.01171875 -1864.6240234375 -2509.906005859375 -1863.104736328125 -2514.881591796875 -1862.086547851562 C -2519.987548828125 -1861.041870117188 -2525.24267578125 -1860.512084960938 -2530.501220703125 -1860.512084960938 L -2727.01708984375 -1860.512084960938 L -2727.145263671875 -1860.512084960938 L -2727.257568359375 -1860.450439453125 L -2796.535888671875 -1822.4453125 Z" stroke="none"/>
        <path d="M -2795.580078125 -1823.5400390625 L -2727.2734375 -1861.012084960938 L -2530.501220703125 -1861.012084960938 C -2520.105712890625 -1861.012084960938 -2510.02197265625 -1863.0478515625 -2500.529541015625 -1867.062744140625 C -2495.96728515625 -1868.992431640625 -2491.566650390625 -1871.380981445312 -2487.450439453125 -1874.161865234375 C -2483.372802734375 -1876.916625976562 -2479.53857421875 -1880.080200195312 -2476.0537109375 -1883.564819335938 C -2472.569091796875 -1887.049560546875 -2469.405517578125 -1890.883911132812 -2466.65087890625 -1894.96142578125 C -2463.869873046875 -1899.077758789062 -2461.4814453125 -1903.478271484375 -2459.551513671875 -1908.040649414062 C -2455.53662109375 -1917.532958984375 -2453.5009765625 -1927.616821289062 -2453.5009765625 -1938.012329101562 L -2453.5009765625 -2130.999267578125 C -2453.5009765625 -2141.394775390625 -2455.53662109375 -2151.478759765625 -2459.551513671875 -2160.97119140625 C -2461.4814453125 -2165.533447265625 -2463.869873046875 -2169.93408203125 -2466.65087890625 -2174.05029296875 C -2469.405517578125 -2178.1279296875 -2472.569091796875 -2181.962158203125 -2476.0537109375 -2185.44677734375 C -2479.53857421875 -2188.931640625 -2483.372802734375 -2192.09521484375 -2487.450439453125 -2194.849853515625 C -2491.566650390625 -2197.630859375 -2495.96728515625 -2200.019287109375 -2500.529541015625 -2201.94921875 C -2510.02197265625 -2205.964111328125 -2520.105712890625 -2207.999755859375 -2530.501220703125 -2207.999755859375 L -2787.999267578125 -2207.999755859375 C -2798.394775390625 -2207.999755859375 -2808.478759765625 -2205.964111328125 -2817.970947265625 -2201.94921875 C -2822.533447265625 -2200.019287109375 -2826.93408203125 -2197.630859375 -2831.05029296875 -2194.849853515625 C -2835.1279296875 -2192.09521484375 -2838.962158203125 -2188.931640625 -2842.44677734375 -2185.44677734375 C -2845.931640625 -2181.962158203125 -2849.09521484375 -2178.1279296875 -2851.849853515625 -2174.05029296875 C -2854.630859375 -2169.93408203125 -2857.019287109375 -2165.533447265625 -2858.94921875 -2160.97119140625 C -2862.964111328125 -2151.478759765625 -2864.999755859375 -2141.394775390625 -2864.999755859375 -2130.999267578125 L -2864.999755859375 -1938.012329101562 C -2864.999755859375 -1927.616821289062 -2862.964111328125 -1917.532958984375 -2858.94921875 -1908.040649414062 C -2857.019287109375 -1903.478271484375 -2854.630859375 -1899.077758789062 -2851.849853515625 -1894.96142578125 C -2849.09521484375 -1890.883911132812 -2845.931640625 -1887.049560546875 -2842.44677734375 -1883.564819335938 C -2838.962158203125 -1880.080200195312 -2835.1279296875 -1876.916625976562 -2831.05029296875 -1874.161865234375 C -2826.93408203125 -1871.380981445312 -2822.533447265625 -1868.992431640625 -2817.970947265625 -1867.062744140625 C -2808.478759765625 -1863.0478515625 -2798.394775390625 -1861.012084960938 -2787.999267578125 -1861.012084960938 L -2781.193603515625 -1861.012084960938 L -2795.580078125 -1823.5400390625 M -2797.49169921875 -1821.350708007812 L -2782.648681640625 -1860.012084960938 L -2787.999267578125 -1860.012084960938 C -2831.077880859375 -1860.012084960938 -2865.999755859375 -1894.933837890625 -2865.999755859375 -1938.012329101562 L -2865.999755859375 -2130.999267578125 C -2865.999755859375 -2174.077880859375 -2831.077880859375 -2208.999755859375 -2787.999267578125 -2208.999755859375 L -2530.501220703125 -2208.999755859375 C -2487.4228515625 -2208.999755859375 -2452.5009765625 -2174.077880859375 -2452.5009765625 -2130.999267578125 L -2452.5009765625 -1938.012329101562 C -2452.5009765625 -1894.933837890625 -2487.4228515625 -1860.012084960938 -2530.501220703125 -1860.012084960938 L -2727.01708984375 -1860.012084960938 L -2797.49169921875 -1821.350708007812 Z" stroke="none"/>
      </g>
      <g transform="matrix(1, 0, 0, 1, 39, 458.16)" filter="url(#Union_3-2)">
        <g id="Union_3-5" data-name="Union 3" transform="translate(2973.51 2215)" fill="#fff">
          <path d="M -2796.535888671875 -1822.4453125 L -2782.181884765625 -1859.832885742188 L -2781.921142578125 -1860.512084960938 L -2782.648681640625 -1860.512084960938 L -2787.999267578125 -1860.512084960938 C -2793.2578125 -1860.512084960938 -2798.51318359375 -1861.041870117188 -2803.618896484375 -1862.086547851562 C -2808.5947265625 -1863.104736328125 -2813.489013671875 -1864.6240234375 -2818.165771484375 -1866.602172851562 C -2822.758056640625 -1868.544555664062 -2827.18701171875 -1870.948608398438 -2831.330322265625 -1873.74755859375 C -2835.43408203125 -1876.520141601562 -2839.293212890625 -1879.7041015625 -2842.800537109375 -1883.211303710938 C -2846.3076171875 -1886.718505859375 -2849.49169921875 -1890.57763671875 -2852.26416015625 -1894.681518554688 C -2855.063232421875 -1898.824584960938 -2857.46728515625 -1903.253662109375 -2859.40966796875 -1907.845825195312 C -2861.3876953125 -1912.522705078125 -2862.906982421875 -1917.4169921875 -2863.92529296875 -1922.392822265625 C -2864.969970703125 -1927.49853515625 -2865.499755859375 -1932.753662109375 -2865.499755859375 -1938.012329101562 L -2865.499755859375 -2130.999267578125 C -2865.499755859375 -2136.2578125 -2864.969970703125 -2141.51318359375 -2863.92529296875 -2146.618896484375 C -2862.906982421875 -2151.5947265625 -2861.3876953125 -2156.489013671875 -2859.40966796875 -2161.165771484375 C -2857.46728515625 -2165.758056640625 -2855.063232421875 -2170.18701171875 -2852.26416015625 -2174.330322265625 C -2849.49169921875 -2178.43408203125 -2846.3076171875 -2182.293212890625 -2842.800537109375 -2185.800537109375 C -2839.293212890625 -2189.3076171875 -2835.43408203125 -2192.49169921875 -2831.330322265625 -2195.26416015625 C -2827.18701171875 -2198.063232421875 -2822.758056640625 -2200.46728515625 -2818.165771484375 -2202.40966796875 C -2813.489013671875 -2204.3876953125 -2808.5947265625 -2205.906982421875 -2803.618896484375 -2206.92529296875 C -2798.51318359375 -2207.969970703125 -2793.2578125 -2208.499755859375 -2787.999267578125 -2208.499755859375 L -2530.501220703125 -2208.499755859375 C -2525.24267578125 -2208.499755859375 -2519.987548828125 -2207.969970703125 -2514.881591796875 -2206.92529296875 C -2509.906005859375 -2205.906982421875 -2505.01171875 -2204.3876953125 -2500.334716796875 -2202.40966796875 C -2495.74267578125 -2200.46728515625 -2491.3134765625 -2198.063232421875 -2487.17041015625 -2195.26416015625 C -2483.066650390625 -2192.49169921875 -2479.20751953125 -2189.3076171875 -2475.7001953125 -2185.800537109375 C -2472.193115234375 -2182.293212890625 -2469.009033203125 -2178.43408203125 -2466.236572265625 -2174.330322265625 C -2463.4375 -2170.18701171875 -2461.033447265625 -2165.758056640625 -2459.091064453125 -2161.165771484375 C -2457.113037109375 -2156.489013671875 -2455.59375 -2151.5947265625 -2454.575439453125 -2146.618896484375 C -2453.53076171875 -2141.51318359375 -2453.0009765625 -2136.2578125 -2453.0009765625 -2130.999267578125 L -2453.0009765625 -1938.012329101562 C -2453.0009765625 -1932.753662109375 -2453.53076171875 -1927.49853515625 -2454.575439453125 -1922.392822265625 C -2455.59375 -1917.4169921875 -2457.113037109375 -1912.522705078125 -2459.091064453125 -1907.845825195312 C -2461.033447265625 -1903.253662109375 -2463.4375 -1898.824584960938 -2466.236572265625 -1894.681518554688 C -2469.009033203125 -1890.57763671875 -2472.193115234375 -1886.718505859375 -2475.7001953125 -1883.211303710938 C -2479.20751953125 -1879.7041015625 -2483.066650390625 -1876.520141601562 -2487.17041015625 -1873.74755859375 C -2491.3134765625 -1870.948608398438 -2495.74267578125 -1868.544555664062 -2500.334716796875 -1866.602172851562 C -2505.01171875 -1864.6240234375 -2509.906005859375 -1863.104736328125 -2514.881591796875 -1862.086547851562 C -2519.987548828125 -1861.041870117188 -2525.24267578125 -1860.512084960938 -2530.501220703125 -1860.512084960938 L -2727.01708984375 -1860.512084960938 L -2727.145263671875 -1860.512084960938 L -2727.257568359375 -1860.450439453125 L -2796.535888671875 -1822.4453125 Z" stroke="none"/>
          <path d="M -2795.580078125 -1823.5400390625 L -2727.2734375 -1861.012084960938 L -2530.501220703125 -1861.012084960938 C -2520.105712890625 -1861.012084960938 -2510.02197265625 -1863.0478515625 -2500.529541015625 -1867.062744140625 C -2495.96728515625 -1868.992431640625 -2491.566650390625 -1871.380981445312 -2487.450439453125 -1874.161865234375 C -2483.372802734375 -1876.916625976562 -2479.53857421875 -1880.080200195312 -2476.0537109375 -1883.564819335938 C -2472.569091796875 -1887.049560546875 -2469.405517578125 -1890.883911132812 -2466.65087890625 -1894.96142578125 C -2463.869873046875 -1899.077758789062 -2461.4814453125 -1903.478271484375 -2459.551513671875 -1908.040649414062 C -2455.53662109375 -1917.532958984375 -2453.5009765625 -1927.616821289062 -2453.5009765625 -1938.012329101562 L -2453.5009765625 -2130.999267578125 C -2453.5009765625 -2141.394775390625 -2455.53662109375 -2151.478759765625 -2459.551513671875 -2160.97119140625 C -2461.4814453125 -2165.533447265625 -2463.869873046875 -2169.93408203125 -2466.65087890625 -2174.05029296875 C -2469.405517578125 -2178.1279296875 -2472.569091796875 -2181.962158203125 -2476.0537109375 -2185.44677734375 C -2479.53857421875 -2188.931640625 -2483.372802734375 -2192.09521484375 -2487.450439453125 -2194.849853515625 C -2491.566650390625 -2197.630859375 -2495.96728515625 -2200.019287109375 -2500.529541015625 -2201.94921875 C -2510.02197265625 -2205.964111328125 -2520.105712890625 -2207.999755859375 -2530.501220703125 -2207.999755859375 L -2787.999267578125 -2207.999755859375 C -2798.394775390625 -2207.999755859375 -2808.478759765625 -2205.964111328125 -2817.970947265625 -2201.94921875 C -2822.533447265625 -2200.019287109375 -2826.93408203125 -2197.630859375 -2831.05029296875 -2194.849853515625 C -2835.1279296875 -2192.09521484375 -2838.962158203125 -2188.931640625 -2842.44677734375 -2185.44677734375 C -2845.931640625 -2181.962158203125 -2849.09521484375 -2178.1279296875 -2851.849853515625 -2174.05029296875 C -2854.630859375 -2169.93408203125 -2857.019287109375 -2165.533447265625 -2858.94921875 -2160.97119140625 C -2862.964111328125 -2151.478759765625 -2864.999755859375 -2141.394775390625 -2864.999755859375 -2130.999267578125 L -2864.999755859375 -1938.012329101562 C -2864.999755859375 -1927.616821289062 -2862.964111328125 -1917.532958984375 -2858.94921875 -1908.040649414062 C -2857.019287109375 -1903.478271484375 -2854.630859375 -1899.077758789062 -2851.849853515625 -1894.96142578125 C -2849.09521484375 -1890.883911132812 -2845.931640625 -1887.049560546875 -2842.44677734375 -1883.564819335938 C -2838.962158203125 -1880.080200195312 -2835.1279296875 -1876.916625976562 -2831.05029296875 -1874.161865234375 C -2826.93408203125 -1871.380981445312 -2822.533447265625 -1868.992431640625 -2817.970947265625 -1867.062744140625 C -2808.478759765625 -1863.0478515625 -2798.394775390625 -1861.012084960938 -2787.999267578125 -1861.012084960938 L -2781.193603515625 -1861.012084960938 L -2795.580078125 -1823.5400390625 M -2797.49169921875 -1821.350708007812 L -2782.648681640625 -1860.012084960938 L -2787.999267578125 -1860.012084960938 C -2831.077880859375 -1860.012084960938 -2865.999755859375 -1894.933837890625 -2865.999755859375 -1938.012329101562 L -2865.999755859375 -2130.999267578125 C -2865.999755859375 -2174.077880859375 -2831.077880859375 -2208.999755859375 -2787.999267578125 -2208.999755859375 L -2530.501220703125 -2208.999755859375 C -2487.4228515625 -2208.999755859375 -2452.5009765625 -2174.077880859375 -2452.5009765625 -2130.999267578125 L -2452.5009765625 -1938.012329101562 C -2452.5009765625 -1894.933837890625 -2487.4228515625 -1860.012084960938 -2530.501220703125 -1860.012084960938 L -2727.01708984375 -1860.012084960938 L -2797.49169921875 -1821.350708007812 Z" stroke="none"/>
        </g>
      </g>
      <g id="Union_3-6" data-name="Union 3" transform="translate(3012.509 2673.155)" fill="none">
        <path d="M -2796.535888671875 -1822.4453125 L -2782.181884765625 -1859.832885742188 L -2781.921142578125 -1860.512084960938 L -2782.648681640625 -1860.512084960938 L -2787.999267578125 -1860.512084960938 C -2793.2578125 -1860.512084960938 -2798.51318359375 -1861.041870117188 -2803.618896484375 -1862.086547851562 C -2808.5947265625 -1863.104736328125 -2813.489013671875 -1864.6240234375 -2818.165771484375 -1866.602172851562 C -2822.758056640625 -1868.544555664062 -2827.18701171875 -1870.948608398438 -2831.330322265625 -1873.74755859375 C -2835.43408203125 -1876.520141601562 -2839.293212890625 -1879.7041015625 -2842.800537109375 -1883.211303710938 C -2846.3076171875 -1886.718505859375 -2849.49169921875 -1890.57763671875 -2852.26416015625 -1894.681518554688 C -2855.063232421875 -1898.824584960938 -2857.46728515625 -1903.253662109375 -2859.40966796875 -1907.845825195312 C -2861.3876953125 -1912.522705078125 -2862.906982421875 -1917.4169921875 -2863.92529296875 -1922.392822265625 C -2864.969970703125 -1927.49853515625 -2865.499755859375 -1932.753662109375 -2865.499755859375 -1938.012329101562 L -2865.499755859375 -2130.999267578125 C -2865.499755859375 -2136.2578125 -2864.969970703125 -2141.51318359375 -2863.92529296875 -2146.618896484375 C -2862.906982421875 -2151.5947265625 -2861.3876953125 -2156.489013671875 -2859.40966796875 -2161.165771484375 C -2857.46728515625 -2165.758056640625 -2855.063232421875 -2170.18701171875 -2852.26416015625 -2174.330322265625 C -2849.49169921875 -2178.43408203125 -2846.3076171875 -2182.293212890625 -2842.800537109375 -2185.800537109375 C -2839.293212890625 -2189.3076171875 -2835.43408203125 -2192.49169921875 -2831.330322265625 -2195.26416015625 C -2827.18701171875 -2198.063232421875 -2822.758056640625 -2200.46728515625 -2818.165771484375 -2202.40966796875 C -2813.489013671875 -2204.3876953125 -2808.5947265625 -2205.906982421875 -2803.618896484375 -2206.92529296875 C -2798.51318359375 -2207.969970703125 -2793.2578125 -2208.499755859375 -2787.999267578125 -2208.499755859375 L -2530.501220703125 -2208.499755859375 C -2525.24267578125 -2208.499755859375 -2519.987548828125 -2207.969970703125 -2514.881591796875 -2206.92529296875 C -2509.906005859375 -2205.906982421875 -2505.01171875 -2204.3876953125 -2500.334716796875 -2202.40966796875 C -2495.74267578125 -2200.46728515625 -2491.3134765625 -2198.063232421875 -2487.17041015625 -2195.26416015625 C -2483.066650390625 -2192.49169921875 -2479.20751953125 -2189.3076171875 -2475.7001953125 -2185.800537109375 C -2472.193115234375 -2182.293212890625 -2469.009033203125 -2178.43408203125 -2466.236572265625 -2174.330322265625 C -2463.4375 -2170.18701171875 -2461.033447265625 -2165.758056640625 -2459.091064453125 -2161.165771484375 C -2457.113037109375 -2156.489013671875 -2455.59375 -2151.5947265625 -2454.575439453125 -2146.618896484375 C -2453.53076171875 -2141.51318359375 -2453.0009765625 -2136.2578125 -2453.0009765625 -2130.999267578125 L -2453.0009765625 -1938.012329101562 C -2453.0009765625 -1932.753662109375 -2453.53076171875 -1927.49853515625 -2454.575439453125 -1922.392822265625 C -2455.59375 -1917.4169921875 -2457.113037109375 -1912.522705078125 -2459.091064453125 -1907.845825195312 C -2461.033447265625 -1903.253662109375 -2463.4375 -1898.824584960938 -2466.236572265625 -1894.681518554688 C -2469.009033203125 -1890.57763671875 -2472.193115234375 -1886.718505859375 -2475.7001953125 -1883.211303710938 C -2479.20751953125 -1879.7041015625 -2483.066650390625 -1876.520141601562 -2487.17041015625 -1873.74755859375 C -2491.3134765625 -1870.948608398438 -2495.74267578125 -1868.544555664062 -2500.334716796875 -1866.602172851562 C -2505.01171875 -1864.6240234375 -2509.906005859375 -1863.104736328125 -2514.881591796875 -1862.086547851562 C -2519.987548828125 -1861.041870117188 -2525.24267578125 -1860.512084960938 -2530.501220703125 -1860.512084960938 L -2727.01708984375 -1860.512084960938 L -2727.145263671875 -1860.512084960938 L -2727.257568359375 -1860.450439453125 L -2796.535888671875 -1822.4453125 Z" stroke="none"/>
        <path d="M -2795.580078125 -1823.5400390625 L -2727.2734375 -1861.012084960938 L -2530.501220703125 -1861.012084960938 C -2520.105712890625 -1861.012084960938 -2510.02197265625 -1863.0478515625 -2500.529541015625 -1867.062744140625 C -2495.96728515625 -1868.992431640625 -2491.566650390625 -1871.380981445312 -2487.450439453125 -1874.161865234375 C -2483.372802734375 -1876.916625976562 -2479.53857421875 -1880.080200195312 -2476.0537109375 -1883.564819335938 C -2472.569091796875 -1887.049560546875 -2469.405517578125 -1890.883911132812 -2466.65087890625 -1894.96142578125 C -2463.869873046875 -1899.077758789062 -2461.4814453125 -1903.478271484375 -2459.551513671875 -1908.040649414062 C -2455.53662109375 -1917.532958984375 -2453.5009765625 -1927.616821289062 -2453.5009765625 -1938.012329101562 L -2453.5009765625 -2130.999267578125 C -2453.5009765625 -2141.394775390625 -2455.53662109375 -2151.478759765625 -2459.551513671875 -2160.97119140625 C -2461.4814453125 -2165.533447265625 -2463.869873046875 -2169.93408203125 -2466.65087890625 -2174.05029296875 C -2469.405517578125 -2178.1279296875 -2472.569091796875 -2181.962158203125 -2476.0537109375 -2185.44677734375 C -2479.53857421875 -2188.931640625 -2483.372802734375 -2192.09521484375 -2487.450439453125 -2194.849853515625 C -2491.566650390625 -2197.630859375 -2495.96728515625 -2200.019287109375 -2500.529541015625 -2201.94921875 C -2510.02197265625 -2205.964111328125 -2520.105712890625 -2207.999755859375 -2530.501220703125 -2207.999755859375 L -2787.999267578125 -2207.999755859375 C -2798.394775390625 -2207.999755859375 -2808.478759765625 -2205.964111328125 -2817.970947265625 -2201.94921875 C -2822.533447265625 -2200.019287109375 -2826.93408203125 -2197.630859375 -2831.05029296875 -2194.849853515625 C -2835.1279296875 -2192.09521484375 -2838.962158203125 -2188.931640625 -2842.44677734375 -2185.44677734375 C -2845.931640625 -2181.962158203125 -2849.09521484375 -2178.1279296875 -2851.849853515625 -2174.05029296875 C -2854.630859375 -2169.93408203125 -2857.019287109375 -2165.533447265625 -2858.94921875 -2160.97119140625 C -2862.964111328125 -2151.478759765625 -2864.999755859375 -2141.394775390625 -2864.999755859375 -2130.999267578125 L -2864.999755859375 -1938.012329101562 C -2864.999755859375 -1927.616821289062 -2862.964111328125 -1917.532958984375 -2858.94921875 -1908.040649414062 C -2857.019287109375 -1903.478271484375 -2854.630859375 -1899.077758789062 -2851.849853515625 -1894.96142578125 C -2849.09521484375 -1890.883911132812 -2845.931640625 -1887.049560546875 -2842.44677734375 -1883.564819335938 C -2838.962158203125 -1880.080200195312 -2835.1279296875 -1876.916625976562 -2831.05029296875 -1874.161865234375 C -2826.93408203125 -1871.380981445312 -2822.533447265625 -1868.992431640625 -2817.970947265625 -1867.062744140625 C -2808.478759765625 -1863.0478515625 -2798.394775390625 -1861.012084960938 -2787.999267578125 -1861.012084960938 L -2781.193603515625 -1861.012084960938 L -2795.580078125 -1823.5400390625 M -2797.49169921875 -1821.350708007812 L -2782.648681640625 -1860.012084960938 L -2787.999267578125 -1860.012084960938 C -2831.077880859375 -1860.012084960938 -2865.999755859375 -1894.933837890625 -2865.999755859375 -1938.012329101562 L -2865.999755859375 -2130.999267578125 C -2865.999755859375 -2174.077880859375 -2831.077880859375 -2208.999755859375 -2787.999267578125 -2208.999755859375 L -2530.501220703125 -2208.999755859375 C -2487.4228515625 -2208.999755859375 -2452.5009765625 -2174.077880859375 -2452.5009765625 -2130.999267578125 L -2452.5009765625 -1938.012329101562 C -2452.5009765625 -1894.933837890625 -2487.4228515625 -1860.012084960938 -2530.501220703125 -1860.012084960938 L -2727.01708984375 -1860.012084960938 L -2797.49169921875 -1821.350708007812 Z" stroke="none" fill="#707070"/>
      </g>
    </g>
    <text id="Take_a_look_at_the_glass_box_and_see_how_the_living_room_is_adjusting_to_your_mood_:_" data-name="Take a look at the glass box and see how the living room is adjusting to your mood :)" transform="translate(179 526)" fill="#0f4470" font-size="40" font-family="GillSans-SemiBold, Gill Sans" font-weight="600"><tspan x="0" y="38">Take a look at the </tspan><tspan x="0" y="86">glass box and see </tspan><tspan x="0" y="134">how the living </tspan><tspan x="0" y="182">room is adjusting </tspan><tspan x="0" y="230">to your mood :)</tspan></text>
    <g id="Component_9_6" data-name="Component 9 – 6" transform="translate(39 841)">
      <g id="Union_1" data-name="Union 1" fill="none">
        <path d="M0,215V85H.009C0,84.583,0,84.168,0,83.75,0,37.5,36.266,0,81,0s81,37.5,81,83.75c0,.418,0,.833-.009,1.249H162V215Z" stroke="none"/>
        <path d="M 157 210 L 157 89.99918365478516 L 156.9205932617188 89.99918365478516 L 156.9917144775391 84.92905426025391 C 156.9972229003906 84.53692626953125 157 84.14024353027344 157 83.74996185302734 C 157 73.09621429443359 154.9836273193359 62.76521301269531 151.0068511962891 53.04389953613281 C 149.0967864990234 48.37467956542969 146.7328491210938 43.87155532836914 143.9807434082031 39.65961837768555 C 141.2559661865234 35.48945999145508 138.1272888183594 31.5685863494873 134.6815948486328 28.00589942932129 C 131.2386932373047 24.44611740112305 127.4513092041016 21.21496200561523 123.4246597290039 18.4022102355957 C 119.3638763427734 15.56564903259277 115.0239715576172 13.12989902496338 110.5255661010742 11.1625862121582 C 101.1751556396484 7.073398590087891 91.24150085449219 4.999992370605469 81.00050354003906 4.999992370605469 C 70.75937652587891 4.999992370605469 60.8255615234375 7.073398590087891 51.47506332397461 11.1625862121582 C 46.9765625 13.12989902496338 42.63662338256836 15.56564903259277 38.57578277587891 18.40224266052246 C 34.5490608215332 21.21499252319336 30.76162528991699 24.44614791870117 27.31871795654297 28.00592994689941 C 23.87296867370605 31.56861686706543 20.74421882629395 35.4894905090332 18.01940536499023 39.65964889526367 C 15.2672815322876 43.87158584594727 12.90331268310547 48.37471008300781 10.99324989318848 53.04393005371094 C 7.016406059265137 62.76524353027344 5 73.09624481201172 5 83.74996185302734 C 5 84.14024353027344 5.002781391143799 84.53692626953125 5.008281230926514 84.92905426025391 L 5.079406261444092 89.99918365478516 L 5 89.99918365478516 L 5 210 L 157 210 M 162 215 L 0 215 L 0 84.99918365478516 L 0.008781249634921551 84.99918365478516 C 0.002937499899417162 84.58258819580078 0 84.16767883300781 0 83.74996185302734 C 0 37.49636840820312 36.265625 -7.62939453125e-06 81.00050354003906 -7.62939453125e-06 C 125.7348785400391 -7.62939453125e-06 162 37.49636840820312 162 83.74996185302734 C 162 84.16767883300781 161.9970550537109 84.58258819580078 161.9912261962891 84.99918365478516 L 162 84.99918365478516 L 162 215 Z" stroke="none" fill="#022c42"/>
      </g>
      <rect id="Rectangle_9" data-name="Rectangle 9" width="15" height="29" rx="5" transform="translate(111 46)" fill="#022c42"/>
      <path id="Union_2" data-name="Union 2" d="M.138,11.333H0V0H27V11.333h-.135C25.928,14.537,20.3,17,13.5,17S1.071,14.537.138,11.333Z" transform="translate(80 83)" fill="#022c42"/>
      <rect id="Rectangle_11" data-name="Rectangle 11" width="15" height="29" rx="5" transform="translate(61 46)" fill="#022c42"/>
    </g>
  </g>
</svg>
