<svg xmlns="http://www.w3.org/2000/svg" xmlns:xlink="http://www.w3.org/1999/xlink" width="544.008" height="561" viewBox="0 0 544.008 561">
  <defs>
    <filter id="Union_3" x="112.509" y="0" width="431.499" height="357.805" filterUnits="userSpaceOnUse">
      <feOffset dy="3" input="SourceAlpha"/>
      <feGaussianBlur stdDeviation="3" result="blur"/>
      <feFlood flood-opacity="0.161"/>
      <feComposite operator="in" in2="blur"/>
    </filter>
    <filter id="Union_3-2" x="112.509" y="0" width="431.499" height="357.805" filterUnits="userSpaceOnUse">
      <feOffset dx="3" dy="3" input="SourceAlpha"/>
      <feGaussianBlur stdDeviation="2.5" result="blur-2"/>
      <feFlood flood-opacity="0.161" result="color"/>
      <feComposite operator="out" in="SourceGraphic" in2="blur-2"/>
      <feComposite operator="in" in="color"/>
      <feComposite operator="in" in2="SourceGraphic"/>
    </filter>
  </defs>
  <g id="almost_done" data-name="almost done" transform="translate(-25 -506)">
    <g data-type="innerShadowGroup">
      <g transform="matrix(1, 0, 0, 1, 25, 506)" filter="url(#Union_3)">
        <g id="Union_3-3" data-name="Union 3" transform="translate(2987.51 2215)" fill="#fff">
          <path d="M -2796.492431640625 -1870.22998046875 L -2782.190673828125 -1902.884643554688 L -2781.8837890625 -1903.585205078125 L -2782.648681640625 -1903.585205078125 L -2787.999267578125 -1903.585205078125 C -2793.2578125 -1903.585205078125 -2798.51318359375 -1904.114990234375 -2803.618896484375 -1905.159790039062 C -2808.5947265625 -1906.177856445312 -2813.489013671875 -1907.697143554688 -2818.165771484375 -1909.67529296875 C -2822.758056640625 -1911.617553710938 -2827.18701171875 -1914.021606445312 -2831.330322265625 -1916.820678710938 C -2835.43408203125 -1919.593139648438 -2839.293212890625 -1922.777221679688 -2842.800537109375 -1926.284301757812 C -2846.3076171875 -1929.79150390625 -2849.49169921875 -1933.650634765625 -2852.26416015625 -1937.75439453125 C -2855.063232421875 -1941.8974609375 -2857.46728515625 -1946.326538085938 -2859.40966796875 -1950.918579101562 C -2861.3876953125 -1955.595458984375 -2862.906982421875 -1960.489624023438 -2863.92529296875 -1965.46533203125 C -2864.969970703125 -1970.570922851562 -2865.499755859375 -1975.826049804688 -2865.499755859375 -1981.084594726562 L -2865.499755859375 -2130.999267578125 C -2865.499755859375 -2136.2578125 -2864.969970703125 -2141.51318359375 -2863.92529296875 -2146.618896484375 C -2862.906982421875 -2151.5947265625 -2861.3876953125 -2156.489013671875 -2859.40966796875 -2161.165771484375 C -2857.46728515625 -2165.758056640625 -2855.063232421875 -2170.18701171875 -2852.26416015625 -2174.330322265625 C -2849.49169921875 -2178.43408203125 -2846.3076171875 -2182.293212890625 -2842.800537109375 -2185.800537109375 C -2839.293212890625 -2189.3076171875 -2835.43408203125 -2192.49169921875 -2831.330322265625 -2195.26416015625 C -2827.18701171875 -2198.063232421875 -2822.758056640625 -2200.46728515625 -2818.165771484375 -2202.40966796875 C -2813.489013671875 -2204.3876953125 -2808.5947265625 -2205.906982421875 -2803.618896484375 -2206.92529296875 C -2798.51318359375 -2207.969970703125 -2793.2578125 -2208.499755859375 -2787.999267578125 -2208.499755859375 L -2530.501220703125 -2208.499755859375 C -2525.24267578125 -2208.499755859375 -2519.987548828125 -2207.969970703125 -2514.881591796875 -2206.92529296875 C -2509.906005859375 -2205.906982421875 -2505.01171875 -2204.3876953125 -2500.334716796875 -2202.40966796875 C -2495.74267578125 -2200.46728515625 -2491.3134765625 -2198.063232421875 -2487.17041015625 -2195.26416015625 C -2483.066650390625 -2192.49169921875 -2479.20751953125 -2189.3076171875 -2475.7001953125 -2185.800537109375 C -2472.193115234375 -2182.293212890625 -2469.009033203125 -2178.43408203125 -2466.236572265625 -2174.330322265625 C -2463.4375 -2170.18701171875 -2461.033447265625 -2165.758056640625 -2459.091064453125 -2161.165771484375 C -2457.113037109375 -2156.489013671875 -2455.59375 -2151.5947265625 -2454.575439453125 -2146.618896484375 C -2453.53076171875 -2141.51318359375 -2453.0009765625 -2136.2578125 -2453.0009765625 -2130.999267578125 L -2453.0009765625 -1981.084594726562 C -2453.0009765625 -1975.826049804688 -2453.53076171875 -1970.570922851562 -2454.575439453125 -1965.46533203125 C -2455.59375 -1960.489624023438 -2457.113037109375 -1955.595458984375 -2459.091064453125 -1950.918579101562 C -2461.033447265625 -1946.326538085938 -2463.4375 -1941.8974609375 -2466.236572265625 -1937.75439453125 C -2469.009033203125 -1933.650634765625 -2472.193115234375 -1929.79150390625 -2475.7001953125 -1926.284301757812 C -2479.20751953125 -1922.777221679688 -2483.066650390625 -1919.593139648438 -2487.17041015625 -1916.820678710938 C -2491.3134765625 -1914.021606445312 -2495.74267578125 -1911.617553710938 -2500.334716796875 -1909.67529296875 C -2505.01171875 -1907.697143554688 -2509.906005859375 -1906.177856445312 -2514.881591796875 -1905.159790039062 C -2519.987548828125 -1904.114990234375 -2525.24267578125 -1903.585205078125 -2530.501220703125 -1903.585205078125 L -2727.01708984375 -1903.585205078125 L -2727.131103515625 -1903.585205078125 L -2727.233642578125 -1903.535766601562 L -2796.492431640625 -1870.22998046875 Z" stroke="none"/>
          <path d="M -2795.4931640625 -1871.265380859375 L -2727.2451171875 -1904.085205078125 L -2530.501220703125 -1904.085205078125 C -2520.105712890625 -1904.085205078125 -2510.02197265625 -1906.120971679688 -2500.529541015625 -1910.135864257812 C -2495.96728515625 -1912.065551757812 -2491.566650390625 -1914.453979492188 -2487.450439453125 -1917.234985351562 C -2483.372802734375 -1919.989624023438 -2479.53857421875 -1923.1533203125 -2476.0537109375 -1926.637939453125 C -2472.569091796875 -1930.12255859375 -2469.405517578125 -1933.956909179688 -2466.65087890625 -1938.034301757812 C -2463.869873046875 -1942.150634765625 -2461.4814453125 -1946.551025390625 -2459.551513671875 -1951.113403320312 C -2455.53662109375 -1960.605590820312 -2453.5009765625 -1970.689331054688 -2453.5009765625 -1981.084594726562 L -2453.5009765625 -2130.999267578125 C -2453.5009765625 -2141.394775390625 -2455.53662109375 -2151.478759765625 -2459.551513671875 -2160.970947265625 C -2461.4814453125 -2165.533447265625 -2463.869873046875 -2169.933837890625 -2466.65087890625 -2174.05029296875 C -2469.405517578125 -2178.1279296875 -2472.569091796875 -2181.962158203125 -2476.0537109375 -2185.44677734375 C -2479.53857421875 -2188.931640625 -2483.372802734375 -2192.09521484375 -2487.450439453125 -2194.849853515625 C -2491.566650390625 -2197.630859375 -2495.96728515625 -2200.019287109375 -2500.529541015625 -2201.94921875 C -2510.02197265625 -2205.964111328125 -2520.105712890625 -2207.999755859375 -2530.501220703125 -2207.999755859375 L -2787.999267578125 -2207.999755859375 C -2798.394775390625 -2207.999755859375 -2808.478759765625 -2205.964111328125 -2817.970947265625 -2201.94921875 C -2822.533447265625 -2200.019287109375 -2826.93408203125 -2197.630859375 -2831.05029296875 -2194.849853515625 C -2835.1279296875 -2192.09521484375 -2838.962158203125 -2188.931640625 -2842.44677734375 -2185.44677734375 C -2845.931640625 -2181.962158203125 -2849.09521484375 -2178.1279296875 -2851.849853515625 -2174.05029296875 C -2854.630859375 -2169.933837890625 -2857.019287109375 -2165.533447265625 -2858.94921875 -2160.970947265625 C -2862.964111328125 -2151.478759765625 -2864.999755859375 -2141.394775390625 -2864.999755859375 -2130.999267578125 L -2864.999755859375 -1981.084594726562 C -2864.999755859375 -1970.689331054688 -2862.964111328125 -1960.605590820312 -2858.94921875 -1951.113403320312 C -2857.019287109375 -1946.551025390625 -2854.630859375 -1942.150634765625 -2851.849853515625 -1938.034301757812 C -2849.09521484375 -1933.956909179688 -2845.931640625 -1930.12255859375 -2842.44677734375 -1926.637939453125 C -2838.962158203125 -1923.1533203125 -2835.1279296875 -1919.989624023438 -2831.05029296875 -1917.234985351562 C -2826.93408203125 -1914.453979492188 -2822.533447265625 -1912.065551757812 -2817.970947265625 -1910.135864257812 C -2808.478759765625 -1906.120971679688 -2798.394775390625 -1904.085205078125 -2787.999267578125 -1904.085205078125 L -2781.118896484375 -1904.085205078125 L -2795.4931640625 -1871.265380859375 M -2797.49169921875 -1869.194702148438 L -2782.648681640625 -1903.085205078125 L -2787.999267578125 -1903.085205078125 C -2831.077880859375 -1903.085205078125 -2865.999755859375 -1938.006958007812 -2865.999755859375 -1981.084594726562 L -2865.999755859375 -2130.999267578125 C -2865.999755859375 -2174.077880859375 -2831.077880859375 -2208.999755859375 -2787.999267578125 -2208.999755859375 L -2530.501220703125 -2208.999755859375 C -2487.4228515625 -2208.999755859375 -2452.5009765625 -2174.077880859375 -2452.5009765625 -2130.999267578125 L -2452.5009765625 -1981.084594726562 C -2452.5009765625 -1938.006958007812 -2487.4228515625 -1903.085205078125 -2530.501220703125 -1903.085205078125 L -2727.01708984375 -1903.085205078125 L -2797.49169921875 -1869.194702148438 Z" stroke="none" fill="#707070"/>
        </g>
      </g>
      <g id="Union_3-4" data-name="Union 3" transform="translate(3012.509 2721)" fill="#fff">
        <path d="M -2796.492431640625 -1870.22998046875 L -2782.190673828125 -1902.884643554688 L -2781.8837890625 -1903.585205078125 L -2782.648681640625 -1903.585205078125 L -2787.999267578125 -1903.585205078125 C -2793.2578125 -1903.585205078125 -2798.51318359375 -1904.114990234375 -2803.618896484375 -1905.159790039062 C -2808.5947265625 -1906.177856445312 -2813.489013671875 -1907.697143554688 -2818.165771484375 -1909.67529296875 C -2822.758056640625 -1911.617553710938 -2827.18701171875 -1914.021606445312 -2831.330322265625 -1916.820678710938 C -2835.43408203125 -1919.593139648438 -2839.293212890625 -1922.777221679688 -2842.800537109375 -1926.284301757812 C -2846.3076171875 -1929.79150390625 -2849.49169921875 -1933.650634765625 -2852.26416015625 -1937.75439453125 C -2855.063232421875 -1941.8974609375 -2857.46728515625 -1946.326538085938 -2859.40966796875 -1950.918579101562 C -2861.3876953125 -1955.595458984375 -2862.906982421875 -1960.489624023438 -2863.92529296875 -1965.46533203125 C -2864.969970703125 -1970.570922851562 -2865.499755859375 -1975.826049804688 -2865.499755859375 -1981.084594726562 L -2865.499755859375 -2130.999267578125 C -2865.499755859375 -2136.2578125 -2864.969970703125 -2141.51318359375 -2863.92529296875 -2146.618896484375 C -2862.906982421875 -2151.5947265625 -2861.3876953125 -2156.489013671875 -2859.40966796875 -2161.165771484375 C -2857.46728515625 -2165.758056640625 -2855.063232421875 -2170.18701171875 -2852.26416015625 -2174.330322265625 C -2849.49169921875 -2178.43408203125 -2846.3076171875 -2182.293212890625 -2842.800537109375 -2185.800537109375 C -2839.293212890625 -2189.3076171875 -2835.43408203125 -2192.49169921875 -2831.330322265625 -2195.26416015625 C -2827.18701171875 -2198.063232421875 -2822.758056640625 -2200.46728515625 -2818.165771484375 -2202.40966796875 C -2813.489013671875 -2204.3876953125 -2808.5947265625 -2205.906982421875 -2803.618896484375 -2206.92529296875 C -2798.51318359375 -2207.969970703125 -2793.2578125 -2208.499755859375 -2787.999267578125 -2208.499755859375 L -2530.501220703125 -2208.499755859375 C -2525.24267578125 -2208.499755859375 -2519.987548828125 -2207.969970703125 -2514.881591796875 -2206.92529296875 C -2509.906005859375 -2205.906982421875 -2505.01171875 -2204.3876953125 -2500.334716796875 -2202.40966796875 C -2495.74267578125 -2200.46728515625 -2491.3134765625 -2198.063232421875 -2487.17041015625 -2195.26416015625 C -2483.066650390625 -2192.49169921875 -2479.20751953125 -2189.3076171875 -2475.7001953125 -2185.800537109375 C -2472.193115234375 -2182.293212890625 -2469.009033203125 -2178.43408203125 -2466.236572265625 -2174.330322265625 C -2463.4375 -2170.18701171875 -2461.033447265625 -2165.758056640625 -2459.091064453125 -2161.165771484375 C -2457.113037109375 -2156.489013671875 -2455.59375 -2151.5947265625 -2454.575439453125 -2146.618896484375 C -2453.53076171875 -2141.51318359375 -2453.0009765625 -2136.2578125 -2453.0009765625 -2130.999267578125 L -2453.0009765625 -1981.084594726562 C -2453.0009765625 -1975.826049804688 -2453.53076171875 -1970.570922851562 -2454.575439453125 -1965.46533203125 C -2455.59375 -1960.489624023438 -2457.113037109375 -1955.595458984375 -2459.091064453125 -1950.918579101562 C -2461.033447265625 -1946.326538085938 -2463.4375 -1941.8974609375 -2466.236572265625 -1937.75439453125 C -2469.009033203125 -1933.650634765625 -2472.193115234375 -1929.79150390625 -2475.7001953125 -1926.284301757812 C -2479.20751953125 -1922.777221679688 -2483.066650390625 -1919.593139648438 -2487.17041015625 -1916.820678710938 C -2491.3134765625 -1914.021606445312 -2495.74267578125 -1911.617553710938 -2500.334716796875 -1909.67529296875 C -2505.01171875 -1907.697143554688 -2509.906005859375 -1906.177856445312 -2514.881591796875 -1905.159790039062 C -2519.987548828125 -1904.114990234375 -2525.24267578125 -1903.585205078125 -2530.501220703125 -1903.585205078125 L -2727.01708984375 -1903.585205078125 L -2727.131103515625 -1903.585205078125 L -2727.233642578125 -1903.535766601562 L -2796.492431640625 -1870.22998046875 Z" stroke="none"/>
        <path d="M -2795.4931640625 -1871.265380859375 L -2727.2451171875 -1904.085205078125 L -2530.501220703125 -1904.085205078125 C -2520.105712890625 -1904.085205078125 -2510.02197265625 -1906.120971679688 -2500.529541015625 -1910.135864257812 C -2495.96728515625 -1912.065551757812 -2491.566650390625 -1914.453979492188 -2487.450439453125 -1917.234985351562 C -2483.372802734375 -1919.989624023438 -2479.53857421875 -1923.1533203125 -2476.0537109375 -1926.637939453125 C -2472.569091796875 -1930.12255859375 -2469.405517578125 -1933.956909179688 -2466.65087890625 -1938.034301757812 C -2463.869873046875 -1942.150634765625 -2461.4814453125 -1946.551025390625 -2459.551513671875 -1951.113403320312 C -2455.53662109375 -1960.605590820312 -2453.5009765625 -1970.689331054688 -2453.5009765625 -1981.084594726562 L -2453.5009765625 -2130.999267578125 C -2453.5009765625 -2141.394775390625 -2455.53662109375 -2151.478759765625 -2459.551513671875 -2160.970947265625 C -2461.4814453125 -2165.533447265625 -2463.869873046875 -2169.933837890625 -2466.65087890625 -2174.05029296875 C -2469.405517578125 -2178.1279296875 -2472.569091796875 -2181.962158203125 -2476.0537109375 -2185.44677734375 C -2479.53857421875 -2188.931640625 -2483.372802734375 -2192.09521484375 -2487.450439453125 -2194.849853515625 C -2491.566650390625 -2197.630859375 -2495.96728515625 -2200.019287109375 -2500.529541015625 -2201.94921875 C -2510.02197265625 -2205.964111328125 -2520.105712890625 -2207.999755859375 -2530.501220703125 -2207.999755859375 L -2787.999267578125 -2207.999755859375 C -2798.394775390625 -2207.999755859375 -2808.478759765625 -2205.964111328125 -2817.970947265625 -2201.94921875 C -2822.533447265625 -2200.019287109375 -2826.93408203125 -2197.630859375 -2831.05029296875 -2194.849853515625 C -2835.1279296875 -2192.09521484375 -2838.962158203125 -2188.931640625 -2842.44677734375 -2185.44677734375 C -2845.931640625 -2181.962158203125 -2849.09521484375 -2178.1279296875 -2851.849853515625 -2174.05029296875 C -2854.630859375 -2169.933837890625 -2857.019287109375 -2165.533447265625 -2858.94921875 -2160.970947265625 C -2862.964111328125 -2151.478759765625 -2864.999755859375 -2141.394775390625 -2864.999755859375 -2130.999267578125 L -2864.999755859375 -1981.084594726562 C -2864.999755859375 -1970.689331054688 -2862.964111328125 -1960.605590820312 -2858.94921875 -1951.113403320312 C -2857.019287109375 -1946.551025390625 -2854.630859375 -1942.150634765625 -2851.849853515625 -1938.034301757812 C -2849.09521484375 -1933.956909179688 -2845.931640625 -1930.12255859375 -2842.44677734375 -1926.637939453125 C -2838.962158203125 -1923.1533203125 -2835.1279296875 -1919.989624023438 -2831.05029296875 -1917.234985351562 C -2826.93408203125 -1914.453979492188 -2822.533447265625 -1912.065551757812 -2817.970947265625 -1910.135864257812 C -2808.478759765625 -1906.120971679688 -2798.394775390625 -1904.085205078125 -2787.999267578125 -1904.085205078125 L -2781.118896484375 -1904.085205078125 L -2795.4931640625 -1871.265380859375 M -2797.49169921875 -1869.194702148438 L -2782.648681640625 -1903.085205078125 L -2787.999267578125 -1903.085205078125 C -2831.077880859375 -1903.085205078125 -2865.999755859375 -1938.006958007812 -2865.999755859375 -1981.084594726562 L -2865.999755859375 -2130.999267578125 C -2865.999755859375 -2174.077880859375 -2831.077880859375 -2208.999755859375 -2787.999267578125 -2208.999755859375 L -2530.501220703125 -2208.999755859375 C -2487.4228515625 -2208.999755859375 -2452.5009765625 -2174.077880859375 -2452.5009765625 -2130.999267578125 L -2452.5009765625 -1981.084594726562 C -2452.5009765625 -1938.006958007812 -2487.4228515625 -1903.085205078125 -2530.501220703125 -1903.085205078125 L -2727.01708984375 -1903.085205078125 L -2797.49169921875 -1869.194702148438 Z" stroke="none"/>
      </g>
      <g transform="matrix(1, 0, 0, 1, 25, 506)" filter="url(#Union_3-2)">
        <g id="Union_3-5" data-name="Union 3" transform="translate(2987.51 2215)" fill="#fff">
          <path d="M -2796.492431640625 -1870.22998046875 L -2782.190673828125 -1902.884643554688 L -2781.8837890625 -1903.585205078125 L -2782.648681640625 -1903.585205078125 L -2787.999267578125 -1903.585205078125 C -2793.2578125 -1903.585205078125 -2798.51318359375 -1904.114990234375 -2803.618896484375 -1905.159790039062 C -2808.5947265625 -1906.177856445312 -2813.489013671875 -1907.697143554688 -2818.165771484375 -1909.67529296875 C -2822.758056640625 -1911.617553710938 -2827.18701171875 -1914.021606445312 -2831.330322265625 -1916.820678710938 C -2835.43408203125 -1919.593139648438 -2839.293212890625 -1922.777221679688 -2842.800537109375 -1926.284301757812 C -2846.3076171875 -1929.79150390625 -2849.49169921875 -1933.650634765625 -2852.26416015625 -1937.75439453125 C -2855.063232421875 -1941.8974609375 -2857.46728515625 -1946.326538085938 -2859.40966796875 -1950.918579101562 C -2861.3876953125 -1955.595458984375 -2862.906982421875 -1960.489624023438 -2863.92529296875 -1965.46533203125 C -2864.969970703125 -1970.570922851562 -2865.499755859375 -1975.826049804688 -2865.499755859375 -1981.084594726562 L -2865.499755859375 -2130.999267578125 C -2865.499755859375 -2136.2578125 -2864.969970703125 -2141.51318359375 -2863.92529296875 -2146.618896484375 C -2862.906982421875 -2151.5947265625 -2861.3876953125 -2156.489013671875 -2859.40966796875 -2161.165771484375 C -2857.46728515625 -2165.758056640625 -2855.063232421875 -2170.18701171875 -2852.26416015625 -2174.330322265625 C -2849.49169921875 -2178.43408203125 -2846.3076171875 -2182.293212890625 -2842.800537109375 -2185.800537109375 C -2839.293212890625 -2189.3076171875 -2835.43408203125 -2192.49169921875 -2831.330322265625 -2195.26416015625 C -2827.18701171875 -2198.063232421875 -2822.758056640625 -2200.46728515625 -2818.165771484375 -2202.40966796875 C -2813.489013671875 -2204.3876953125 -2808.5947265625 -2205.906982421875 -2803.618896484375 -2206.92529296875 C -2798.51318359375 -2207.969970703125 -2793.2578125 -2208.499755859375 -2787.999267578125 -2208.499755859375 L -2530.501220703125 -2208.499755859375 C -2525.24267578125 -2208.499755859375 -2519.987548828125 -2207.969970703125 -2514.881591796875 -2206.92529296875 C -2509.906005859375 -2205.906982421875 -2505.01171875 -2204.3876953125 -2500.334716796875 -2202.40966796875 C -2495.74267578125 -2200.46728515625 -2491.3134765625 -2198.063232421875 -2487.17041015625 -2195.26416015625 C -2483.066650390625 -2192.49169921875 -2479.20751953125 -2189.3076171875 -2475.7001953125 -2185.800537109375 C -2472.193115234375 -2182.293212890625 -2469.009033203125 -2178.43408203125 -2466.236572265625 -2174.330322265625 C -2463.4375 -2170.18701171875 -2461.033447265625 -2165.758056640625 -2459.091064453125 -2161.165771484375 C -2457.113037109375 -2156.489013671875 -2455.59375 -2151.5947265625 -2454.575439453125 -2146.618896484375 C -2453.53076171875 -2141.51318359375 -2453.0009765625 -2136.2578125 -2453.0009765625 -2130.999267578125 L -2453.0009765625 -1981.084594726562 C -2453.0009765625 -1975.826049804688 -2453.53076171875 -1970.570922851562 -2454.575439453125 -1965.46533203125 C -2455.59375 -1960.489624023438 -2457.113037109375 -1955.595458984375 -2459.091064453125 -1950.918579101562 C -2461.033447265625 -1946.326538085938 -2463.4375 -1941.8974609375 -2466.236572265625 -1937.75439453125 C -2469.009033203125 -1933.650634765625 -2472.193115234375 -1929.79150390625 -2475.7001953125 -1926.284301757812 C -2479.20751953125 -1922.777221679688 -2483.066650390625 -1919.593139648438 -2487.17041015625 -1916.820678710938 C -2491.3134765625 -1914.021606445312 -2495.74267578125 -1911.617553710938 -2500.334716796875 -1909.67529296875 C -2505.01171875 -1907.697143554688 -2509.906005859375 -1906.177856445312 -2514.881591796875 -1905.159790039062 C -2519.987548828125 -1904.114990234375 -2525.24267578125 -1903.585205078125 -2530.501220703125 -1903.585205078125 L -2727.01708984375 -1903.585205078125 L -2727.131103515625 -1903.585205078125 L -2727.233642578125 -1903.535766601562 L -2796.492431640625 -1870.22998046875 Z" stroke="none"/>
          <path d="M -2795.4931640625 -1871.265380859375 L -2727.2451171875 -1904.085205078125 L -2530.501220703125 -1904.085205078125 C -2520.105712890625 -1904.085205078125 -2510.02197265625 -1906.120971679688 -2500.529541015625 -1910.135864257812 C -2495.96728515625 -1912.065551757812 -2491.566650390625 -1914.453979492188 -2487.450439453125 -1917.234985351562 C -2483.372802734375 -1919.989624023438 -2479.53857421875 -1923.1533203125 -2476.0537109375 -1926.637939453125 C -2472.569091796875 -1930.12255859375 -2469.405517578125 -1933.956909179688 -2466.65087890625 -1938.034301757812 C -2463.869873046875 -1942.150634765625 -2461.4814453125 -1946.551025390625 -2459.551513671875 -1951.113403320312 C -2455.53662109375 -1960.605590820312 -2453.5009765625 -1970.689331054688 -2453.5009765625 -1981.084594726562 L -2453.5009765625 -2130.999267578125 C -2453.5009765625 -2141.394775390625 -2455.53662109375 -2151.478759765625 -2459.551513671875 -2160.970947265625 C -2461.4814453125 -2165.533447265625 -2463.869873046875 -2169.933837890625 -2466.65087890625 -2174.05029296875 C -2469.405517578125 -2178.1279296875 -2472.569091796875 -2181.962158203125 -2476.0537109375 -2185.44677734375 C -2479.53857421875 -2188.931640625 -2483.372802734375 -2192.09521484375 -2487.450439453125 -2194.849853515625 C -2491.566650390625 -2197.630859375 -2495.96728515625 -2200.019287109375 -2500.529541015625 -2201.94921875 C -2510.02197265625 -2205.964111328125 -2520.105712890625 -2207.999755859375 -2530.501220703125 -2207.999755859375 L -2787.999267578125 -2207.999755859375 C -2798.394775390625 -2207.999755859375 -2808.478759765625 -2205.964111328125 -2817.970947265625 -2201.94921875 C -2822.533447265625 -2200.019287109375 -2826.93408203125 -2197.630859375 -2831.05029296875 -2194.849853515625 C -2835.1279296875 -2192.09521484375 -2838.962158203125 -2188.931640625 -2842.44677734375 -2185.44677734375 C -2845.931640625 -2181.962158203125 -2849.09521484375 -2178.1279296875 -2851.849853515625 -2174.05029296875 C -2854.630859375 -2169.933837890625 -2857.019287109375 -2165.533447265625 -2858.94921875 -2160.970947265625 C -2862.964111328125 -2151.478759765625 -2864.999755859375 -2141.394775390625 -2864.999755859375 -2130.999267578125 L -2864.999755859375 -1981.084594726562 C -2864.999755859375 -1970.689331054688 -2862.964111328125 -1960.605590820312 -2858.94921875 -1951.113403320312 C -2857.019287109375 -1946.551025390625 -2854.630859375 -1942.150634765625 -2851.849853515625 -1938.034301757812 C -2849.09521484375 -1933.956909179688 -2845.931640625 -1930.12255859375 -2842.44677734375 -1926.637939453125 C -2838.962158203125 -1923.1533203125 -2835.1279296875 -1919.989624023438 -2831.05029296875 -1917.234985351562 C -2826.93408203125 -1914.453979492188 -2822.533447265625 -1912.065551757812 -2817.970947265625 -1910.135864257812 C -2808.478759765625 -1906.120971679688 -2798.394775390625 -1904.085205078125 -2787.999267578125 -1904.085205078125 L -2781.118896484375 -1904.085205078125 L -2795.4931640625 -1871.265380859375 M -2797.49169921875 -1869.194702148438 L -2782.648681640625 -1903.085205078125 L -2787.999267578125 -1903.085205078125 C -2831.077880859375 -1903.085205078125 -2865.999755859375 -1938.006958007812 -2865.999755859375 -1981.084594726562 L -2865.999755859375 -2130.999267578125 C -2865.999755859375 -2174.077880859375 -2831.077880859375 -2208.999755859375 -2787.999267578125 -2208.999755859375 L -2530.501220703125 -2208.999755859375 C -2487.4228515625 -2208.999755859375 -2452.5009765625 -2174.077880859375 -2452.5009765625 -2130.999267578125 L -2452.5009765625 -1981.084594726562 C -2452.5009765625 -1938.006958007812 -2487.4228515625 -1903.085205078125 -2530.501220703125 -1903.085205078125 L -2727.01708984375 -1903.085205078125 L -2797.49169921875 -1869.194702148438 Z" stroke="none"/>
        </g>
      </g>
      <g id="Union_3-6" data-name="Union 3" transform="translate(3012.509 2721)" fill="none">
        <path d="M -2796.492431640625 -1870.22998046875 L -2782.190673828125 -1902.884643554688 L -2781.8837890625 -1903.585205078125 L -2782.648681640625 -1903.585205078125 L -2787.999267578125 -1903.585205078125 C -2793.2578125 -1903.585205078125 -2798.51318359375 -1904.114990234375 -2803.618896484375 -1905.159790039062 C -2808.5947265625 -1906.177856445312 -2813.489013671875 -1907.697143554688 -2818.165771484375 -1909.67529296875 C -2822.758056640625 -1911.617553710938 -2827.18701171875 -1914.021606445312 -2831.330322265625 -1916.820678710938 C -2835.43408203125 -1919.593139648438 -2839.293212890625 -1922.777221679688 -2842.800537109375 -1926.284301757812 C -2846.3076171875 -1929.79150390625 -2849.49169921875 -1933.650634765625 -2852.26416015625 -1937.75439453125 C -2855.063232421875 -1941.8974609375 -2857.46728515625 -1946.326538085938 -2859.40966796875 -1950.918579101562 C -2861.3876953125 -1955.595458984375 -2862.906982421875 -1960.489624023438 -2863.92529296875 -1965.46533203125 C -2864.969970703125 -1970.570922851562 -2865.499755859375 -1975.826049804688 -2865.499755859375 -1981.084594726562 L -2865.499755859375 -2130.999267578125 C -2865.499755859375 -2136.2578125 -2864.969970703125 -2141.51318359375 -2863.92529296875 -2146.618896484375 C -2862.906982421875 -2151.5947265625 -2861.3876953125 -2156.489013671875 -2859.40966796875 -2161.165771484375 C -2857.46728515625 -2165.758056640625 -2855.063232421875 -2170.18701171875 -2852.26416015625 -2174.330322265625 C -2849.49169921875 -2178.43408203125 -2846.3076171875 -2182.293212890625 -2842.800537109375 -2185.800537109375 C -2839.293212890625 -2189.3076171875 -2835.43408203125 -2192.49169921875 -2831.330322265625 -2195.26416015625 C -2827.18701171875 -2198.063232421875 -2822.758056640625 -2200.46728515625 -2818.165771484375 -2202.40966796875 C -2813.489013671875 -2204.3876953125 -2808.5947265625 -2205.906982421875 -2803.618896484375 -2206.92529296875 C -2798.51318359375 -2207.969970703125 -2793.2578125 -2208.499755859375 -2787.999267578125 -2208.499755859375 L -2530.501220703125 -2208.499755859375 C -2525.24267578125 -2208.499755859375 -2519.987548828125 -2207.969970703125 -2514.881591796875 -2206.92529296875 C -2509.906005859375 -2205.906982421875 -2505.01171875 -2204.3876953125 -2500.334716796875 -2202.40966796875 C -2495.74267578125 -2200.46728515625 -2491.3134765625 -2198.063232421875 -2487.17041015625 -2195.26416015625 C -2483.066650390625 -2192.49169921875 -2479.20751953125 -2189.3076171875 -2475.7001953125 -2185.800537109375 C -2472.193115234375 -2182.293212890625 -2469.009033203125 -2178.43408203125 -2466.236572265625 -2174.330322265625 C -2463.4375 -2170.18701171875 -2461.033447265625 -2165.758056640625 -2459.091064453125 -2161.165771484375 C -2457.113037109375 -2156.489013671875 -2455.59375 -2151.5947265625 -2454.575439453125 -2146.618896484375 C -2453.53076171875 -2141.51318359375 -2453.0009765625 -2136.2578125 -2453.0009765625 -2130.999267578125 L -2453.0009765625 -1981.084594726562 C -2453.0009765625 -1975.826049804688 -2453.53076171875 -1970.570922851562 -2454.575439453125 -1965.46533203125 C -2455.59375 -1960.489624023438 -2457.113037109375 -1955.595458984375 -2459.091064453125 -1950.918579101562 C -2461.033447265625 -1946.326538085938 -2463.4375 -1941.8974609375 -2466.236572265625 -1937.75439453125 C -2469.009033203125 -1933.650634765625 -2472.193115234375 -1929.79150390625 -2475.7001953125 -1926.284301757812 C -2479.20751953125 -1922.777221679688 -2483.066650390625 -1919.593139648438 -2487.17041015625 -1916.820678710938 C -2491.3134765625 -1914.021606445312 -2495.74267578125 -1911.617553710938 -2500.334716796875 -1909.67529296875 C -2505.01171875 -1907.697143554688 -2509.906005859375 -1906.177856445312 -2514.881591796875 -1905.159790039062 C -2519.987548828125 -1904.114990234375 -2525.24267578125 -1903.585205078125 -2530.501220703125 -1903.585205078125 L -2727.01708984375 -1903.585205078125 L -2727.131103515625 -1903.585205078125 L -2727.233642578125 -1903.535766601562 L -2796.492431640625 -1870.22998046875 Z" stroke="none"/>
        <path d="M -2795.4931640625 -1871.265380859375 L -2727.2451171875 -1904.085205078125 L -2530.501220703125 -1904.085205078125 C -2520.105712890625 -1904.085205078125 -2510.02197265625 -1906.120971679688 -2500.529541015625 -1910.135864257812 C -2495.96728515625 -1912.065551757812 -2491.566650390625 -1914.453979492188 -2487.450439453125 -1917.234985351562 C -2483.372802734375 -1919.989624023438 -2479.53857421875 -1923.1533203125 -2476.0537109375 -1926.637939453125 C -2472.569091796875 -1930.12255859375 -2469.405517578125 -1933.956909179688 -2466.65087890625 -1938.034301757812 C -2463.869873046875 -1942.150634765625 -2461.4814453125 -1946.551025390625 -2459.551513671875 -1951.113403320312 C -2455.53662109375 -1960.605590820312 -2453.5009765625 -1970.689331054688 -2453.5009765625 -1981.084594726562 L -2453.5009765625 -2130.999267578125 C -2453.5009765625 -2141.394775390625 -2455.53662109375 -2151.478759765625 -2459.551513671875 -2160.970947265625 C -2461.4814453125 -2165.533447265625 -2463.869873046875 -2169.933837890625 -2466.65087890625 -2174.05029296875 C -2469.405517578125 -2178.1279296875 -2472.569091796875 -2181.962158203125 -2476.0537109375 -2185.44677734375 C -2479.53857421875 -2188.931640625 -2483.372802734375 -2192.09521484375 -2487.450439453125 -2194.849853515625 C -2491.566650390625 -2197.630859375 -2495.96728515625 -2200.019287109375 -2500.529541015625 -2201.94921875 C -2510.02197265625 -2205.964111328125 -2520.105712890625 -2207.999755859375 -2530.501220703125 -2207.999755859375 L -2787.999267578125 -2207.999755859375 C -2798.394775390625 -2207.999755859375 -2808.478759765625 -2205.964111328125 -2817.970947265625 -2201.94921875 C -2822.533447265625 -2200.019287109375 -2826.93408203125 -2197.630859375 -2831.05029296875 -2194.849853515625 C -2835.1279296875 -2192.09521484375 -2838.962158203125 -2188.931640625 -2842.44677734375 -2185.44677734375 C -2845.931640625 -2181.962158203125 -2849.09521484375 -2178.1279296875 -2851.849853515625 -2174.05029296875 C -2854.630859375 -2169.933837890625 -2857.019287109375 -2165.533447265625 -2858.94921875 -2160.970947265625 C -2862.964111328125 -2151.478759765625 -2864.999755859375 -2141.394775390625 -2864.999755859375 -2130.999267578125 L -2864.999755859375 -1981.084594726562 C -2864.999755859375 -1970.689331054688 -2862.964111328125 -1960.605590820312 -2858.94921875 -1951.113403320312 C -2857.019287109375 -1946.551025390625 -2854.630859375 -1942.150634765625 -2851.849853515625 -1938.034301757812 C -2849.09521484375 -1933.956909179688 -2845.931640625 -1930.12255859375 -2842.44677734375 -1926.637939453125 C -2838.962158203125 -1923.1533203125 -2835.1279296875 -1919.989624023438 -2831.05029296875 -1917.234985351562 C -2826.93408203125 -1914.453979492188 -2822.533447265625 -1912.065551757812 -2817.970947265625 -1910.135864257812 C -2808.478759765625 -1906.120971679688 -2798.394775390625 -1904.085205078125 -2787.999267578125 -1904.085205078125 L -2781.118896484375 -1904.085205078125 L -2795.4931640625 -1871.265380859375 M -2797.49169921875 -1869.194702148438 L -2782.648681640625 -1903.085205078125 L -2787.999267578125 -1903.085205078125 C -2831.077880859375 -1903.085205078125 -2865.999755859375 -1938.006958007812 -2865.999755859375 -1981.084594726562 L -2865.999755859375 -2130.999267578125 C -2865.999755859375 -2174.077880859375 -2831.077880859375 -2208.999755859375 -2787.999267578125 -2208.999755859375 L -2530.501220703125 -2208.999755859375 C -2487.4228515625 -2208.999755859375 -2452.5009765625 -2174.077880859375 -2452.5009765625 -2130.999267578125 L -2452.5009765625 -1981.084594726562 C -2452.5009765625 -1938.006958007812 -2487.4228515625 -1903.085205078125 -2530.501220703125 -1903.085205078125 L -2727.01708984375 -1903.085205078125 L -2797.49169921875 -1869.194702148438 Z" stroke="none" fill="#707070"/>
      </g>
    </g>
    <text id="Almost_done_Now_pick_three_design_keywords_you_like_the_most" data-name="Almost done! Now pick three ‘design keywords’ you like the most" transform="translate(187 586)" fill="#0f4470" font-size="40" font-family="GillSans-SemiBold, Gill Sans" font-weight="600"><tspan x="0" y="38">Almost done! Now </tspan><tspan x="0" y="86">pick three ‘design </tspan><tspan x="0" y="134">keywords’ you like </tspan><tspan x="0" y="182">the most</tspan></text>
    <g id="Component_9_7" data-name="Component 9 – 7" transform="translate(25 852)">
      <g id="Union_1" data-name="Union 1" fill="none">
        <path d="M0,215V85H.009C0,84.583,0,84.168,0,83.75,0,37.5,36.266,0,81,0s81,37.5,81,83.75c0,.418,0,.833-.009,1.249H162V215Z" stroke="none"/>
        <path d="M 157 210 L 157 89.99918365478516 L 156.9205932617188 89.99918365478516 L 156.9917144775391 84.92905426025391 C 156.9972229003906 84.53692626953125 157 84.14024353027344 157 83.74996185302734 C 157 73.09621429443359 154.9836273193359 62.76521301269531 151.0068511962891 53.04389953613281 C 149.0967864990234 48.37467956542969 146.7328491210938 43.87155532836914 143.9807434082031 39.65961837768555 C 141.2559661865234 35.48945999145508 138.1272888183594 31.5685863494873 134.6815948486328 28.00589942932129 C 131.2386932373047 24.44611740112305 127.4513092041016 21.21496200561523 123.4246597290039 18.4022102355957 C 119.3638763427734 15.56564903259277 115.0239715576172 13.12989902496338 110.5255661010742 11.1625862121582 C 101.1751556396484 7.073398590087891 91.24150085449219 4.999992370605469 81.00050354003906 4.999992370605469 C 70.75937652587891 4.999992370605469 60.8255615234375 7.073398590087891 51.47506332397461 11.1625862121582 C 46.9765625 13.12989902496338 42.63662338256836 15.56564903259277 38.57578277587891 18.40224266052246 C 34.5490608215332 21.21499252319336 30.76162528991699 24.44614791870117 27.31871795654297 28.00592994689941 C 23.87296867370605 31.56861686706543 20.74421882629395 35.4894905090332 18.01940536499023 39.65964889526367 C 15.2672815322876 43.87158584594727 12.90331268310547 48.37471008300781 10.99324989318848 53.04393005371094 C 7.016406059265137 62.76524353027344 5 73.09624481201172 5 83.74996185302734 C 5 84.14024353027344 5.002781391143799 84.53692626953125 5.008281230926514 84.92905426025391 L 5.079406261444092 89.99918365478516 L 5 89.99918365478516 L 5 210 L 157 210 M 162 215 L 0 215 L 0 84.99918365478516 L 0.008781249634921551 84.99918365478516 C 0.002937499899417162 84.58258819580078 0 84.16767883300781 0 83.74996185302734 C 0 37.49636840820312 36.265625 -7.62939453125e-06 81.00050354003906 -7.62939453125e-06 C 125.7348785400391 -7.62939453125e-06 162 37.49636840820312 162 83.74996185302734 C 162 84.16767883300781 161.9970550537109 84.58258819580078 161.9912261962891 84.99918365478516 L 162 84.99918365478516 L 162 215 Z" stroke="none" fill="#022c42"/>
      </g>
      <rect id="Rectangle_9" data-name="Rectangle 9" width="15" height="29" rx="5" transform="translate(111 46)" fill="#022c42"/>
      <path id="Union_2" data-name="Union 2" d="M.138,11.333H0V0H27V11.333h-.135C25.928,14.537,20.3,17,13.5,17S1.071,14.537.138,11.333Z" transform="translate(80 83)" fill="#022c42"/>
      <rect id="Rectangle_11" data-name="Rectangle 11" width="15" height="29" rx="5" transform="translate(61 46)" fill="#022c42"/>
    </g>
  </g>
</svg>
