<svg xmlns="http://www.w3.org/2000/svg" width="87" height="111" viewBox="0 0 87 111">
  <g id="Angry" transform="translate(-430 -618)">
    <g id="Ellipse_15" data-name="Ellipse 15" transform="translate(430 618)" fill="#fff" stroke="#707070" stroke-width="1">
      <circle cx="43.5" cy="43.5" r="43.5" stroke="none"/>
      <circle cx="43.5" cy="43.5" r="43" fill="none"/>
    </g>
    <path id="Subtraction_4" data-name="Subtraction 4" d="M-2842.929-3414.124a6.959,6.959,0,0,1-3.975-1.237,6.991,6.991,0,0,1-2.532-3.176,12.327,12.327,0,0,0,5.082-1.529,12.251,12.251,0,0,0,5.649-6.64,6.95,6.95,0,0,1,2.775,5.582A7.008,7.008,0,0,1-2842.929-3414.124Z" transform="translate(3333.929 4073.124)" fill="#070101"/>
    <text id="Angry-2" data-name="Angry" transform="translate(440 699)" fill="#f40e0e" font-size="25" font-family="GillSans-SemiBold, Gill Sans" font-weight="600"><tspan x="0" y="24">Angry</tspan></text>
    <path id="Path_5" data-name="Path 5" d="M3154.118,4140s15.99-22.059,31.087,0" transform="translate(-2697 -3456)" fill="none" stroke="#070000" stroke-width="1"/>
    <path id="Subtraction_5" data-name="Subtraction 5" d="M-2842.929-3414.124a6.959,6.959,0,0,1-3.975-1.237,6.991,6.991,0,0,1-2.532-3.176,12.327,12.327,0,0,0,5.082-1.529,12.251,12.251,0,0,0,5.649-6.64,6.95,6.95,0,0,1,2.775,5.582A7.008,7.008,0,0,1-2842.929-3414.124Z" transform="matrix(0.225, 0.974, -0.974, 0.225, -2239.023, 4191.25)" fill="#070101"/>
    <path id="Path_6" data-name="Path 6" d="M3157.792,4110.647s-9.947-3.458-10.918-12.148" transform="translate(-2697 -3456)" fill="none" stroke="#0b0303" stroke-width="1"/>
    <path id="Path_7" data-name="Path 7" d="M3146.874,4110.647s10.3-3.458,11.3-12.148" transform="translate(-2661.705 -3455.499)" fill="none" stroke="#0b0303" stroke-width="1"/>
    <path id="Subtraction_11" data-name="Subtraction 11" d="M-2842.929-3414.124a6.959,6.959,0,0,1-3.975-1.237,6.991,6.991,0,0,1-2.532-3.176,12.327,12.327,0,0,0,5.082-1.529,12.251,12.251,0,0,0,5.649-6.64,6.95,6.95,0,0,1,2.775,5.582A7.008,7.008,0,0,1-2842.929-3414.124Z" transform="translate(3333.929 4073.124)" fill="#070101"/>
    <path id="Path_12" data-name="Path 12" d="M3154.118,4140s15.99-22.059,31.087,0" transform="translate(-2697 -3456)" fill="none" stroke="#070000" stroke-width="1"/>
    <path id="Path_13" data-name="Path 13" d="M3157.792,4110.647s-9.947-3.458-10.918-12.148" transform="translate(-2697 -3456)" fill="none" stroke="#0b0303" stroke-width="1"/>
    <path id="Path_14" data-name="Path 14" d="M3146.874,4110.647s10.3-3.458,11.3-12.148" transform="translate(-2661.705 -3455.499)" fill="none" stroke="#0b0303" stroke-width="1"/>
  </g>
</svg>
