<svg xmlns="http://www.w3.org/2000/svg" width="735" height="116" viewBox="0 0 735 116">
  <g id="Emotions" transform="translate(-34 -567)">
    <g id="Ellipse_7" data-name="Ellipse 7" transform="translate(34 568)" fill="#fff" stroke="#707070" stroke-width="1">
      <circle cx="43.5" cy="43.5" r="43.5" stroke="none"/>
      <circle cx="43.5" cy="43.5" r="43" fill="none"/>
    </g>
    <path id="Subtraction_2" data-name="Subtraction 2" d="M-2864.338-3434.47h0A7.007,7.007,0,0,1-2866-3439a7.008,7.008,0,0,1,7-7,7.008,7.008,0,0,1,7,7,7,7,0,0,1-1.662,4.529A23.481,23.481,0,0,0-2859-3435a23.42,23.42,0,0,0-5.337.53Z" transform="translate(2956 4043)" fill="#070101"/>
    <path id="Path_4" data-name="Path 4" d="M3013,4150.25s11.046-24.45,30.452,0" transform="translate(-2947.97 -3515.817)" fill="none" stroke="#0a0101" stroke-width="1"/>
    <g id="Ellipse_11" data-name="Ellipse 11" transform="translate(134 568)" fill="#fff" stroke="#707070" stroke-width="1">
      <circle cx="43.5" cy="43.5" r="43.5" stroke="none"/>
      <circle cx="43.5" cy="43.5" r="43" fill="none"/>
    </g>
    <circle id="Ellipse_12" data-name="Ellipse 12" cx="7" cy="7" r="7" transform="translate(188 595)" fill="#070101"/>
    <circle id="Ellipse_13" data-name="Ellipse 13" cx="7" cy="7" r="7" transform="translate(152 595)" fill="#070101"/>
    <circle id="Ellipse_14" data-name="Ellipse 14" cx="9" cy="9" r="9" transform="translate(169 618)" fill="#070101"/>
    <rect id="Rectangle_18" data-name="Rectangle 18" width="6.991" height="20.973" rx="3.496" transform="translate(188.975 591.817) rotate(-45)" fill="#070101"/>
    <rect id="Rectangle_19" data-name="Rectangle 19" width="6.991" height="20.973" rx="3.496" transform="matrix(0.656, 0.755, -0.755, 0.656, 160.206, 587.243)" fill="#070101"/>
    <g id="Ellipse_15" data-name="Ellipse 15" transform="translate(234 567)" fill="#fff" stroke="#707070" stroke-width="1">
      <circle cx="43.5" cy="43.5" r="43.5" stroke="none"/>
      <circle cx="43.5" cy="43.5" r="43" fill="none"/>
    </g>
    <circle id="Ellipse_16" data-name="Ellipse 16" cx="7" cy="7" r="7" transform="translate(288 594)" fill="#070101"/>
    <circle id="Ellipse_17" data-name="Ellipse 17" cx="7" cy="7" r="7" transform="translate(252 594)" fill="#070101"/>
    <circle id="Ellipse_18" data-name="Ellipse 18" cx="9" cy="9" r="9" transform="translate(269 617)" fill="#070101"/>
    <rect id="Rectangle_20" data-name="Rectangle 20" width="6.991" height="20.973" rx="3.496" transform="translate(288.975 590.817) rotate(-45)" fill="#070101"/>
    <rect id="Rectangle_21" data-name="Rectangle 21" width="6.991" height="20.973" rx="3.496" transform="matrix(0.656, 0.755, -0.755, 0.656, 260.206, 586.243)" fill="#070101"/>
    <g id="Ellipse_19" data-name="Ellipse 19" transform="translate(134 568)" fill="#fff" stroke="#707070" stroke-width="1">
      <circle cx="43.5" cy="43.5" r="43.5" stroke="none"/>
      <circle cx="43.5" cy="43.5" r="43" fill="none"/>
    </g>
    <circle id="Ellipse_20" data-name="Ellipse 20" cx="7" cy="7" r="7" transform="translate(188 595)" fill="#070101"/>
    <circle id="Ellipse_21" data-name="Ellipse 21" cx="7" cy="7" r="7" transform="translate(152 595)" fill="#070101"/>
    <ellipse id="Ellipse_22" data-name="Ellipse 22" cx="15" cy="8.5" rx="15" ry="8.5" transform="translate(163 617)" fill="#070101"/>
    <rect id="Rectangle_22" data-name="Rectangle 22" width="6.991" height="20.973" rx="3.496" transform="translate(188.975 591.817) rotate(-45)" fill="#070101"/>
    <rect id="Rectangle_23" data-name="Rectangle 23" width="6.991" height="20.973" rx="3.496" transform="matrix(0.656, 0.755, -0.755, 0.656, 160.206, 587.243)" fill="#070101"/>
    <g id="Ellipse_23" data-name="Ellipse 23" transform="translate(234 567)" fill="#fff" stroke="#707070" stroke-width="1">
      <circle cx="43.5" cy="43.5" r="43.5" stroke="none"/>
      <circle cx="43.5" cy="43.5" r="43" fill="none"/>
    </g>
    <path id="Subtraction_4" data-name="Subtraction 4" d="M-2842.929-3414.124a6.959,6.959,0,0,1-3.975-1.237,6.991,6.991,0,0,1-2.532-3.176,12.327,12.327,0,0,0,5.082-1.529,12.251,12.251,0,0,0,5.649-6.64,6.95,6.95,0,0,1,2.775,5.582A7.008,7.008,0,0,1-2842.929-3414.124Z" transform="translate(3137.929 4022.124)" fill="#070101"/>
    <g id="Ellipse_27" data-name="Ellipse 27" transform="translate(338 567)" fill="#fff" stroke="#707070" stroke-width="1">
      <circle cx="43.5" cy="43.5" r="43.5" stroke="none"/>
      <circle cx="43.5" cy="43.5" r="43" fill="none"/>
    </g>
    <circle id="Ellipse_28" data-name="Ellipse 28" cx="7" cy="7" r="7" transform="translate(392 594)" fill="#070101"/>
    <circle id="Ellipse_29" data-name="Ellipse 29" cx="7" cy="7" r="7" transform="translate(356 594)" fill="#070101"/>
    <circle id="Ellipse_30" data-name="Ellipse 30" cx="9" cy="9" r="9" transform="translate(373 617)" fill="#070101"/>
    <rect id="Rectangle_26" data-name="Rectangle 26" width="6.991" height="20.973" rx="3.496" transform="translate(392.975 590.817) rotate(-45)" fill="#070101"/>
    <rect id="Rectangle_27" data-name="Rectangle 27" width="6.991" height="20.973" rx="3.496" transform="matrix(0.656, 0.755, -0.755, 0.656, 364.206, 586.243)" fill="#070101"/>
    <circle id="Ellipse_32" data-name="Ellipse 32" cx="7" cy="7" r="7" transform="translate(495 592)" fill="#070101"/>
    <circle id="Ellipse_33" data-name="Ellipse 33" cx="7" cy="7" r="7" transform="translate(459 592)" fill="#070101"/>
    <circle id="Ellipse_34" data-name="Ellipse 34" cx="9" cy="9" r="9" transform="translate(476 615)" fill="#070101"/>
    <rect id="Rectangle_28" data-name="Rectangle 28" width="6.991" height="20.973" rx="3.496" transform="translate(495.975 588.817) rotate(-45)" fill="#070101"/>
    <rect id="Rectangle_29" data-name="Rectangle 29" width="6.991" height="20.973" rx="3.496" transform="matrix(0.656, 0.755, -0.755, 0.656, 467.206, 584.243)" fill="#070101"/>
    <g id="Ellipse_35" data-name="Ellipse 35" transform="translate(338 567)" fill="#fff" stroke="#707070" stroke-width="1">
      <circle cx="43.5" cy="43.5" r="43.5" stroke="none"/>
      <circle cx="43.5" cy="43.5" r="43" fill="none"/>
    </g>
    <g id="Ellipse_39" data-name="Ellipse 39" transform="translate(441 567)" fill="#fff" stroke="#707070" stroke-width="1">
      <circle cx="43.5" cy="43.5" r="43.5" stroke="none"/>
      <circle cx="43.5" cy="43.5" r="43" fill="none"/>
    </g>
    <circle id="Ellipse_40" data-name="Ellipse 40" cx="7" cy="7" r="7" transform="translate(495 592)" fill="#070101"/>
    <circle id="Ellipse_41" data-name="Ellipse 41" cx="7" cy="7" r="7" transform="translate(459 592)" fill="#070101"/>
    <circle id="Ellipse_44" data-name="Ellipse 44" cx="7" cy="7" r="7" transform="translate(599 592)" fill="#070101"/>
    <circle id="Ellipse_45" data-name="Ellipse 45" cx="7" cy="7" r="7" transform="translate(563 592)" fill="#070101"/>
    <circle id="Ellipse_46" data-name="Ellipse 46" cx="9" cy="9" r="9" transform="translate(580 615)" fill="#070101"/>
    <rect id="Rectangle_34" data-name="Rectangle 34" width="6.991" height="20.973" rx="3.496" transform="translate(599.975 588.817) rotate(-45)" fill="#070101"/>
    <rect id="Rectangle_35" data-name="Rectangle 35" width="6.991" height="20.973" rx="3.496" transform="matrix(0.656, 0.755, -0.755, 0.656, 571.206, 584.243)" fill="#070101"/>
    <circle id="Ellipse_49" data-name="Ellipse 49" cx="7" cy="7" r="7" transform="translate(664 592)" fill="#070101"/>
    <circle id="Ellipse_50" data-name="Ellipse 50" cx="9" cy="9" r="9" transform="translate(681 615)" fill="#070101"/>
    <rect id="Rectangle_37" data-name="Rectangle 37" width="6.991" height="20.973" rx="3.496" transform="matrix(0.656, 0.755, -0.755, 0.656, 672.206, 584.243)" fill="#070101"/>
    <g id="Ellipse_51" data-name="Ellipse 51" transform="translate(545 567)" fill="#fff" stroke="#707070" stroke-width="1">
      <circle cx="43.5" cy="43.5" r="43.5" stroke="none"/>
      <circle cx="43.5" cy="43.5" r="43" fill="none"/>
    </g>
    <circle id="Ellipse_52" data-name="Ellipse 52" cx="7" cy="7" r="7" transform="translate(599 592)" fill="#070101"/>
    <circle id="Ellipse_53" data-name="Ellipse 53" cx="7" cy="7" r="7" transform="translate(563 592)" fill="#070101"/>
    <ellipse id="Ellipse_54" data-name="Ellipse 54" cx="9" cy="11" rx="9" ry="11" transform="translate(580 613)" fill="#070101"/>
    <g id="Ellipse_55" data-name="Ellipse 55" transform="translate(646 567)" fill="#fff" stroke="#707070" stroke-width="1">
      <circle cx="43.5" cy="43.5" r="43.5" stroke="none"/>
      <circle cx="43.5" cy="43.5" r="43" fill="none"/>
    </g>
    <path id="Subtraction_6" data-name="Subtraction 6" d="M-2845.5-3422a23.865,23.865,0,0,1-12.374-3.164c-3.305-2.04-5.125-4.752-5.125-7.637a6.8,6.8,0,0,1,.107-1.2h34.786a6.811,6.811,0,0,1,.107,1.2c0,2.885-1.82,5.6-5.126,7.637A23.868,23.868,0,0,1-2845.5-3422Z" transform="translate(3536 4055)" fill="#070101"/>
    <path id="Subtraction_3" data-name="Subtraction 3" d="M-2864.338-3434.47h0A7.007,7.007,0,0,1-2866-3439a7.008,7.008,0,0,1,7-7,7.008,7.008,0,0,1,7,7,7,7,0,0,1-1.662,4.529A23.481,23.481,0,0,0-2859-3435a23.42,23.42,0,0,0-5.337.53Z" transform="translate(2920 4043.117)" fill="#070101"/>
    <rect id="Rectangle_42" data-name="Rectangle 42" width="2.991" height="8.973" rx="1.496" transform="matrix(0.656, 0.755, -0.755, 0.656, 56.405, 590.616)" fill="#070101"/>
    <rect id="Rectangle_43" data-name="Rectangle 43" width="2.991" height="8.973" rx="1.496" transform="translate(106.748 595.103) rotate(120)" fill="#070101"/>
    <text id="Sad" transform="translate(55 653)" fill="#25acf4" font-size="25" font-family="GillSans-SemiBold, Gill Sans" font-weight="600"><tspan x="0" y="24">Sad</tspan></text>
    <text id="Angry" transform="translate(246 653)" fill="#f40e0e" font-size="25" font-family="GillSans-SemiBold, Gill Sans" font-weight="600"><tspan x="0" y="24">Angry</tspan></text>
    <text id="Fear" transform="translate(156 653)" fill="#030101" font-size="25" font-family="GillSans-SemiBold, Gill Sans" font-weight="600"><tspan x="0" y="24">Fear</tspan></text>
    <text id="Disgust" transform="translate(345 653)" fill="#015715" font-size="25" font-family="GillSans-SemiBold, Gill Sans" font-weight="600"><tspan x="0" y="24">Disgust</tspan></text>
    <text id="Neutral" transform="translate(440 653)" fill="#a5a5a5" font-size="25" font-family="GillSans-SemiBold, Gill Sans" font-weight="600"><tspan x="0" y="24">Neutral</tspan></text>
    <text id="Surprise" transform="translate(543 653)" fill="#f402f4" font-size="25" font-family="GillSans-SemiBold, Gill Sans" font-weight="600"><tspan x="0" y="24">Surprise</tspan></text>
    <text id="Happy" transform="translate(657 653)" fill="#fcf206" font-size="25" font-family="GillSans-SemiBold, Gill Sans" font-weight="600"><tspan x="0" y="24">Happy</tspan></text>
    <ellipse id="Ellipse_62" data-name="Ellipse 62" cx="16" cy="4" rx="16" ry="4" transform="translate(162 630)" fill="#fff"/>
    <path id="Path_5" data-name="Path 5" d="M3154.118,4140s15.99-22.059,31.087,0" transform="translate(-2893 -3507)" fill="none" stroke="#070000" stroke-width="1"/>
    <path id="Subtraction_5" data-name="Subtraction 5" d="M-2842.929-3414.124a6.959,6.959,0,0,1-3.975-1.237,6.991,6.991,0,0,1-2.532-3.176,12.327,12.327,0,0,0,5.082-1.529,12.251,12.251,0,0,0,5.649-6.64,6.95,6.95,0,0,1,2.775,5.582A7.008,7.008,0,0,1-2842.929-3414.124Z" transform="matrix(0.225, 0.974, -0.974, 0.225, -2435.023, 4140.25)" fill="#070101"/>
    <path id="Path_6" data-name="Path 6" d="M3157.792,4110.647s-9.947-3.458-10.918-12.148" transform="translate(-2893 -3507)" fill="none" stroke="#0b0303" stroke-width="1"/>
    <path id="Path_7" data-name="Path 7" d="M3146.874,4110.647s10.3-3.458,11.3-12.148" transform="translate(-2857.705 -3506.499)" fill="none" stroke="#0b0303" stroke-width="1"/>
    <path id="Path_8" data-name="Path 8" d="M3154.118,4140s20.5-22.059,39.861,0" transform="translate(-2791.118 -3505)" fill="none" stroke="#070000" stroke-width="1"/>
    <path id="Path_9" data-name="Path 9" d="M3288.937,4113h-13.724s13.348-3.3,16-13.912" transform="translate(-2883.213 -3506.852)" fill="none" stroke="#080000" stroke-width="1"/>
    <path id="Path_10" data-name="Path 10" d="M3277.489,4113h13.724s-13.348-3.3-16-13.912" transform="translate(-2918.555 -3506.852)" fill="none" stroke="#080000" stroke-width="1"/>
    <rect id="Rectangle_44" data-name="Rectangle 44" width="3.821" height="41.572" rx="1.91" transform="matrix(0, 1, -1, 0, 505.286, 624.362)" fill="#070101"/>
    <rect id="Rectangle_45" data-name="Rectangle 45" width="2.991" height="8.973" rx="1.496" transform="matrix(0.656, 0.755, -0.755, 0.656, 567.214, 584.243)" fill="#070101"/>
    <rect id="Rectangle_46" data-name="Rectangle 46" width="2.991" height="8.973" rx="1.496" transform="translate(617.558 588.729) rotate(120)" fill="#070101"/>
    <path id="Subtraction_7" data-name="Subtraction 7" d="M-2864.338-3434.47h0A7.007,7.007,0,0,1-2866-3439a7.008,7.008,0,0,1,7-7,7.008,7.008,0,0,1,7,7,7,7,0,0,1-1.662,4.529A23.481,23.481,0,0,0-2859-3435a23.42,23.42,0,0,0-5.337.53Z" transform="translate(2218.261 4808.364) rotate(20)" fill="#070101"/>
    <path id="Subtraction_8" data-name="Subtraction 8" d="M-2864.338-3434.47h0A7.007,7.007,0,0,1-2866-3439a7.008,7.008,0,0,1,7-7,7.008,7.008,0,0,1,7,7,7,7,0,0,1-1.662,4.529A23.481,23.481,0,0,0-2859-3435a23.42,23.42,0,0,0-5.337.53Z" transform="translate(4717.35 2507.528) rotate(-25)" fill="#070101"/>
    <rect id="Rectangle_48" data-name="Rectangle 48" width="2.991" height="8.973" rx="1.496" transform="matrix(0.656, 0.755, -0.755, 0.656, 667.714, 585.616)" fill="#070101"/>
    <rect id="Rectangle_49" data-name="Rectangle 49" width="2.991" height="8.973" rx="1.496" transform="translate(718.058 590.103) rotate(120)" fill="#070101"/>
  </g>
</svg>
