<svg xmlns="http://www.w3.org/2000/svg" xmlns:xlink="http://www.w3.org/1999/xlink" width="607.007" height="679.053" viewBox="0 0 607.007 679.053">
  <defs>
    <filter id="Union_3" x="112.509" y="0" width="494.498" height="475.858" filterUnits="userSpaceOnUse">
      <feOffset dy="3" input="SourceAlpha"/>
      <feGaussianBlur stdDeviation="3" result="blur"/>
      <feFlood flood-opacity="0.161"/>
      <feComposite operator="in" in2="blur"/>
    </filter>
    <filter id="Union_3-2" x="112.509" y="0" width="494.498" height="475.858" filterUnits="userSpaceOnUse">
      <feOffset dx="3" dy="3" input="SourceAlpha"/>
      <feGaussianBlur stdDeviation="2.5" result="blur-2"/>
      <feFlood flood-opacity="0.161" result="color"/>
      <feComposite operator="out" in="SourceGraphic" in2="blur-2"/>
      <feComposite operator="in" in="color"/>
      <feComposite operator="in" in2="SourceGraphic"/>
    </filter>
  </defs>
  <g id="end" transform="translate(-25 -387.947)">
    <g data-type="innerShadowGroup">
      <g transform="matrix(1, 0, 0, 1, 25, 387.95)" filter="url(#Union_3)">
        <g id="Union_3-3" data-name="Union 3" transform="translate(2987.51 2215)" fill="#fff">
          <path d="M -2786.10498046875 -1752.248657226562 L -2769.481689453125 -1796.629638671875 L -2769.228759765625 -1797.305053710938 L -2769.949951171875 -1797.305053710938 L -2787.999267578125 -1797.305053710938 C -2793.2578125 -1797.305053710938 -2798.51318359375 -1797.834838867188 -2803.618896484375 -1798.879516601562 C -2808.5947265625 -1799.897705078125 -2813.489013671875 -1801.4169921875 -2818.165771484375 -1803.395141601562 C -2822.758056640625 -1805.33740234375 -2827.18701171875 -1807.741455078125 -2831.330322265625 -1810.54052734375 C -2835.43408203125 -1813.31298828125 -2839.293212890625 -1816.4970703125 -2842.800537109375 -1820.004272460938 C -2846.3076171875 -1823.511474609375 -2849.49169921875 -1827.37060546875 -2852.26416015625 -1831.474487304688 C -2855.063232421875 -1835.617553710938 -2857.46728515625 -1840.046630859375 -2859.40966796875 -1844.638793945312 C -2861.3876953125 -1849.315673828125 -2862.906982421875 -1854.2099609375 -2863.92529296875 -1859.185668945312 C -2864.969970703125 -1864.29150390625 -2865.499755859375 -1869.546630859375 -2865.499755859375 -1874.805297851562 L -2865.499755859375 -2130.999267578125 C -2865.499755859375 -2136.2578125 -2864.969970703125 -2141.51318359375 -2863.92529296875 -2146.618896484375 C -2862.906982421875 -2151.5947265625 -2861.3876953125 -2156.489013671875 -2859.40966796875 -2161.165771484375 C -2857.46728515625 -2165.758056640625 -2855.063232421875 -2170.18701171875 -2852.26416015625 -2174.330322265625 C -2849.49169921875 -2178.43408203125 -2846.3076171875 -2182.293212890625 -2842.800537109375 -2185.800537109375 C -2839.293212890625 -2189.3076171875 -2835.43408203125 -2192.49169921875 -2831.330322265625 -2195.26416015625 C -2827.18701171875 -2198.063232421875 -2822.758056640625 -2200.46728515625 -2818.165771484375 -2202.40966796875 C -2813.489013671875 -2204.3876953125 -2808.5947265625 -2205.906982421875 -2803.618896484375 -2206.92529296875 C -2798.51318359375 -2207.969970703125 -2793.2578125 -2208.499755859375 -2787.999267578125 -2208.499755859375 L -2467.501220703125 -2208.499755859375 C -2462.24267578125 -2208.499755859375 -2456.987548828125 -2207.969970703125 -2451.8818359375 -2206.92529296875 C -2446.906005859375 -2205.906982421875 -2442.01171875 -2204.3876953125 -2437.3349609375 -2202.40966796875 C -2432.742919921875 -2200.46728515625 -2428.313720703125 -2198.063232421875 -2424.170654296875 -2195.26416015625 C -2420.06689453125 -2192.49169921875 -2416.207763671875 -2189.3076171875 -2412.70068359375 -2185.800537109375 C -2409.193603515625 -2182.293212890625 -2406.009521484375 -2178.43408203125 -2403.237060546875 -2174.330322265625 C -2400.438232421875 -2170.18701171875 -2398.0341796875 -2165.758056640625 -2396.091796875 -2161.165771484375 C -2394.11376953125 -2156.489013671875 -2392.594482421875 -2151.5947265625 -2391.576416015625 -2146.618896484375 C -2390.53173828125 -2141.51318359375 -2390.001953125 -2136.2578125 -2390.001953125 -2130.999267578125 L -2390.001953125 -1874.805297851562 C -2390.001953125 -1869.546630859375 -2390.53173828125 -1864.29150390625 -2391.576416015625 -1859.185668945312 C -2392.594482421875 -1854.2099609375 -2394.11376953125 -1849.315673828125 -2396.091796875 -1844.638793945312 C -2398.0341796875 -1840.046630859375 -2400.438232421875 -1835.617553710938 -2403.237060546875 -1831.474487304688 C -2406.009521484375 -1827.37060546875 -2409.193603515625 -1823.511474609375 -2412.70068359375 -1820.004272460938 C -2416.207763671875 -1816.4970703125 -2420.06689453125 -1813.31298828125 -2424.170654296875 -1810.54052734375 C -2428.313720703125 -1807.741455078125 -2432.742919921875 -1805.33740234375 -2437.3349609375 -1803.395141601562 C -2442.01171875 -1801.4169921875 -2446.906005859375 -1799.897705078125 -2451.8818359375 -1798.879516601562 C -2456.987548828125 -1797.834838867188 -2462.24267578125 -1797.305053710938 -2467.501220703125 -1797.305053710938 L -2705.842041015625 -1797.305053710938 L -2705.972900390625 -1797.305053710938 L -2706.087158203125 -1797.240844726562 L -2786.10498046875 -1752.248657226562 Z" stroke="none"/>
          <path d="M -2785.15625 -1753.355712890625 L -2706.10400390625 -1797.805053710938 L -2467.501220703125 -1797.805053710938 C -2457.105712890625 -1797.805053710938 -2447.02197265625 -1799.840698242188 -2437.52978515625 -1803.855712890625 C -2432.96728515625 -1805.785400390625 -2428.56689453125 -1808.173828125 -2424.45068359375 -1810.954833984375 C -2420.373291015625 -1813.709594726562 -2416.538818359375 -1816.873168945312 -2413.05419921875 -1820.357788085938 C -2409.569580078125 -1823.842529296875 -2406.406005859375 -1827.6767578125 -2403.6513671875 -1831.754272460938 C -2400.87060546875 -1835.870727539062 -2398.482177734375 -1840.271118164062 -2396.552490234375 -1844.833618164062 C -2392.53759765625 -1854.325805664062 -2390.501953125 -1864.409790039062 -2390.501953125 -1874.805297851562 L -2390.501953125 -2130.999267578125 C -2390.501953125 -2141.394775390625 -2392.53759765625 -2151.478759765625 -2396.552490234375 -2160.97119140625 C -2398.482177734375 -2165.533447265625 -2400.87060546875 -2169.93408203125 -2403.6513671875 -2174.05029296875 C -2406.406005859375 -2178.1279296875 -2409.569580078125 -2181.962158203125 -2413.05419921875 -2185.44677734375 C -2416.538818359375 -2188.931640625 -2420.373291015625 -2192.09521484375 -2424.45068359375 -2194.849853515625 C -2428.56689453125 -2197.630859375 -2432.96728515625 -2200.019287109375 -2437.52978515625 -2201.948974609375 C -2447.02197265625 -2205.964111328125 -2457.105712890625 -2207.999755859375 -2467.501220703125 -2207.999755859375 L -2787.999267578125 -2207.999755859375 C -2798.394775390625 -2207.999755859375 -2808.478759765625 -2205.964111328125 -2817.97119140625 -2201.948974609375 C -2822.533447265625 -2200.019287109375 -2826.93408203125 -2197.630859375 -2831.05029296875 -2194.849853515625 C -2835.1279296875 -2192.09521484375 -2838.962158203125 -2188.931640625 -2842.44677734375 -2185.44677734375 C -2845.931640625 -2181.962158203125 -2849.09521484375 -2178.1279296875 -2851.849853515625 -2174.05029296875 C -2854.630859375 -2169.93408203125 -2857.019287109375 -2165.533447265625 -2858.948974609375 -2160.97119140625 C -2862.964111328125 -2151.478759765625 -2864.999755859375 -2141.394775390625 -2864.999755859375 -2130.999267578125 L -2864.999755859375 -1874.805297851562 C -2864.999755859375 -1864.409912109375 -2862.964111328125 -1854.325927734375 -2858.948974609375 -1844.833618164062 C -2857.019287109375 -1840.271240234375 -2854.630859375 -1835.870727539062 -2851.849853515625 -1831.754272460938 C -2849.09521484375 -1827.676879882812 -2845.931640625 -1823.842529296875 -2842.44677734375 -1820.35791015625 C -2838.962158203125 -1816.873168945312 -2835.1279296875 -1813.709594726562 -2831.05029296875 -1810.954833984375 C -2826.93408203125 -1808.173828125 -2822.533447265625 -1805.785400390625 -2817.97119140625 -1803.855712890625 C -2808.478759765625 -1799.840698242188 -2798.394775390625 -1797.805053710938 -2787.999267578125 -1797.805053710938 L -2768.507568359375 -1797.805053710938 L -2769.013427734375 -1796.454223632812 L -2785.15625 -1753.355712890625 M -2787.053466796875 -1751.141723632812 L -2769.949951171875 -1796.805053710938 L -2787.999267578125 -1796.805053710938 C -2831.077880859375 -1796.805053710938 -2865.999755859375 -1831.726806640625 -2865.999755859375 -1874.805297851562 L -2865.999755859375 -2130.999267578125 C -2865.999755859375 -2174.077880859375 -2831.077880859375 -2208.999755859375 -2787.999267578125 -2208.999755859375 L -2467.501220703125 -2208.999755859375 C -2424.4228515625 -2208.999755859375 -2389.501953125 -2174.077880859375 -2389.501953125 -2130.999267578125 L -2389.501953125 -1874.805297851562 C -2389.501953125 -1831.726806640625 -2424.4228515625 -1796.805053710938 -2467.501220703125 -1796.805053710938 L -2705.842041015625 -1796.805053710938 L -2787.053466796875 -1751.141723632812 Z" stroke="none" fill="#707070"/>
        </g>
      </g>
      <g id="Union_3-4" data-name="Union 3" transform="translate(3012.509 2602.946)" fill="#fff">
        <path d="M -2786.10498046875 -1752.248657226562 L -2769.481689453125 -1796.629638671875 L -2769.228759765625 -1797.305053710938 L -2769.949951171875 -1797.305053710938 L -2787.999267578125 -1797.305053710938 C -2793.2578125 -1797.305053710938 -2798.51318359375 -1797.834838867188 -2803.618896484375 -1798.879516601562 C -2808.5947265625 -1799.897705078125 -2813.489013671875 -1801.4169921875 -2818.165771484375 -1803.395141601562 C -2822.758056640625 -1805.33740234375 -2827.18701171875 -1807.741455078125 -2831.330322265625 -1810.54052734375 C -2835.43408203125 -1813.31298828125 -2839.293212890625 -1816.4970703125 -2842.800537109375 -1820.004272460938 C -2846.3076171875 -1823.511474609375 -2849.49169921875 -1827.37060546875 -2852.26416015625 -1831.474487304688 C -2855.063232421875 -1835.617553710938 -2857.46728515625 -1840.046630859375 -2859.40966796875 -1844.638793945312 C -2861.3876953125 -1849.315673828125 -2862.906982421875 -1854.2099609375 -2863.92529296875 -1859.185668945312 C -2864.969970703125 -1864.29150390625 -2865.499755859375 -1869.546630859375 -2865.499755859375 -1874.805297851562 L -2865.499755859375 -2130.999267578125 C -2865.499755859375 -2136.2578125 -2864.969970703125 -2141.51318359375 -2863.92529296875 -2146.618896484375 C -2862.906982421875 -2151.5947265625 -2861.3876953125 -2156.489013671875 -2859.40966796875 -2161.165771484375 C -2857.46728515625 -2165.758056640625 -2855.063232421875 -2170.18701171875 -2852.26416015625 -2174.330322265625 C -2849.49169921875 -2178.43408203125 -2846.3076171875 -2182.293212890625 -2842.800537109375 -2185.800537109375 C -2839.293212890625 -2189.3076171875 -2835.43408203125 -2192.49169921875 -2831.330322265625 -2195.26416015625 C -2827.18701171875 -2198.063232421875 -2822.758056640625 -2200.46728515625 -2818.165771484375 -2202.40966796875 C -2813.489013671875 -2204.3876953125 -2808.5947265625 -2205.906982421875 -2803.618896484375 -2206.92529296875 C -2798.51318359375 -2207.969970703125 -2793.2578125 -2208.499755859375 -2787.999267578125 -2208.499755859375 L -2467.501220703125 -2208.499755859375 C -2462.24267578125 -2208.499755859375 -2456.987548828125 -2207.969970703125 -2451.8818359375 -2206.92529296875 C -2446.906005859375 -2205.906982421875 -2442.01171875 -2204.3876953125 -2437.3349609375 -2202.40966796875 C -2432.742919921875 -2200.46728515625 -2428.313720703125 -2198.063232421875 -2424.170654296875 -2195.26416015625 C -2420.06689453125 -2192.49169921875 -2416.207763671875 -2189.3076171875 -2412.70068359375 -2185.800537109375 C -2409.193603515625 -2182.293212890625 -2406.009521484375 -2178.43408203125 -2403.237060546875 -2174.330322265625 C -2400.438232421875 -2170.18701171875 -2398.0341796875 -2165.758056640625 -2396.091796875 -2161.165771484375 C -2394.11376953125 -2156.489013671875 -2392.594482421875 -2151.5947265625 -2391.576416015625 -2146.618896484375 C -2390.53173828125 -2141.51318359375 -2390.001953125 -2136.2578125 -2390.001953125 -2130.999267578125 L -2390.001953125 -1874.805297851562 C -2390.001953125 -1869.546630859375 -2390.53173828125 -1864.29150390625 -2391.576416015625 -1859.185668945312 C -2392.594482421875 -1854.2099609375 -2394.11376953125 -1849.315673828125 -2396.091796875 -1844.638793945312 C -2398.0341796875 -1840.046630859375 -2400.438232421875 -1835.617553710938 -2403.237060546875 -1831.474487304688 C -2406.009521484375 -1827.37060546875 -2409.193603515625 -1823.511474609375 -2412.70068359375 -1820.004272460938 C -2416.207763671875 -1816.4970703125 -2420.06689453125 -1813.31298828125 -2424.170654296875 -1810.54052734375 C -2428.313720703125 -1807.741455078125 -2432.742919921875 -1805.33740234375 -2437.3349609375 -1803.395141601562 C -2442.01171875 -1801.4169921875 -2446.906005859375 -1799.897705078125 -2451.8818359375 -1798.879516601562 C -2456.987548828125 -1797.834838867188 -2462.24267578125 -1797.305053710938 -2467.501220703125 -1797.305053710938 L -2705.842041015625 -1797.305053710938 L -2705.972900390625 -1797.305053710938 L -2706.087158203125 -1797.240844726562 L -2786.10498046875 -1752.248657226562 Z" stroke="none"/>
        <path d="M -2785.15625 -1753.355712890625 L -2706.10400390625 -1797.805053710938 L -2467.501220703125 -1797.805053710938 C -2457.105712890625 -1797.805053710938 -2447.02197265625 -1799.840698242188 -2437.52978515625 -1803.855712890625 C -2432.96728515625 -1805.785400390625 -2428.56689453125 -1808.173828125 -2424.45068359375 -1810.954833984375 C -2420.373291015625 -1813.709594726562 -2416.538818359375 -1816.873168945312 -2413.05419921875 -1820.357788085938 C -2409.569580078125 -1823.842529296875 -2406.406005859375 -1827.6767578125 -2403.6513671875 -1831.754272460938 C -2400.87060546875 -1835.870727539062 -2398.482177734375 -1840.271118164062 -2396.552490234375 -1844.833618164062 C -2392.53759765625 -1854.325805664062 -2390.501953125 -1864.409790039062 -2390.501953125 -1874.805297851562 L -2390.501953125 -2130.999267578125 C -2390.501953125 -2141.394775390625 -2392.53759765625 -2151.478759765625 -2396.552490234375 -2160.97119140625 C -2398.482177734375 -2165.533447265625 -2400.87060546875 -2169.93408203125 -2403.6513671875 -2174.05029296875 C -2406.406005859375 -2178.1279296875 -2409.569580078125 -2181.962158203125 -2413.05419921875 -2185.44677734375 C -2416.538818359375 -2188.931640625 -2420.373291015625 -2192.09521484375 -2424.45068359375 -2194.849853515625 C -2428.56689453125 -2197.630859375 -2432.96728515625 -2200.019287109375 -2437.52978515625 -2201.948974609375 C -2447.02197265625 -2205.964111328125 -2457.105712890625 -2207.999755859375 -2467.501220703125 -2207.999755859375 L -2787.999267578125 -2207.999755859375 C -2798.394775390625 -2207.999755859375 -2808.478759765625 -2205.964111328125 -2817.97119140625 -2201.948974609375 C -2822.533447265625 -2200.019287109375 -2826.93408203125 -2197.630859375 -2831.05029296875 -2194.849853515625 C -2835.1279296875 -2192.09521484375 -2838.962158203125 -2188.931640625 -2842.44677734375 -2185.44677734375 C -2845.931640625 -2181.962158203125 -2849.09521484375 -2178.1279296875 -2851.849853515625 -2174.05029296875 C -2854.630859375 -2169.93408203125 -2857.019287109375 -2165.533447265625 -2858.948974609375 -2160.97119140625 C -2862.964111328125 -2151.478759765625 -2864.999755859375 -2141.394775390625 -2864.999755859375 -2130.999267578125 L -2864.999755859375 -1874.805297851562 C -2864.999755859375 -1864.409912109375 -2862.964111328125 -1854.325927734375 -2858.948974609375 -1844.833618164062 C -2857.019287109375 -1840.271240234375 -2854.630859375 -1835.870727539062 -2851.849853515625 -1831.754272460938 C -2849.09521484375 -1827.676879882812 -2845.931640625 -1823.842529296875 -2842.44677734375 -1820.35791015625 C -2838.962158203125 -1816.873168945312 -2835.1279296875 -1813.709594726562 -2831.05029296875 -1810.954833984375 C -2826.93408203125 -1808.173828125 -2822.533447265625 -1805.785400390625 -2817.97119140625 -1803.855712890625 C -2808.478759765625 -1799.840698242188 -2798.394775390625 -1797.805053710938 -2787.999267578125 -1797.805053710938 L -2768.507568359375 -1797.805053710938 L -2769.013427734375 -1796.454223632812 L -2785.15625 -1753.355712890625 M -2787.053466796875 -1751.141723632812 L -2769.949951171875 -1796.805053710938 L -2787.999267578125 -1796.805053710938 C -2831.077880859375 -1796.805053710938 -2865.999755859375 -1831.726806640625 -2865.999755859375 -1874.805297851562 L -2865.999755859375 -2130.999267578125 C -2865.999755859375 -2174.077880859375 -2831.077880859375 -2208.999755859375 -2787.999267578125 -2208.999755859375 L -2467.501220703125 -2208.999755859375 C -2424.4228515625 -2208.999755859375 -2389.501953125 -2174.077880859375 -2389.501953125 -2130.999267578125 L -2389.501953125 -1874.805297851562 C -2389.501953125 -1831.726806640625 -2424.4228515625 -1796.805053710938 -2467.501220703125 -1796.805053710938 L -2705.842041015625 -1796.805053710938 L -2787.053466796875 -1751.141723632812 Z" stroke="none"/>
      </g>
      <g transform="matrix(1, 0, 0, 1, 25, 387.95)" filter="url(#Union_3-2)">
        <g id="Union_3-5" data-name="Union 3" transform="translate(2987.51 2215)" fill="#fff">
          <path d="M -2786.10498046875 -1752.248657226562 L -2769.481689453125 -1796.629638671875 L -2769.228759765625 -1797.305053710938 L -2769.949951171875 -1797.305053710938 L -2787.999267578125 -1797.305053710938 C -2793.2578125 -1797.305053710938 -2798.51318359375 -1797.834838867188 -2803.618896484375 -1798.879516601562 C -2808.5947265625 -1799.897705078125 -2813.489013671875 -1801.4169921875 -2818.165771484375 -1803.395141601562 C -2822.758056640625 -1805.33740234375 -2827.18701171875 -1807.741455078125 -2831.330322265625 -1810.54052734375 C -2835.43408203125 -1813.31298828125 -2839.293212890625 -1816.4970703125 -2842.800537109375 -1820.004272460938 C -2846.3076171875 -1823.511474609375 -2849.49169921875 -1827.37060546875 -2852.26416015625 -1831.474487304688 C -2855.063232421875 -1835.617553710938 -2857.46728515625 -1840.046630859375 -2859.40966796875 -1844.638793945312 C -2861.3876953125 -1849.315673828125 -2862.906982421875 -1854.2099609375 -2863.92529296875 -1859.185668945312 C -2864.969970703125 -1864.29150390625 -2865.499755859375 -1869.546630859375 -2865.499755859375 -1874.805297851562 L -2865.499755859375 -2130.999267578125 C -2865.499755859375 -2136.2578125 -2864.969970703125 -2141.51318359375 -2863.92529296875 -2146.618896484375 C -2862.906982421875 -2151.5947265625 -2861.3876953125 -2156.489013671875 -2859.40966796875 -2161.165771484375 C -2857.46728515625 -2165.758056640625 -2855.063232421875 -2170.18701171875 -2852.26416015625 -2174.330322265625 C -2849.49169921875 -2178.43408203125 -2846.3076171875 -2182.293212890625 -2842.800537109375 -2185.800537109375 C -2839.293212890625 -2189.3076171875 -2835.43408203125 -2192.49169921875 -2831.330322265625 -2195.26416015625 C -2827.18701171875 -2198.063232421875 -2822.758056640625 -2200.46728515625 -2818.165771484375 -2202.40966796875 C -2813.489013671875 -2204.3876953125 -2808.5947265625 -2205.906982421875 -2803.618896484375 -2206.92529296875 C -2798.51318359375 -2207.969970703125 -2793.2578125 -2208.499755859375 -2787.999267578125 -2208.499755859375 L -2467.501220703125 -2208.499755859375 C -2462.24267578125 -2208.499755859375 -2456.987548828125 -2207.969970703125 -2451.8818359375 -2206.92529296875 C -2446.906005859375 -2205.906982421875 -2442.01171875 -2204.3876953125 -2437.3349609375 -2202.40966796875 C -2432.742919921875 -2200.46728515625 -2428.313720703125 -2198.063232421875 -2424.170654296875 -2195.26416015625 C -2420.06689453125 -2192.49169921875 -2416.207763671875 -2189.3076171875 -2412.70068359375 -2185.800537109375 C -2409.193603515625 -2182.293212890625 -2406.009521484375 -2178.43408203125 -2403.237060546875 -2174.330322265625 C -2400.438232421875 -2170.18701171875 -2398.0341796875 -2165.758056640625 -2396.091796875 -2161.165771484375 C -2394.11376953125 -2156.489013671875 -2392.594482421875 -2151.5947265625 -2391.576416015625 -2146.618896484375 C -2390.53173828125 -2141.51318359375 -2390.001953125 -2136.2578125 -2390.001953125 -2130.999267578125 L -2390.001953125 -1874.805297851562 C -2390.001953125 -1869.546630859375 -2390.53173828125 -1864.29150390625 -2391.576416015625 -1859.185668945312 C -2392.594482421875 -1854.2099609375 -2394.11376953125 -1849.315673828125 -2396.091796875 -1844.638793945312 C -2398.0341796875 -1840.046630859375 -2400.438232421875 -1835.617553710938 -2403.237060546875 -1831.474487304688 C -2406.009521484375 -1827.37060546875 -2409.193603515625 -1823.511474609375 -2412.70068359375 -1820.004272460938 C -2416.207763671875 -1816.4970703125 -2420.06689453125 -1813.31298828125 -2424.170654296875 -1810.54052734375 C -2428.313720703125 -1807.741455078125 -2432.742919921875 -1805.33740234375 -2437.3349609375 -1803.395141601562 C -2442.01171875 -1801.4169921875 -2446.906005859375 -1799.897705078125 -2451.8818359375 -1798.879516601562 C -2456.987548828125 -1797.834838867188 -2462.24267578125 -1797.305053710938 -2467.501220703125 -1797.305053710938 L -2705.842041015625 -1797.305053710938 L -2705.972900390625 -1797.305053710938 L -2706.087158203125 -1797.240844726562 L -2786.10498046875 -1752.248657226562 Z" stroke="none"/>
          <path d="M -2785.15625 -1753.355712890625 L -2706.10400390625 -1797.805053710938 L -2467.501220703125 -1797.805053710938 C -2457.105712890625 -1797.805053710938 -2447.02197265625 -1799.840698242188 -2437.52978515625 -1803.855712890625 C -2432.96728515625 -1805.785400390625 -2428.56689453125 -1808.173828125 -2424.45068359375 -1810.954833984375 C -2420.373291015625 -1813.709594726562 -2416.538818359375 -1816.873168945312 -2413.05419921875 -1820.357788085938 C -2409.569580078125 -1823.842529296875 -2406.406005859375 -1827.6767578125 -2403.6513671875 -1831.754272460938 C -2400.87060546875 -1835.870727539062 -2398.482177734375 -1840.271118164062 -2396.552490234375 -1844.833618164062 C -2392.53759765625 -1854.325805664062 -2390.501953125 -1864.409790039062 -2390.501953125 -1874.805297851562 L -2390.501953125 -2130.999267578125 C -2390.501953125 -2141.394775390625 -2392.53759765625 -2151.478759765625 -2396.552490234375 -2160.97119140625 C -2398.482177734375 -2165.533447265625 -2400.87060546875 -2169.93408203125 -2403.6513671875 -2174.05029296875 C -2406.406005859375 -2178.1279296875 -2409.569580078125 -2181.962158203125 -2413.05419921875 -2185.44677734375 C -2416.538818359375 -2188.931640625 -2420.373291015625 -2192.09521484375 -2424.45068359375 -2194.849853515625 C -2428.56689453125 -2197.630859375 -2432.96728515625 -2200.019287109375 -2437.52978515625 -2201.948974609375 C -2447.02197265625 -2205.964111328125 -2457.105712890625 -2207.999755859375 -2467.501220703125 -2207.999755859375 L -2787.999267578125 -2207.999755859375 C -2798.394775390625 -2207.999755859375 -2808.478759765625 -2205.964111328125 -2817.97119140625 -2201.948974609375 C -2822.533447265625 -2200.019287109375 -2826.93408203125 -2197.630859375 -2831.05029296875 -2194.849853515625 C -2835.1279296875 -2192.09521484375 -2838.962158203125 -2188.931640625 -2842.44677734375 -2185.44677734375 C -2845.931640625 -2181.962158203125 -2849.09521484375 -2178.1279296875 -2851.849853515625 -2174.05029296875 C -2854.630859375 -2169.93408203125 -2857.019287109375 -2165.533447265625 -2858.948974609375 -2160.97119140625 C -2862.964111328125 -2151.478759765625 -2864.999755859375 -2141.394775390625 -2864.999755859375 -2130.999267578125 L -2864.999755859375 -1874.805297851562 C -2864.999755859375 -1864.409912109375 -2862.964111328125 -1854.325927734375 -2858.948974609375 -1844.833618164062 C -2857.019287109375 -1840.271240234375 -2854.630859375 -1835.870727539062 -2851.849853515625 -1831.754272460938 C -2849.09521484375 -1827.676879882812 -2845.931640625 -1823.842529296875 -2842.44677734375 -1820.35791015625 C -2838.962158203125 -1816.873168945312 -2835.1279296875 -1813.709594726562 -2831.05029296875 -1810.954833984375 C -2826.93408203125 -1808.173828125 -2822.533447265625 -1805.785400390625 -2817.97119140625 -1803.855712890625 C -2808.478759765625 -1799.840698242188 -2798.394775390625 -1797.805053710938 -2787.999267578125 -1797.805053710938 L -2768.507568359375 -1797.805053710938 L -2769.013427734375 -1796.454223632812 L -2785.15625 -1753.355712890625 M -2787.053466796875 -1751.141723632812 L -2769.949951171875 -1796.805053710938 L -2787.999267578125 -1796.805053710938 C -2831.077880859375 -1796.805053710938 -2865.999755859375 -1831.726806640625 -2865.999755859375 -1874.805297851562 L -2865.999755859375 -2130.999267578125 C -2865.999755859375 -2174.077880859375 -2831.077880859375 -2208.999755859375 -2787.999267578125 -2208.999755859375 L -2467.501220703125 -2208.999755859375 C -2424.4228515625 -2208.999755859375 -2389.501953125 -2174.077880859375 -2389.501953125 -2130.999267578125 L -2389.501953125 -1874.805297851562 C -2389.501953125 -1831.726806640625 -2424.4228515625 -1796.805053710938 -2467.501220703125 -1796.805053710938 L -2705.842041015625 -1796.805053710938 L -2787.053466796875 -1751.141723632812 Z" stroke="none"/>
        </g>
      </g>
      <g id="Union_3-6" data-name="Union 3" transform="translate(3012.509 2602.946)" fill="none">
        <path d="M -2786.10498046875 -1752.248657226562 L -2769.481689453125 -1796.629638671875 L -2769.228759765625 -1797.305053710938 L -2769.949951171875 -1797.305053710938 L -2787.999267578125 -1797.305053710938 C -2793.2578125 -1797.305053710938 -2798.51318359375 -1797.834838867188 -2803.618896484375 -1798.879516601562 C -2808.5947265625 -1799.897705078125 -2813.489013671875 -1801.4169921875 -2818.165771484375 -1803.395141601562 C -2822.758056640625 -1805.33740234375 -2827.18701171875 -1807.741455078125 -2831.330322265625 -1810.54052734375 C -2835.43408203125 -1813.31298828125 -2839.293212890625 -1816.4970703125 -2842.800537109375 -1820.004272460938 C -2846.3076171875 -1823.511474609375 -2849.49169921875 -1827.37060546875 -2852.26416015625 -1831.474487304688 C -2855.063232421875 -1835.617553710938 -2857.46728515625 -1840.046630859375 -2859.40966796875 -1844.638793945312 C -2861.3876953125 -1849.315673828125 -2862.906982421875 -1854.2099609375 -2863.92529296875 -1859.185668945312 C -2864.969970703125 -1864.29150390625 -2865.499755859375 -1869.546630859375 -2865.499755859375 -1874.805297851562 L -2865.499755859375 -2130.999267578125 C -2865.499755859375 -2136.2578125 -2864.969970703125 -2141.51318359375 -2863.92529296875 -2146.618896484375 C -2862.906982421875 -2151.5947265625 -2861.3876953125 -2156.489013671875 -2859.40966796875 -2161.165771484375 C -2857.46728515625 -2165.758056640625 -2855.063232421875 -2170.18701171875 -2852.26416015625 -2174.330322265625 C -2849.49169921875 -2178.43408203125 -2846.3076171875 -2182.293212890625 -2842.800537109375 -2185.800537109375 C -2839.293212890625 -2189.3076171875 -2835.43408203125 -2192.49169921875 -2831.330322265625 -2195.26416015625 C -2827.18701171875 -2198.063232421875 -2822.758056640625 -2200.46728515625 -2818.165771484375 -2202.40966796875 C -2813.489013671875 -2204.3876953125 -2808.5947265625 -2205.906982421875 -2803.618896484375 -2206.92529296875 C -2798.51318359375 -2207.969970703125 -2793.2578125 -2208.499755859375 -2787.999267578125 -2208.499755859375 L -2467.501220703125 -2208.499755859375 C -2462.24267578125 -2208.499755859375 -2456.987548828125 -2207.969970703125 -2451.8818359375 -2206.92529296875 C -2446.906005859375 -2205.906982421875 -2442.01171875 -2204.3876953125 -2437.3349609375 -2202.40966796875 C -2432.742919921875 -2200.46728515625 -2428.313720703125 -2198.063232421875 -2424.170654296875 -2195.26416015625 C -2420.06689453125 -2192.49169921875 -2416.207763671875 -2189.3076171875 -2412.70068359375 -2185.800537109375 C -2409.193603515625 -2182.293212890625 -2406.009521484375 -2178.43408203125 -2403.237060546875 -2174.330322265625 C -2400.438232421875 -2170.18701171875 -2398.0341796875 -2165.758056640625 -2396.091796875 -2161.165771484375 C -2394.11376953125 -2156.489013671875 -2392.594482421875 -2151.5947265625 -2391.576416015625 -2146.618896484375 C -2390.53173828125 -2141.51318359375 -2390.001953125 -2136.2578125 -2390.001953125 -2130.999267578125 L -2390.001953125 -1874.805297851562 C -2390.001953125 -1869.546630859375 -2390.53173828125 -1864.29150390625 -2391.576416015625 -1859.185668945312 C -2392.594482421875 -1854.2099609375 -2394.11376953125 -1849.315673828125 -2396.091796875 -1844.638793945312 C -2398.0341796875 -1840.046630859375 -2400.438232421875 -1835.617553710938 -2403.237060546875 -1831.474487304688 C -2406.009521484375 -1827.37060546875 -2409.193603515625 -1823.511474609375 -2412.70068359375 -1820.004272460938 C -2416.207763671875 -1816.4970703125 -2420.06689453125 -1813.31298828125 -2424.170654296875 -1810.54052734375 C -2428.313720703125 -1807.741455078125 -2432.742919921875 -1805.33740234375 -2437.3349609375 -1803.395141601562 C -2442.01171875 -1801.4169921875 -2446.906005859375 -1799.897705078125 -2451.8818359375 -1798.879516601562 C -2456.987548828125 -1797.834838867188 -2462.24267578125 -1797.305053710938 -2467.501220703125 -1797.305053710938 L -2705.842041015625 -1797.305053710938 L -2705.972900390625 -1797.305053710938 L -2706.087158203125 -1797.240844726562 L -2786.10498046875 -1752.248657226562 Z" stroke="none"/>
        <path d="M -2785.15625 -1753.355712890625 L -2706.10400390625 -1797.805053710938 L -2467.501220703125 -1797.805053710938 C -2457.105712890625 -1797.805053710938 -2447.02197265625 -1799.840698242188 -2437.52978515625 -1803.855712890625 C -2432.96728515625 -1805.785400390625 -2428.56689453125 -1808.173828125 -2424.45068359375 -1810.954833984375 C -2420.373291015625 -1813.709594726562 -2416.538818359375 -1816.873168945312 -2413.05419921875 -1820.357788085938 C -2409.569580078125 -1823.842529296875 -2406.406005859375 -1827.6767578125 -2403.6513671875 -1831.754272460938 C -2400.87060546875 -1835.870727539062 -2398.482177734375 -1840.271118164062 -2396.552490234375 -1844.833618164062 C -2392.53759765625 -1854.325805664062 -2390.501953125 -1864.409790039062 -2390.501953125 -1874.805297851562 L -2390.501953125 -2130.999267578125 C -2390.501953125 -2141.394775390625 -2392.53759765625 -2151.478759765625 -2396.552490234375 -2160.97119140625 C -2398.482177734375 -2165.533447265625 -2400.87060546875 -2169.93408203125 -2403.6513671875 -2174.05029296875 C -2406.406005859375 -2178.1279296875 -2409.569580078125 -2181.962158203125 -2413.05419921875 -2185.44677734375 C -2416.538818359375 -2188.931640625 -2420.373291015625 -2192.09521484375 -2424.45068359375 -2194.849853515625 C -2428.56689453125 -2197.630859375 -2432.96728515625 -2200.019287109375 -2437.52978515625 -2201.948974609375 C -2447.02197265625 -2205.964111328125 -2457.105712890625 -2207.999755859375 -2467.501220703125 -2207.999755859375 L -2787.999267578125 -2207.999755859375 C -2798.394775390625 -2207.999755859375 -2808.478759765625 -2205.964111328125 -2817.97119140625 -2201.948974609375 C -2822.533447265625 -2200.019287109375 -2826.93408203125 -2197.630859375 -2831.05029296875 -2194.849853515625 C -2835.1279296875 -2192.09521484375 -2838.962158203125 -2188.931640625 -2842.44677734375 -2185.44677734375 C -2845.931640625 -2181.962158203125 -2849.09521484375 -2178.1279296875 -2851.849853515625 -2174.05029296875 C -2854.630859375 -2169.93408203125 -2857.019287109375 -2165.533447265625 -2858.948974609375 -2160.97119140625 C -2862.964111328125 -2151.478759765625 -2864.999755859375 -2141.394775390625 -2864.999755859375 -2130.999267578125 L -2864.999755859375 -1874.805297851562 C -2864.999755859375 -1864.409912109375 -2862.964111328125 -1854.325927734375 -2858.948974609375 -1844.833618164062 C -2857.019287109375 -1840.271240234375 -2854.630859375 -1835.870727539062 -2851.849853515625 -1831.754272460938 C -2849.09521484375 -1827.676879882812 -2845.931640625 -1823.842529296875 -2842.44677734375 -1820.35791015625 C -2838.962158203125 -1816.873168945312 -2835.1279296875 -1813.709594726562 -2831.05029296875 -1810.954833984375 C -2826.93408203125 -1808.173828125 -2822.533447265625 -1805.785400390625 -2817.97119140625 -1803.855712890625 C -2808.478759765625 -1799.840698242188 -2798.394775390625 -1797.805053710938 -2787.999267578125 -1797.805053710938 L -2768.507568359375 -1797.805053710938 L -2769.013427734375 -1796.454223632812 L -2785.15625 -1753.355712890625 M -2787.053466796875 -1751.141723632812 L -2769.949951171875 -1796.805053710938 L -2787.999267578125 -1796.805053710938 C -2831.077880859375 -1796.805053710938 -2865.999755859375 -1831.726806640625 -2865.999755859375 -1874.805297851562 L -2865.999755859375 -2130.999267578125 C -2865.999755859375 -2174.077880859375 -2831.077880859375 -2208.999755859375 -2787.999267578125 -2208.999755859375 L -2467.501220703125 -2208.999755859375 C -2424.4228515625 -2208.999755859375 -2389.501953125 -2174.077880859375 -2389.501953125 -2130.999267578125 L -2389.501953125 -1874.805297851562 C -2389.501953125 -1831.726806640625 -2424.4228515625 -1796.805053710938 -2467.501220703125 -1796.805053710938 L -2705.842041015625 -1796.805053710938 L -2787.053466796875 -1751.141723632812 Z" stroke="none" fill="#707070"/>
      </g>
    </g>
    <text id="And_there_it_is_Your_very_own_personalised_living_room._Fully_adjusted_to_your_emotions_and_personal_preferences" data-name="And there it is! Your very own personalised living room. 
Fully adjusted to your emotions and personal preferences" transform="translate(187 450)" fill="#0f4470" font-size="40" font-family="GillSans-SemiBold, Gill Sans" font-weight="600"><tspan x="0" y="38">And there it is! Your </tspan><tspan x="0" y="86">very own personalised </tspan><tspan x="0" y="134">living room. </tspan><tspan x="0" y="182">Fully adjusted to your </tspan><tspan x="0" y="230">emotions and </tspan><tspan x="0" y="278">personal preferences</tspan></text>
    <g id="Component_9_8" data-name="Component 9 – 8" transform="translate(25 852)">
      <g id="Union_1" data-name="Union 1" fill="none">
        <path d="M0,215V85H.009C0,84.583,0,84.168,0,83.75,0,37.5,36.266,0,81,0s81,37.5,81,83.75c0,.418,0,.833-.009,1.249H162V215Z" stroke="none"/>
        <path d="M 157 210 L 157 89.99918365478516 L 156.9205932617188 89.99918365478516 L 156.9917144775391 84.92905426025391 C 156.9972229003906 84.53692626953125 157 84.14024353027344 157 83.74996185302734 C 157 73.09621429443359 154.9836273193359 62.76521301269531 151.0068511962891 53.04389953613281 C 149.0967864990234 48.37467956542969 146.7328491210938 43.87155532836914 143.9807434082031 39.65961837768555 C 141.2559661865234 35.48945999145508 138.1272888183594 31.5685863494873 134.6815948486328 28.00589942932129 C 131.2386932373047 24.44611740112305 127.4513092041016 21.21496200561523 123.4246597290039 18.4022102355957 C 119.3638763427734 15.56564903259277 115.0239715576172 13.12989902496338 110.5255661010742 11.1625862121582 C 101.1751556396484 7.073398590087891 91.24150085449219 4.999992370605469 81.00050354003906 4.999992370605469 C 70.75937652587891 4.999992370605469 60.8255615234375 7.073398590087891 51.47506332397461 11.1625862121582 C 46.9765625 13.12989902496338 42.63662338256836 15.56564903259277 38.57578277587891 18.40224266052246 C 34.5490608215332 21.21499252319336 30.76162528991699 24.44614791870117 27.31871795654297 28.00592994689941 C 23.87296867370605 31.56861686706543 20.74421882629395 35.4894905090332 18.01940536499023 39.65964889526367 C 15.2672815322876 43.87158584594727 12.90331268310547 48.37471008300781 10.99324989318848 53.04393005371094 C 7.016406059265137 62.76524353027344 5 73.09624481201172 5 83.74996185302734 C 5 84.14024353027344 5.002781391143799 84.53692626953125 5.008281230926514 84.92905426025391 L 5.079406261444092 89.99918365478516 L 5 89.99918365478516 L 5 210 L 157 210 M 162 215 L 0 215 L 0 84.99918365478516 L 0.008781249634921551 84.99918365478516 C 0.002937499899417162 84.58258819580078 0 84.16767883300781 0 83.74996185302734 C 0 37.49636840820312 36.265625 -7.62939453125e-06 81.00050354003906 -7.62939453125e-06 C 125.7348785400391 -7.62939453125e-06 162 37.49636840820312 162 83.74996185302734 C 162 84.16767883300781 161.9970550537109 84.58258819580078 161.9912261962891 84.99918365478516 L 162 84.99918365478516 L 162 215 Z" stroke="none" fill="#022c42"/>
      </g>
      <rect id="Rectangle_9" data-name="Rectangle 9" width="15" height="29" rx="5" transform="translate(111 46)" fill="#022c42"/>
      <path id="Union_2" data-name="Union 2" d="M.138,11.333H0V0H27V11.333h-.135C25.928,14.537,20.3,17,13.5,17S1.071,14.537.138,11.333Z" transform="translate(80 83)" fill="#022c42"/>
      <rect id="Rectangle_11" data-name="Rectangle 11" width="15" height="29" rx="5" transform="translate(61 46)" fill="#022c42"/>
    </g>
  </g>
</svg>
