<svg xmlns="http://www.w3.org/2000/svg" xmlns:xlink="http://www.w3.org/1999/xlink" width="531.999" height="320.979" viewBox="0 0 531.999 320.979">
  <defs>
    <filter id="Union_3" x="163" y="0" width="368.999" height="150.979" filterUnits="userSpaceOnUse">
      <feOffset dy="3" input="SourceAlpha"/>
      <feGaussianBlur stdDeviation="3" result="blur"/>
      <feFlood flood-opacity="0.161"/>
      <feComposite operator="in" in2="blur"/>
    </filter>
    <filter id="Union_3-2" x="163" y="0" width="368.999" height="150.979" filterUnits="userSpaceOnUse">
      <feOffset dx="3" dy="3" input="SourceAlpha"/>
      <feGaussianBlur stdDeviation="2.5" result="blur-2"/>
      <feFlood flood-opacity="0.161" result="color"/>
      <feComposite operator="out" in="SourceGraphic" in2="blur-2"/>
      <feComposite operator="in" in="color"/>
      <feComposite operator="in" in2="SourceGraphic"/>
    </filter>
  </defs>
  <g id="Lumi_emotion_1" data-name="Lumi emotion 1" transform="translate(-42 -773.021)">
    <g data-type="innerShadowGroup">
      <g transform="matrix(1, 0, 0, 1, 42, 773.02)" filter="url(#Union_3)">
        <g id="Union_3-3" data-name="Union 3" transform="translate(3038 2215)" fill="#fff">
          <path d="M -2806.357177734375 -2076.863525390625 L -2794.885009765625 -2088.93896484375 L -2794.082763671875 -2089.783447265625 L -2795.24755859375 -2089.783447265625 L -2806.1416015625 -2089.783447265625 C -2814.155029296875 -2089.783447265625 -2821.9287109375 -2091.352783203125 -2829.246337890625 -2094.447998046875 C -2832.763427734375 -2095.935546875 -2836.15576171875 -2097.77685546875 -2839.3291015625 -2099.920654296875 C -2842.47216796875 -2102.044189453125 -2845.427978515625 -2104.48291015625 -2848.1142578125 -2107.1689453125 C -2850.80029296875 -2109.855224609375 -2853.2392578125 -2112.81103515625 -2855.362548828125 -2115.9541015625 C -2857.50634765625 -2119.12744140625 -2859.34765625 -2122.519775390625 -2860.835205078125 -2126.036865234375 C -2863.930419921875 -2133.3544921875 -2865.499755859375 -2141.128173828125 -2865.499755859375 -2149.1416015625 C -2865.499755859375 -2157.1552734375 -2863.930419921875 -2164.9287109375 -2860.835205078125 -2172.246337890625 C -2859.34765625 -2175.763427734375 -2857.50634765625 -2179.15576171875 -2855.362548828125 -2182.3291015625 C -2853.2392578125 -2185.47216796875 -2850.80029296875 -2188.427978515625 -2848.1142578125 -2191.1142578125 C -2845.427978515625 -2193.80029296875 -2842.47216796875 -2196.239013671875 -2839.3291015625 -2198.362548828125 C -2836.15576171875 -2200.50634765625 -2832.763427734375 -2202.34765625 -2829.246337890625 -2203.835205078125 C -2821.9287109375 -2206.930419921875 -2814.155029296875 -2208.499755859375 -2806.1416015625 -2208.499755859375 L -2574.858642578125 -2208.499755859375 C -2566.844970703125 -2208.499755859375 -2559.071533203125 -2206.930419921875 -2551.75390625 -2203.835205078125 C -2548.23681640625 -2202.34765625 -2544.844482421875 -2200.50634765625 -2541.67138671875 -2198.362548828125 C -2538.528076171875 -2196.239013671875 -2535.572265625 -2193.80029296875 -2532.885986328125 -2191.1142578125 C -2530.199951171875 -2188.427978515625 -2527.76123046875 -2185.47216796875 -2525.6376953125 -2182.3291015625 C -2523.493896484375 -2179.15576171875 -2521.652587890625 -2175.763427734375 -2520.1650390625 -2172.246337890625 C -2517.06982421875 -2164.9287109375 -2515.50048828125 -2157.1552734375 -2515.50048828125 -2149.1416015625 C -2515.50048828125 -2141.128173828125 -2517.06982421875 -2133.3544921875 -2520.1650390625 -2126.036865234375 C -2521.652587890625 -2122.519775390625 -2523.493896484375 -2119.12744140625 -2525.6376953125 -2115.9541015625 C -2527.76123046875 -2112.81103515625 -2530.199951171875 -2109.855224609375 -2532.885986328125 -2107.1689453125 C -2535.572265625 -2104.48291015625 -2538.528076171875 -2102.044189453125 -2541.67138671875 -2099.920654296875 C -2544.844482421875 -2097.77685546875 -2548.23681640625 -2095.935546875 -2551.75390625 -2094.447998046875 C -2559.071533203125 -2091.352783203125 -2566.844970703125 -2089.783447265625 -2574.858642578125 -2089.783447265625 L -2748.024169921875 -2089.783447265625 L -2748.078857421875 -2089.783447265625 L -2748.13232421875 -2089.771484375 L -2806.357177734375 -2076.863525390625 Z" stroke="none"/>
          <path d="M -2804.866943359375 -2077.7060546875 L -2748.1337890625 -2090.283447265625 L -2574.858642578125 -2090.283447265625 C -2566.912353515625 -2090.283447265625 -2559.204345703125 -2091.839599609375 -2551.94873046875 -2094.908447265625 C -2548.461181640625 -2096.38330078125 -2545.09765625 -2098.209228515625 -2541.951171875 -2100.3349609375 C -2538.834228515625 -2102.440673828125 -2535.9033203125 -2104.85888671875 -2533.23974609375 -2107.5224609375 C -2530.575927734375 -2110.186279296875 -2528.15771484375 -2113.1171875 -2526.052001953125 -2116.234130859375 C -2523.92626953125 -2119.380615234375 -2522.100341796875 -2122.744140625 -2520.62548828125 -2126.231689453125 C -2517.556640625 -2133.4873046875 -2516.00048828125 -2141.1953125 -2516.00048828125 -2149.1416015625 C -2516.00048828125 -2157.087890625 -2517.556640625 -2164.7958984375 -2520.62548828125 -2172.051513671875 C -2522.100341796875 -2175.5390625 -2523.92626953125 -2178.902587890625 -2526.052001953125 -2182.049072265625 C -2528.15771484375 -2185.166015625 -2530.575927734375 -2188.096923828125 -2533.23974609375 -2190.760498046875 C -2535.9033203125 -2193.42431640625 -2538.834228515625 -2195.842529296875 -2541.951171875 -2197.9482421875 C -2545.09765625 -2200.073974609375 -2548.461181640625 -2201.89990234375 -2551.94873046875 -2203.374755859375 C -2559.204345703125 -2206.443603515625 -2566.912353515625 -2207.999755859375 -2574.858642578125 -2207.999755859375 L -2806.1416015625 -2207.999755859375 C -2814.087890625 -2207.999755859375 -2821.7958984375 -2206.443603515625 -2829.051513671875 -2203.374755859375 C -2832.5390625 -2201.89990234375 -2835.902587890625 -2200.073974609375 -2839.049072265625 -2197.9482421875 C -2842.166015625 -2195.842529296875 -2845.096923828125 -2193.42431640625 -2847.7607421875 -2190.760498046875 C -2850.42431640625 -2188.096923828125 -2852.842529296875 -2185.166015625 -2854.9482421875 -2182.049072265625 C -2857.073974609375 -2178.902587890625 -2858.89990234375 -2175.5390625 -2860.374755859375 -2172.051513671875 C -2863.44384765625 -2164.7958984375 -2864.999755859375 -2157.087890625 -2864.999755859375 -2149.1416015625 C -2864.999755859375 -2141.1953125 -2863.44384765625 -2133.4873046875 -2860.374755859375 -2126.231689453125 C -2858.89990234375 -2122.744140625 -2857.073974609375 -2119.380615234375 -2854.9482421875 -2116.234130859375 C -2852.842529296875 -2113.1171875 -2850.42431640625 -2110.186279296875 -2847.7607421875 -2107.5224609375 C -2845.096923828125 -2104.85888671875 -2842.166015625 -2102.440673828125 -2839.049072265625 -2100.3349609375 C -2835.902587890625 -2098.209228515625 -2832.5390625 -2096.38330078125 -2829.051513671875 -2094.908447265625 C -2821.7958984375 -2091.839599609375 -2814.087890625 -2090.283447265625 -2806.1416015625 -2090.283447265625 L -2792.918212890625 -2090.283447265625 L -2804.866943359375 -2077.7060546875 M -2807.84716796875 -2076.02099609375 L -2795.24755859375 -2089.283447265625 L -2806.1416015625 -2089.283447265625 C -2839.200439453125 -2089.283447265625 -2865.999755859375 -2116.082763671875 -2865.999755859375 -2149.1416015625 C -2865.999755859375 -2182.200439453125 -2839.200439453125 -2208.999755859375 -2806.1416015625 -2208.999755859375 L -2574.858642578125 -2208.999755859375 C -2541.7998046875 -2208.999755859375 -2515.00048828125 -2182.200439453125 -2515.00048828125 -2149.1416015625 C -2515.00048828125 -2116.082763671875 -2541.7998046875 -2089.283447265625 -2574.858642578125 -2089.283447265625 L -2748.024169921875 -2089.283447265625 L -2807.84716796875 -2076.02099609375 Z" stroke="none" fill="#707070"/>
        </g>
      </g>
      <g id="Union_3-4" data-name="Union 3" transform="translate(3080 2988.021)" fill="#fff">
        <path d="M -2806.357177734375 -2076.863525390625 L -2794.885009765625 -2088.93896484375 L -2794.082763671875 -2089.783447265625 L -2795.24755859375 -2089.783447265625 L -2806.1416015625 -2089.783447265625 C -2814.155029296875 -2089.783447265625 -2821.9287109375 -2091.352783203125 -2829.246337890625 -2094.447998046875 C -2832.763427734375 -2095.935546875 -2836.15576171875 -2097.77685546875 -2839.3291015625 -2099.920654296875 C -2842.47216796875 -2102.044189453125 -2845.427978515625 -2104.48291015625 -2848.1142578125 -2107.1689453125 C -2850.80029296875 -2109.855224609375 -2853.2392578125 -2112.81103515625 -2855.362548828125 -2115.9541015625 C -2857.50634765625 -2119.12744140625 -2859.34765625 -2122.519775390625 -2860.835205078125 -2126.036865234375 C -2863.930419921875 -2133.3544921875 -2865.499755859375 -2141.128173828125 -2865.499755859375 -2149.1416015625 C -2865.499755859375 -2157.1552734375 -2863.930419921875 -2164.9287109375 -2860.835205078125 -2172.246337890625 C -2859.34765625 -2175.763427734375 -2857.50634765625 -2179.15576171875 -2855.362548828125 -2182.3291015625 C -2853.2392578125 -2185.47216796875 -2850.80029296875 -2188.427978515625 -2848.1142578125 -2191.1142578125 C -2845.427978515625 -2193.80029296875 -2842.47216796875 -2196.239013671875 -2839.3291015625 -2198.362548828125 C -2836.15576171875 -2200.50634765625 -2832.763427734375 -2202.34765625 -2829.246337890625 -2203.835205078125 C -2821.9287109375 -2206.930419921875 -2814.155029296875 -2208.499755859375 -2806.1416015625 -2208.499755859375 L -2574.858642578125 -2208.499755859375 C -2566.844970703125 -2208.499755859375 -2559.071533203125 -2206.930419921875 -2551.75390625 -2203.835205078125 C -2548.23681640625 -2202.34765625 -2544.844482421875 -2200.50634765625 -2541.67138671875 -2198.362548828125 C -2538.528076171875 -2196.239013671875 -2535.572265625 -2193.80029296875 -2532.885986328125 -2191.1142578125 C -2530.199951171875 -2188.427978515625 -2527.76123046875 -2185.47216796875 -2525.6376953125 -2182.3291015625 C -2523.493896484375 -2179.15576171875 -2521.652587890625 -2175.763427734375 -2520.1650390625 -2172.246337890625 C -2517.06982421875 -2164.9287109375 -2515.50048828125 -2157.1552734375 -2515.50048828125 -2149.1416015625 C -2515.50048828125 -2141.128173828125 -2517.06982421875 -2133.3544921875 -2520.1650390625 -2126.036865234375 C -2521.652587890625 -2122.519775390625 -2523.493896484375 -2119.12744140625 -2525.6376953125 -2115.9541015625 C -2527.76123046875 -2112.81103515625 -2530.199951171875 -2109.855224609375 -2532.885986328125 -2107.1689453125 C -2535.572265625 -2104.48291015625 -2538.528076171875 -2102.044189453125 -2541.67138671875 -2099.920654296875 C -2544.844482421875 -2097.77685546875 -2548.23681640625 -2095.935546875 -2551.75390625 -2094.447998046875 C -2559.071533203125 -2091.352783203125 -2566.844970703125 -2089.783447265625 -2574.858642578125 -2089.783447265625 L -2748.024169921875 -2089.783447265625 L -2748.078857421875 -2089.783447265625 L -2748.13232421875 -2089.771484375 L -2806.357177734375 -2076.863525390625 Z" stroke="none"/>
        <path d="M -2804.866943359375 -2077.7060546875 L -2748.1337890625 -2090.283447265625 L -2574.858642578125 -2090.283447265625 C -2566.912353515625 -2090.283447265625 -2559.204345703125 -2091.839599609375 -2551.94873046875 -2094.908447265625 C -2548.461181640625 -2096.38330078125 -2545.09765625 -2098.209228515625 -2541.951171875 -2100.3349609375 C -2538.834228515625 -2102.440673828125 -2535.9033203125 -2104.85888671875 -2533.23974609375 -2107.5224609375 C -2530.575927734375 -2110.186279296875 -2528.15771484375 -2113.1171875 -2526.052001953125 -2116.234130859375 C -2523.92626953125 -2119.380615234375 -2522.100341796875 -2122.744140625 -2520.62548828125 -2126.231689453125 C -2517.556640625 -2133.4873046875 -2516.00048828125 -2141.1953125 -2516.00048828125 -2149.1416015625 C -2516.00048828125 -2157.087890625 -2517.556640625 -2164.7958984375 -2520.62548828125 -2172.051513671875 C -2522.100341796875 -2175.5390625 -2523.92626953125 -2178.902587890625 -2526.052001953125 -2182.049072265625 C -2528.15771484375 -2185.166015625 -2530.575927734375 -2188.096923828125 -2533.23974609375 -2190.760498046875 C -2535.9033203125 -2193.42431640625 -2538.834228515625 -2195.842529296875 -2541.951171875 -2197.9482421875 C -2545.09765625 -2200.073974609375 -2548.461181640625 -2201.89990234375 -2551.94873046875 -2203.374755859375 C -2559.204345703125 -2206.443603515625 -2566.912353515625 -2207.999755859375 -2574.858642578125 -2207.999755859375 L -2806.1416015625 -2207.999755859375 C -2814.087890625 -2207.999755859375 -2821.7958984375 -2206.443603515625 -2829.051513671875 -2203.374755859375 C -2832.5390625 -2201.89990234375 -2835.902587890625 -2200.073974609375 -2839.049072265625 -2197.9482421875 C -2842.166015625 -2195.842529296875 -2845.096923828125 -2193.42431640625 -2847.7607421875 -2190.760498046875 C -2850.42431640625 -2188.096923828125 -2852.842529296875 -2185.166015625 -2854.9482421875 -2182.049072265625 C -2857.073974609375 -2178.902587890625 -2858.89990234375 -2175.5390625 -2860.374755859375 -2172.051513671875 C -2863.44384765625 -2164.7958984375 -2864.999755859375 -2157.087890625 -2864.999755859375 -2149.1416015625 C -2864.999755859375 -2141.1953125 -2863.44384765625 -2133.4873046875 -2860.374755859375 -2126.231689453125 C -2858.89990234375 -2122.744140625 -2857.073974609375 -2119.380615234375 -2854.9482421875 -2116.234130859375 C -2852.842529296875 -2113.1171875 -2850.42431640625 -2110.186279296875 -2847.7607421875 -2107.5224609375 C -2845.096923828125 -2104.85888671875 -2842.166015625 -2102.440673828125 -2839.049072265625 -2100.3349609375 C -2835.902587890625 -2098.209228515625 -2832.5390625 -2096.38330078125 -2829.051513671875 -2094.908447265625 C -2821.7958984375 -2091.839599609375 -2814.087890625 -2090.283447265625 -2806.1416015625 -2090.283447265625 L -2792.918212890625 -2090.283447265625 L -2804.866943359375 -2077.7060546875 M -2807.84716796875 -2076.02099609375 L -2795.24755859375 -2089.283447265625 L -2806.1416015625 -2089.283447265625 C -2839.200439453125 -2089.283447265625 -2865.999755859375 -2116.082763671875 -2865.999755859375 -2149.1416015625 C -2865.999755859375 -2182.200439453125 -2839.200439453125 -2208.999755859375 -2806.1416015625 -2208.999755859375 L -2574.858642578125 -2208.999755859375 C -2541.7998046875 -2208.999755859375 -2515.00048828125 -2182.200439453125 -2515.00048828125 -2149.1416015625 C -2515.00048828125 -2116.082763671875 -2541.7998046875 -2089.283447265625 -2574.858642578125 -2089.283447265625 L -2748.024169921875 -2089.283447265625 L -2807.84716796875 -2076.02099609375 Z" stroke="none"/>
      </g>
      <g transform="matrix(1, 0, 0, 1, 42, 773.02)" filter="url(#Union_3-2)">
        <g id="Union_3-5" data-name="Union 3" transform="translate(3038 2215)" fill="#fff">
          <path d="M -2806.357177734375 -2076.863525390625 L -2794.885009765625 -2088.93896484375 L -2794.082763671875 -2089.783447265625 L -2795.24755859375 -2089.783447265625 L -2806.1416015625 -2089.783447265625 C -2814.155029296875 -2089.783447265625 -2821.9287109375 -2091.352783203125 -2829.246337890625 -2094.447998046875 C -2832.763427734375 -2095.935546875 -2836.15576171875 -2097.77685546875 -2839.3291015625 -2099.920654296875 C -2842.47216796875 -2102.044189453125 -2845.427978515625 -2104.48291015625 -2848.1142578125 -2107.1689453125 C -2850.80029296875 -2109.855224609375 -2853.2392578125 -2112.81103515625 -2855.362548828125 -2115.9541015625 C -2857.50634765625 -2119.12744140625 -2859.34765625 -2122.519775390625 -2860.835205078125 -2126.036865234375 C -2863.930419921875 -2133.3544921875 -2865.499755859375 -2141.128173828125 -2865.499755859375 -2149.1416015625 C -2865.499755859375 -2157.1552734375 -2863.930419921875 -2164.9287109375 -2860.835205078125 -2172.246337890625 C -2859.34765625 -2175.763427734375 -2857.50634765625 -2179.15576171875 -2855.362548828125 -2182.3291015625 C -2853.2392578125 -2185.47216796875 -2850.80029296875 -2188.427978515625 -2848.1142578125 -2191.1142578125 C -2845.427978515625 -2193.80029296875 -2842.47216796875 -2196.239013671875 -2839.3291015625 -2198.362548828125 C -2836.15576171875 -2200.50634765625 -2832.763427734375 -2202.34765625 -2829.246337890625 -2203.835205078125 C -2821.9287109375 -2206.930419921875 -2814.155029296875 -2208.499755859375 -2806.1416015625 -2208.499755859375 L -2574.858642578125 -2208.499755859375 C -2566.844970703125 -2208.499755859375 -2559.071533203125 -2206.930419921875 -2551.75390625 -2203.835205078125 C -2548.23681640625 -2202.34765625 -2544.844482421875 -2200.50634765625 -2541.67138671875 -2198.362548828125 C -2538.528076171875 -2196.239013671875 -2535.572265625 -2193.80029296875 -2532.885986328125 -2191.1142578125 C -2530.199951171875 -2188.427978515625 -2527.76123046875 -2185.47216796875 -2525.6376953125 -2182.3291015625 C -2523.493896484375 -2179.15576171875 -2521.652587890625 -2175.763427734375 -2520.1650390625 -2172.246337890625 C -2517.06982421875 -2164.9287109375 -2515.50048828125 -2157.1552734375 -2515.50048828125 -2149.1416015625 C -2515.50048828125 -2141.128173828125 -2517.06982421875 -2133.3544921875 -2520.1650390625 -2126.036865234375 C -2521.652587890625 -2122.519775390625 -2523.493896484375 -2119.12744140625 -2525.6376953125 -2115.9541015625 C -2527.76123046875 -2112.81103515625 -2530.199951171875 -2109.855224609375 -2532.885986328125 -2107.1689453125 C -2535.572265625 -2104.48291015625 -2538.528076171875 -2102.044189453125 -2541.67138671875 -2099.920654296875 C -2544.844482421875 -2097.77685546875 -2548.23681640625 -2095.935546875 -2551.75390625 -2094.447998046875 C -2559.071533203125 -2091.352783203125 -2566.844970703125 -2089.783447265625 -2574.858642578125 -2089.783447265625 L -2748.024169921875 -2089.783447265625 L -2748.078857421875 -2089.783447265625 L -2748.13232421875 -2089.771484375 L -2806.357177734375 -2076.863525390625 Z" stroke="none"/>
          <path d="M -2804.866943359375 -2077.7060546875 L -2748.1337890625 -2090.283447265625 L -2574.858642578125 -2090.283447265625 C -2566.912353515625 -2090.283447265625 -2559.204345703125 -2091.839599609375 -2551.94873046875 -2094.908447265625 C -2548.461181640625 -2096.38330078125 -2545.09765625 -2098.209228515625 -2541.951171875 -2100.3349609375 C -2538.834228515625 -2102.440673828125 -2535.9033203125 -2104.85888671875 -2533.23974609375 -2107.5224609375 C -2530.575927734375 -2110.186279296875 -2528.15771484375 -2113.1171875 -2526.052001953125 -2116.234130859375 C -2523.92626953125 -2119.380615234375 -2522.100341796875 -2122.744140625 -2520.62548828125 -2126.231689453125 C -2517.556640625 -2133.4873046875 -2516.00048828125 -2141.1953125 -2516.00048828125 -2149.1416015625 C -2516.00048828125 -2157.087890625 -2517.556640625 -2164.7958984375 -2520.62548828125 -2172.051513671875 C -2522.100341796875 -2175.5390625 -2523.92626953125 -2178.902587890625 -2526.052001953125 -2182.049072265625 C -2528.15771484375 -2185.166015625 -2530.575927734375 -2188.096923828125 -2533.23974609375 -2190.760498046875 C -2535.9033203125 -2193.42431640625 -2538.834228515625 -2195.842529296875 -2541.951171875 -2197.9482421875 C -2545.09765625 -2200.073974609375 -2548.461181640625 -2201.89990234375 -2551.94873046875 -2203.374755859375 C -2559.204345703125 -2206.443603515625 -2566.912353515625 -2207.999755859375 -2574.858642578125 -2207.999755859375 L -2806.1416015625 -2207.999755859375 C -2814.087890625 -2207.999755859375 -2821.7958984375 -2206.443603515625 -2829.051513671875 -2203.374755859375 C -2832.5390625 -2201.89990234375 -2835.902587890625 -2200.073974609375 -2839.049072265625 -2197.9482421875 C -2842.166015625 -2195.842529296875 -2845.096923828125 -2193.42431640625 -2847.7607421875 -2190.760498046875 C -2850.42431640625 -2188.096923828125 -2852.842529296875 -2185.166015625 -2854.9482421875 -2182.049072265625 C -2857.073974609375 -2178.902587890625 -2858.89990234375 -2175.5390625 -2860.374755859375 -2172.051513671875 C -2863.44384765625 -2164.7958984375 -2864.999755859375 -2157.087890625 -2864.999755859375 -2149.1416015625 C -2864.999755859375 -2141.1953125 -2863.44384765625 -2133.4873046875 -2860.374755859375 -2126.231689453125 C -2858.89990234375 -2122.744140625 -2857.073974609375 -2119.380615234375 -2854.9482421875 -2116.234130859375 C -2852.842529296875 -2113.1171875 -2850.42431640625 -2110.186279296875 -2847.7607421875 -2107.5224609375 C -2845.096923828125 -2104.85888671875 -2842.166015625 -2102.440673828125 -2839.049072265625 -2100.3349609375 C -2835.902587890625 -2098.209228515625 -2832.5390625 -2096.38330078125 -2829.051513671875 -2094.908447265625 C -2821.7958984375 -2091.839599609375 -2814.087890625 -2090.283447265625 -2806.1416015625 -2090.283447265625 L -2792.918212890625 -2090.283447265625 L -2804.866943359375 -2077.7060546875 M -2807.84716796875 -2076.02099609375 L -2795.24755859375 -2089.283447265625 L -2806.1416015625 -2089.283447265625 C -2839.200439453125 -2089.283447265625 -2865.999755859375 -2116.082763671875 -2865.999755859375 -2149.1416015625 C -2865.999755859375 -2182.200439453125 -2839.200439453125 -2208.999755859375 -2806.1416015625 -2208.999755859375 L -2574.858642578125 -2208.999755859375 C -2541.7998046875 -2208.999755859375 -2515.00048828125 -2182.200439453125 -2515.00048828125 -2149.1416015625 C -2515.00048828125 -2116.082763671875 -2541.7998046875 -2089.283447265625 -2574.858642578125 -2089.283447265625 L -2748.024169921875 -2089.283447265625 L -2807.84716796875 -2076.02099609375 Z" stroke="none"/>
        </g>
      </g>
      <g id="Union_3-6" data-name="Union 3" transform="translate(3080 2988.021)" fill="none">
        <path d="M -2806.357177734375 -2076.863525390625 L -2794.885009765625 -2088.93896484375 L -2794.082763671875 -2089.783447265625 L -2795.24755859375 -2089.783447265625 L -2806.1416015625 -2089.783447265625 C -2814.155029296875 -2089.783447265625 -2821.9287109375 -2091.352783203125 -2829.246337890625 -2094.447998046875 C -2832.763427734375 -2095.935546875 -2836.15576171875 -2097.77685546875 -2839.3291015625 -2099.920654296875 C -2842.47216796875 -2102.044189453125 -2845.427978515625 -2104.48291015625 -2848.1142578125 -2107.1689453125 C -2850.80029296875 -2109.855224609375 -2853.2392578125 -2112.81103515625 -2855.362548828125 -2115.9541015625 C -2857.50634765625 -2119.12744140625 -2859.34765625 -2122.519775390625 -2860.835205078125 -2126.036865234375 C -2863.930419921875 -2133.3544921875 -2865.499755859375 -2141.128173828125 -2865.499755859375 -2149.1416015625 C -2865.499755859375 -2157.1552734375 -2863.930419921875 -2164.9287109375 -2860.835205078125 -2172.246337890625 C -2859.34765625 -2175.763427734375 -2857.50634765625 -2179.15576171875 -2855.362548828125 -2182.3291015625 C -2853.2392578125 -2185.47216796875 -2850.80029296875 -2188.427978515625 -2848.1142578125 -2191.1142578125 C -2845.427978515625 -2193.80029296875 -2842.47216796875 -2196.239013671875 -2839.3291015625 -2198.362548828125 C -2836.15576171875 -2200.50634765625 -2832.763427734375 -2202.34765625 -2829.246337890625 -2203.835205078125 C -2821.9287109375 -2206.930419921875 -2814.155029296875 -2208.499755859375 -2806.1416015625 -2208.499755859375 L -2574.858642578125 -2208.499755859375 C -2566.844970703125 -2208.499755859375 -2559.071533203125 -2206.930419921875 -2551.75390625 -2203.835205078125 C -2548.23681640625 -2202.34765625 -2544.844482421875 -2200.50634765625 -2541.67138671875 -2198.362548828125 C -2538.528076171875 -2196.239013671875 -2535.572265625 -2193.80029296875 -2532.885986328125 -2191.1142578125 C -2530.199951171875 -2188.427978515625 -2527.76123046875 -2185.47216796875 -2525.6376953125 -2182.3291015625 C -2523.493896484375 -2179.15576171875 -2521.652587890625 -2175.763427734375 -2520.1650390625 -2172.246337890625 C -2517.06982421875 -2164.9287109375 -2515.50048828125 -2157.1552734375 -2515.50048828125 -2149.1416015625 C -2515.50048828125 -2141.128173828125 -2517.06982421875 -2133.3544921875 -2520.1650390625 -2126.036865234375 C -2521.652587890625 -2122.519775390625 -2523.493896484375 -2119.12744140625 -2525.6376953125 -2115.9541015625 C -2527.76123046875 -2112.81103515625 -2530.199951171875 -2109.855224609375 -2532.885986328125 -2107.1689453125 C -2535.572265625 -2104.48291015625 -2538.528076171875 -2102.044189453125 -2541.67138671875 -2099.920654296875 C -2544.844482421875 -2097.77685546875 -2548.23681640625 -2095.935546875 -2551.75390625 -2094.447998046875 C -2559.071533203125 -2091.352783203125 -2566.844970703125 -2089.783447265625 -2574.858642578125 -2089.783447265625 L -2748.024169921875 -2089.783447265625 L -2748.078857421875 -2089.783447265625 L -2748.13232421875 -2089.771484375 L -2806.357177734375 -2076.863525390625 Z" stroke="none"/>
        <path d="M -2804.866943359375 -2077.7060546875 L -2748.1337890625 -2090.283447265625 L -2574.858642578125 -2090.283447265625 C -2566.912353515625 -2090.283447265625 -2559.204345703125 -2091.839599609375 -2551.94873046875 -2094.908447265625 C -2548.461181640625 -2096.38330078125 -2545.09765625 -2098.209228515625 -2541.951171875 -2100.3349609375 C -2538.834228515625 -2102.440673828125 -2535.9033203125 -2104.85888671875 -2533.23974609375 -2107.5224609375 C -2530.575927734375 -2110.186279296875 -2528.15771484375 -2113.1171875 -2526.052001953125 -2116.234130859375 C -2523.92626953125 -2119.380615234375 -2522.100341796875 -2122.744140625 -2520.62548828125 -2126.231689453125 C -2517.556640625 -2133.4873046875 -2516.00048828125 -2141.1953125 -2516.00048828125 -2149.1416015625 C -2516.00048828125 -2157.087890625 -2517.556640625 -2164.7958984375 -2520.62548828125 -2172.051513671875 C -2522.100341796875 -2175.5390625 -2523.92626953125 -2178.902587890625 -2526.052001953125 -2182.049072265625 C -2528.15771484375 -2185.166015625 -2530.575927734375 -2188.096923828125 -2533.23974609375 -2190.760498046875 C -2535.9033203125 -2193.42431640625 -2538.834228515625 -2195.842529296875 -2541.951171875 -2197.9482421875 C -2545.09765625 -2200.073974609375 -2548.461181640625 -2201.89990234375 -2551.94873046875 -2203.374755859375 C -2559.204345703125 -2206.443603515625 -2566.912353515625 -2207.999755859375 -2574.858642578125 -2207.999755859375 L -2806.1416015625 -2207.999755859375 C -2814.087890625 -2207.999755859375 -2821.7958984375 -2206.443603515625 -2829.051513671875 -2203.374755859375 C -2832.5390625 -2201.89990234375 -2835.902587890625 -2200.073974609375 -2839.049072265625 -2197.9482421875 C -2842.166015625 -2195.842529296875 -2845.096923828125 -2193.42431640625 -2847.7607421875 -2190.760498046875 C -2850.42431640625 -2188.096923828125 -2852.842529296875 -2185.166015625 -2854.9482421875 -2182.049072265625 C -2857.073974609375 -2178.902587890625 -2858.89990234375 -2175.5390625 -2860.374755859375 -2172.051513671875 C -2863.44384765625 -2164.7958984375 -2864.999755859375 -2157.087890625 -2864.999755859375 -2149.1416015625 C -2864.999755859375 -2141.1953125 -2863.44384765625 -2133.4873046875 -2860.374755859375 -2126.231689453125 C -2858.89990234375 -2122.744140625 -2857.073974609375 -2119.380615234375 -2854.9482421875 -2116.234130859375 C -2852.842529296875 -2113.1171875 -2850.42431640625 -2110.186279296875 -2847.7607421875 -2107.5224609375 C -2845.096923828125 -2104.85888671875 -2842.166015625 -2102.440673828125 -2839.049072265625 -2100.3349609375 C -2835.902587890625 -2098.209228515625 -2832.5390625 -2096.38330078125 -2829.051513671875 -2094.908447265625 C -2821.7958984375 -2091.839599609375 -2814.087890625 -2090.283447265625 -2806.1416015625 -2090.283447265625 L -2792.918212890625 -2090.283447265625 L -2804.866943359375 -2077.7060546875 M -2807.84716796875 -2076.02099609375 L -2795.24755859375 -2089.283447265625 L -2806.1416015625 -2089.283447265625 C -2839.200439453125 -2089.283447265625 -2865.999755859375 -2116.082763671875 -2865.999755859375 -2149.1416015625 C -2865.999755859375 -2182.200439453125 -2839.200439453125 -2208.999755859375 -2806.1416015625 -2208.999755859375 L -2574.858642578125 -2208.999755859375 C -2541.7998046875 -2208.999755859375 -2515.00048828125 -2182.200439453125 -2515.00048828125 -2149.1416015625 C -2515.00048828125 -2116.082763671875 -2541.7998046875 -2089.283447265625 -2574.858642578125 -2089.283447265625 L -2748.024169921875 -2089.283447265625 L -2807.84716796875 -2076.02099609375 Z" stroke="none" fill="#707070"/>
      </g>
    </g>
    <text id="Please_stand_still_and_look_at_the_camera" data-name="Please, stand still and look at the camera" transform="translate(247 807)" fill="#527592" font-size="30" font-family="GillSans-SemiBold, Gill Sans" font-weight="600"><tspan x="0" y="28">Please, stand still and </tspan><tspan x="0" y="64">look at the camera</tspan></text>
    <g id="Component_9_4" data-name="Component 9 – 4" transform="translate(42 879)">
      <g id="Union_1" data-name="Union 1" fill="none">
        <path d="M0,215V85H.009C0,84.583,0,84.168,0,83.75,0,37.5,36.266,0,81,0s81,37.5,81,83.75c0,.418,0,.833-.009,1.249H162V215Z" stroke="none"/>
        <path d="M 157 210 L 157 89.99918365478516 L 156.9205932617188 89.99918365478516 L 156.9917144775391 84.92905426025391 C 156.9972229003906 84.53692626953125 157 84.14024353027344 157 83.74996185302734 C 157 73.09621429443359 154.9836273193359 62.76521301269531 151.0068511962891 53.04389953613281 C 149.0967864990234 48.37467956542969 146.7328491210938 43.87155532836914 143.9807434082031 39.65961837768555 C 141.2559661865234 35.48945999145508 138.1272888183594 31.5685863494873 134.6815948486328 28.00589942932129 C 131.2386932373047 24.44611740112305 127.4513092041016 21.21496200561523 123.4246597290039 18.4022102355957 C 119.3638763427734 15.56564903259277 115.0239715576172 13.12989902496338 110.5255661010742 11.1625862121582 C 101.1751556396484 7.073398590087891 91.24150085449219 4.999992370605469 81.00050354003906 4.999992370605469 C 70.75937652587891 4.999992370605469 60.8255615234375 7.073398590087891 51.47506332397461 11.1625862121582 C 46.9765625 13.12989902496338 42.63662338256836 15.56564903259277 38.57578277587891 18.40224266052246 C 34.5490608215332 21.21499252319336 30.76162528991699 24.44614791870117 27.31871795654297 28.00592994689941 C 23.87296867370605 31.56861686706543 20.74421882629395 35.4894905090332 18.01940536499023 39.65964889526367 C 15.2672815322876 43.87158584594727 12.90331268310547 48.37471008300781 10.99324989318848 53.04393005371094 C 7.016406059265137 62.76524353027344 5 73.09624481201172 5 83.74996185302734 C 5 84.14024353027344 5.002781391143799 84.53692626953125 5.008281230926514 84.92905426025391 L 5.079406261444092 89.99918365478516 L 5 89.99918365478516 L 5 210 L 157 210 M 162 215 L 0 215 L 0 84.99918365478516 L 0.008781249634921551 84.99918365478516 C 0.002937499899417162 84.58258819580078 0 84.16767883300781 0 83.74996185302734 C 0 37.49636840820312 36.265625 -7.62939453125e-06 81.00050354003906 -7.62939453125e-06 C 125.7348785400391 -7.62939453125e-06 162 37.49636840820312 162 83.74996185302734 C 162 84.16767883300781 161.9970550537109 84.58258819580078 161.9912261962891 84.99918365478516 L 162 84.99918365478516 L 162 215 Z" stroke="none" fill="#022c42"/>
      </g>
      <rect id="Rectangle_9" data-name="Rectangle 9" width="15" height="29" rx="5" transform="translate(111 46)" fill="#022c42"/>
      <path id="Union_2" data-name="Union 2" d="M.138,11.333H0V0H27V11.333h-.135C25.928,14.537,20.3,17,13.5,17S1.071,14.537.138,11.333Z" transform="translate(80 83)" fill="#022c42"/>
      <rect id="Rectangle_11" data-name="Rectangle 11" width="15" height="29" rx="5" transform="translate(61 46)" fill="#022c42"/>
    </g>
  </g>
</svg>
