<svg xmlns="http://www.w3.org/2000/svg" xmlns:xlink="http://www.w3.org/1999/xlink" width="681.376" height="803" viewBox="0 0 681.376 803">
  <defs>
    <filter id="Union_4" x="0" y="348.865" width="674.377" height="340.135" filterUnits="userSpaceOnUse">
      <feOffset dy="3" input="SourceAlpha"/>
      <feGaussianBlur stdDeviation="3" result="blur"/>
      <feFlood flood-opacity="0.161"/>
      <feComposite operator="in" in2="blur"/>
    </filter>
    <filter id="Union_4-2" x="0" y="348.865" width="674.377" height="340.135" filterUnits="userSpaceOnUse">
      <feOffset dx="3" dy="3" input="SourceAlpha"/>
      <feGaussianBlur stdDeviation="2.5" result="blur-2"/>
      <feFlood flood-opacity="0.161" result="color"/>
      <feComposite operator="out" in="SourceGraphic" in2="blur-2"/>
      <feComposite operator="in" in="color"/>
      <feComposite operator="in" in2="SourceGraphic"/>
    </filter>
    <clipPath id="clip-path">
      <rect width="162" height="144" fill="none"/>
    </clipPath>
  </defs>
  <g id="Outcome_Sad" data-name="Outcome Sad" transform="translate(-18.624 -221)">
    <g id="Sad_Blue" data-name="Sad Blue" transform="translate(-30 -120)">
      <circle id="Ellipse_70" data-name="Ellipse 70" cx="100.5" cy="100.5" r="100.5" transform="translate(287 341)" fill="#25acf4" opacity="0.183"/>
      <g id="Ellipse_7" data-name="Ellipse 7" transform="translate(297 351)" fill="#25acf4" stroke="#707070" stroke-width="1">
        <circle cx="90" cy="90" r="90" stroke="none"/>
        <circle cx="90" cy="90" r="89.5" fill="none"/>
      </g>
      <path id="Subtraction_2" data-name="Subtraction 2" d="M3.44,23.862h0a14.487,14.487,0,1,1,22.095,0,48.591,48.591,0,0,0-11.048-1.1,48.452,48.452,0,0,0-11.044,1.1Z" transform="translate(413.243 411.364)" fill="#070101"/>
      <path id="Path_4" data-name="Path 4" d="M3013,4161.874s22.861-50.6,63.023,0" transform="translate(-2651.434 -3673.039)" fill="none" stroke="#0a0101" stroke-width="1"/>
      <path id="Subtraction_3" data-name="Subtraction 3" d="M3.44,23.862h0a14.487,14.487,0,1,1,22.095,0,48.591,48.591,0,0,0-11.048-1.1,48.452,48.452,0,0,0-11.044,1.1Z" transform="translate(338.739 411.607)" fill="#070101"/>
      <rect id="Rectangle_42" data-name="Rectangle 42" width="6.19" height="18.571" rx="3.095" transform="matrix(0.656, 0.755, -0.755, 0.656, 343.716, 398.153)" fill="#070101"/>
      <rect id="Rectangle_43" data-name="Rectangle 43" width="6.19" height="18.571" rx="3.095" transform="translate(447.904 407.438) rotate(120)" fill="#070101"/>
      <text id="Sad" transform="translate(331 523)" fill="#25acf4" font-size="70" font-family="GillSans-SemiBold, Gill Sans" font-weight="600"><tspan x="0" y="66">Sad</tspan></text>
    </g>
    <g data-type="innerShadowGroup">
      <g transform="matrix(1, 0, 0, 1, 18.62, 221)" filter="url(#Union_4)">
        <g id="Union_4-3" data-name="Union 4" transform="translate(2875 7617.87)" fill="#fff">
          <path d="M -2700.984375 -6941.75 L -2678.2890625 -6972.697265625 L -2677.70556640625 -6973.4931640625 L -2678.6923828125 -6973.4931640625 L -2788.000244140625 -6973.4931640625 C -2793.2587890625 -6973.4931640625 -2798.513916015625 -6974.02294921875 -2803.61962890625 -6975.0673828125 C -2808.59521484375 -6976.0859375 -2813.489501953125 -6977.60498046875 -2818.166259765625 -6979.5830078125 C -2822.75830078125 -6981.525390625 -2827.1875 -6983.9296875 -2831.33056640625 -6986.728515625 C -2835.434326171875 -6989.5009765625 -2839.29345703125 -6992.68505859375 -2842.80078125 -6996.19189453125 C -2846.307861328125 -6999.69921875 -2849.491943359375 -7003.55859375 -2852.264404296875 -7007.662109375 C -2855.0634765625 -7011.80517578125 -2857.4677734375 -7016.234375 -2859.409912109375 -7020.82666015625 C -2861.38818359375 -7025.50341796875 -2862.907470703125 -7030.39794921875 -2863.92578125 -7035.37353515625 C -2864.970458984375 -7040.4794921875 -2865.500244140625 -7045.73486328125 -2865.500244140625 -7050.99365234375 L -2865.500244140625 -7185 C -2865.500244140625 -7190.25830078125 -2864.970458984375 -7195.513671875 -2863.92578125 -7200.619140625 C -2862.907470703125 -7205.59521484375 -2861.38818359375 -7210.4892578125 -2859.409912109375 -7215.166015625 C -2857.4677734375 -7219.75830078125 -2855.0634765625 -7224.1875 -2852.264404296875 -7228.33056640625 C -2849.491943359375 -7232.43408203125 -2846.307861328125 -7236.29345703125 -2842.80078125 -7239.80029296875 C -2839.29345703125 -7243.3076171875 -2835.434326171875 -7246.49169921875 -2831.33056640625 -7249.26416015625 C -2827.1875 -7252.0634765625 -2822.75830078125 -7254.4677734375 -2818.166259765625 -7256.40966796875 C -2813.4892578125 -7258.38818359375 -2808.59521484375 -7259.9072265625 -2803.61962890625 -7260.92529296875 C -2798.513916015625 -7261.97021484375 -2793.2587890625 -7262.5 -2788.000244140625 -7262.5 L -2287.62353515625 -7262.5 C -2282.364990234375 -7262.5 -2277.10986328125 -7261.97021484375 -2272.004150390625 -7260.92529296875 C -2267.028564453125 -7259.9072265625 -2262.13427734375 -7258.38818359375 -2257.45751953125 -7256.40966796875 C -2252.865234375 -7254.4677734375 -2248.436279296875 -7252.0634765625 -2244.293212890625 -7249.26416015625 C -2240.189208984375 -7246.49169921875 -2236.330078125 -7243.3076171875 -2232.822998046875 -7239.80029296875 C -2229.315673828125 -7236.29345703125 -2226.131591796875 -7232.43408203125 -2223.359130859375 -7228.33056640625 C -2220.56005859375 -7224.1875 -2218.156005859375 -7219.75830078125 -2216.2138671875 -7215.166015625 C -2214.235595703125 -7210.4892578125 -2212.71630859375 -7205.59521484375 -2211.697998046875 -7200.619140625 C -2210.6533203125 -7195.513671875 -2210.12353515625 -7190.25830078125 -2210.12353515625 -7185 L -2210.12353515625 -7050.99365234375 C -2210.12353515625 -7045.73486328125 -2210.6533203125 -7040.4794921875 -2211.697998046875 -7035.37353515625 C -2212.71630859375 -7030.39794921875 -2214.235595703125 -7025.50341796875 -2216.2138671875 -7020.82666015625 C -2218.156005859375 -7016.234375 -2220.56005859375 -7011.80517578125 -2223.359130859375 -7007.662109375 C -2226.131591796875 -7003.55859375 -2229.315673828125 -6999.69921875 -2232.822998046875 -6996.19189453125 C -2236.330078125 -6992.68505859375 -2240.189208984375 -6989.5009765625 -2244.293212890625 -6986.728515625 C -2248.436279296875 -6983.9296875 -2252.865234375 -6981.525390625 -2257.45751953125 -6979.5830078125 C -2262.13427734375 -6977.60498046875 -2267.028564453125 -6976.0859375 -2272.004150390625 -6975.0673828125 C -2277.10986328125 -6974.02294921875 -2282.364990234375 -6973.4931640625 -2287.62353515625 -6973.4931640625 L -2590.38427734375 -6973.4931640625 L -2590.45458984375 -6973.4931640625 L -2590.522216796875 -6973.4736328125 L -2700.984375 -6941.75 Z" stroke="none"/>
          <path d="M -2699.715576171875 -6942.63427734375 L -2590.52490234375 -6973.9931640625 L -2287.62353515625 -6973.9931640625 C -2277.228271484375 -6973.9931640625 -2267.14453125 -6976.02880859375 -2257.652099609375 -6980.04345703125 C -2253.08984375 -6981.97314453125 -2248.689453125 -6984.36181640625 -2244.572998046875 -6987.142578125 C -2240.49560546875 -6989.8974609375 -2236.6611328125 -6993.06103515625 -2233.176513671875 -6996.54541015625 C -2229.69189453125 -7000.0302734375 -2226.528076171875 -7003.86474609375 -2223.7734375 -7007.94189453125 C -2220.992431640625 -7012.05859375 -2218.60400390625 -7016.458984375 -2216.67431640625 -7021.021484375 C -2212.6591796875 -7030.513671875 -2210.62353515625 -7040.59814453125 -2210.62353515625 -7050.99365234375 L -2210.62353515625 -7185 C -2210.62353515625 -7195.3955078125 -2212.6591796875 -7205.47900390625 -2216.67431640625 -7214.97119140625 C -2218.60400390625 -7219.53369140625 -2220.992431640625 -7223.93408203125 -2223.7734375 -7228.05029296875 C -2226.528076171875 -7232.1279296875 -2229.69189453125 -7235.96240234375 -2233.176513671875 -7239.447265625 C -2236.6611328125 -7242.931640625 -2240.49560546875 -7246.09521484375 -2244.572998046875 -7248.85009765625 C -2248.689453125 -7251.630859375 -2253.08984375 -7254.01953125 -2257.652099609375 -7255.94921875 C -2267.14453125 -7259.96435546875 -2277.228271484375 -7262 -2287.62353515625 -7262 L -2788.000244140625 -7262 C -2798.3955078125 -7262 -2808.479248046875 -7259.96435546875 -2817.971435546875 -7255.94921875 C -2822.53369140625 -7254.01953125 -2826.934326171875 -7251.630859375 -2831.050537109375 -7248.85009765625 C -2835.128173828125 -7246.09521484375 -2838.96240234375 -7242.931640625 -2842.447265625 -7239.447265625 C -2845.931884765625 -7235.96240234375 -2849.095458984375 -7232.1279296875 -2851.850341796875 -7228.05029296875 C -2854.63134765625 -7223.93408203125 -2857.019775390625 -7219.53369140625 -2858.949462890625 -7214.97119140625 C -2862.964599609375 -7205.47900390625 -2865.000244140625 -7195.39501953125 -2865.000244140625 -7185 L -2865.000244140625 -7050.99365234375 C -2865.000244140625 -7040.59814453125 -2862.964599609375 -7030.513671875 -2858.949462890625 -7021.021484375 C -2857.019775390625 -7016.458984375 -2854.63134765625 -7012.05859375 -2851.850341796875 -7007.94189453125 C -2849.095458984375 -7003.86474609375 -2845.931884765625 -7000.0302734375 -2842.447265625 -6996.54541015625 C -2838.96240234375 -6993.06103515625 -2835.128173828125 -6989.8974609375 -2831.050537109375 -6987.142578125 C -2826.934326171875 -6984.36181640625 -2822.533935546875 -6981.97314453125 -2817.971435546875 -6980.04345703125 C -2808.479248046875 -6976.02880859375 -2798.3955078125 -6973.9931640625 -2788.000244140625 -6973.9931640625 L -2676.718994140625 -6973.9931640625 L -2699.715576171875 -6942.63427734375 M -2702.253173828125 -6940.865234375 L -2678.6923828125 -6972.9931640625 L -2788.000244140625 -6972.9931640625 C -2831.07763671875 -6972.9931640625 -2866.000244140625 -7007.9140625 -2866.000244140625 -7050.99365234375 L -2866.000244140625 -7185 C -2866.000244140625 -7228.07763671875 -2831.07763671875 -7263 -2788.000244140625 -7263 L -2287.62353515625 -7263 C -2244.5458984375 -7263 -2209.62353515625 -7228.07763671875 -2209.62353515625 -7185 L -2209.62353515625 -7050.99365234375 C -2209.62353515625 -7007.9140625 -2244.5458984375 -6972.9931640625 -2287.62353515625 -6972.9931640625 L -2590.38427734375 -6972.9931640625 L -2702.253173828125 -6940.865234375 Z" stroke="none" fill="#707070"/>
        </g>
      </g>
      <g id="Union_4-4" data-name="Union 4" transform="translate(2893.625 7838.865)" fill="#fff">
        <path d="M -2700.984375 -6941.75 L -2678.2890625 -6972.697265625 L -2677.70556640625 -6973.4931640625 L -2678.6923828125 -6973.4931640625 L -2788.000244140625 -6973.4931640625 C -2793.2587890625 -6973.4931640625 -2798.513916015625 -6974.02294921875 -2803.61962890625 -6975.0673828125 C -2808.59521484375 -6976.0859375 -2813.489501953125 -6977.60498046875 -2818.166259765625 -6979.5830078125 C -2822.75830078125 -6981.525390625 -2827.1875 -6983.9296875 -2831.33056640625 -6986.728515625 C -2835.434326171875 -6989.5009765625 -2839.29345703125 -6992.68505859375 -2842.80078125 -6996.19189453125 C -2846.307861328125 -6999.69921875 -2849.491943359375 -7003.55859375 -2852.264404296875 -7007.662109375 C -2855.0634765625 -7011.80517578125 -2857.4677734375 -7016.234375 -2859.409912109375 -7020.82666015625 C -2861.38818359375 -7025.50341796875 -2862.907470703125 -7030.39794921875 -2863.92578125 -7035.37353515625 C -2864.970458984375 -7040.4794921875 -2865.500244140625 -7045.73486328125 -2865.500244140625 -7050.99365234375 L -2865.500244140625 -7185 C -2865.500244140625 -7190.25830078125 -2864.970458984375 -7195.513671875 -2863.92578125 -7200.619140625 C -2862.907470703125 -7205.59521484375 -2861.38818359375 -7210.4892578125 -2859.409912109375 -7215.166015625 C -2857.4677734375 -7219.75830078125 -2855.0634765625 -7224.1875 -2852.264404296875 -7228.33056640625 C -2849.491943359375 -7232.43408203125 -2846.307861328125 -7236.29345703125 -2842.80078125 -7239.80029296875 C -2839.29345703125 -7243.3076171875 -2835.434326171875 -7246.49169921875 -2831.33056640625 -7249.26416015625 C -2827.1875 -7252.0634765625 -2822.75830078125 -7254.4677734375 -2818.166259765625 -7256.40966796875 C -2813.4892578125 -7258.38818359375 -2808.59521484375 -7259.9072265625 -2803.61962890625 -7260.92529296875 C -2798.513916015625 -7261.97021484375 -2793.2587890625 -7262.5 -2788.000244140625 -7262.5 L -2287.62353515625 -7262.5 C -2282.364990234375 -7262.5 -2277.10986328125 -7261.97021484375 -2272.004150390625 -7260.92529296875 C -2267.028564453125 -7259.9072265625 -2262.13427734375 -7258.38818359375 -2257.45751953125 -7256.40966796875 C -2252.865234375 -7254.4677734375 -2248.436279296875 -7252.0634765625 -2244.293212890625 -7249.26416015625 C -2240.189208984375 -7246.49169921875 -2236.330078125 -7243.3076171875 -2232.822998046875 -7239.80029296875 C -2229.315673828125 -7236.29345703125 -2226.131591796875 -7232.43408203125 -2223.359130859375 -7228.33056640625 C -2220.56005859375 -7224.1875 -2218.156005859375 -7219.75830078125 -2216.2138671875 -7215.166015625 C -2214.235595703125 -7210.4892578125 -2212.71630859375 -7205.59521484375 -2211.697998046875 -7200.619140625 C -2210.6533203125 -7195.513671875 -2210.12353515625 -7190.25830078125 -2210.12353515625 -7185 L -2210.12353515625 -7050.99365234375 C -2210.12353515625 -7045.73486328125 -2210.6533203125 -7040.4794921875 -2211.697998046875 -7035.37353515625 C -2212.71630859375 -7030.39794921875 -2214.235595703125 -7025.50341796875 -2216.2138671875 -7020.82666015625 C -2218.156005859375 -7016.234375 -2220.56005859375 -7011.80517578125 -2223.359130859375 -7007.662109375 C -2226.131591796875 -7003.55859375 -2229.315673828125 -6999.69921875 -2232.822998046875 -6996.19189453125 C -2236.330078125 -6992.68505859375 -2240.189208984375 -6989.5009765625 -2244.293212890625 -6986.728515625 C -2248.436279296875 -6983.9296875 -2252.865234375 -6981.525390625 -2257.45751953125 -6979.5830078125 C -2262.13427734375 -6977.60498046875 -2267.028564453125 -6976.0859375 -2272.004150390625 -6975.0673828125 C -2277.10986328125 -6974.02294921875 -2282.364990234375 -6973.4931640625 -2287.62353515625 -6973.4931640625 L -2590.38427734375 -6973.4931640625 L -2590.45458984375 -6973.4931640625 L -2590.522216796875 -6973.4736328125 L -2700.984375 -6941.75 Z" stroke="none"/>
        <path d="M -2699.715576171875 -6942.63427734375 L -2590.52490234375 -6973.9931640625 L -2287.62353515625 -6973.9931640625 C -2277.228271484375 -6973.9931640625 -2267.14453125 -6976.02880859375 -2257.652099609375 -6980.04345703125 C -2253.08984375 -6981.97314453125 -2248.689453125 -6984.36181640625 -2244.572998046875 -6987.142578125 C -2240.49560546875 -6989.8974609375 -2236.6611328125 -6993.06103515625 -2233.176513671875 -6996.54541015625 C -2229.69189453125 -7000.0302734375 -2226.528076171875 -7003.86474609375 -2223.7734375 -7007.94189453125 C -2220.992431640625 -7012.05859375 -2218.60400390625 -7016.458984375 -2216.67431640625 -7021.021484375 C -2212.6591796875 -7030.513671875 -2210.62353515625 -7040.59814453125 -2210.62353515625 -7050.99365234375 L -2210.62353515625 -7185 C -2210.62353515625 -7195.3955078125 -2212.6591796875 -7205.47900390625 -2216.67431640625 -7214.97119140625 C -2218.60400390625 -7219.53369140625 -2220.992431640625 -7223.93408203125 -2223.7734375 -7228.05029296875 C -2226.528076171875 -7232.1279296875 -2229.69189453125 -7235.96240234375 -2233.176513671875 -7239.447265625 C -2236.6611328125 -7242.931640625 -2240.49560546875 -7246.09521484375 -2244.572998046875 -7248.85009765625 C -2248.689453125 -7251.630859375 -2253.08984375 -7254.01953125 -2257.652099609375 -7255.94921875 C -2267.14453125 -7259.96435546875 -2277.228271484375 -7262 -2287.62353515625 -7262 L -2788.000244140625 -7262 C -2798.3955078125 -7262 -2808.479248046875 -7259.96435546875 -2817.971435546875 -7255.94921875 C -2822.53369140625 -7254.01953125 -2826.934326171875 -7251.630859375 -2831.050537109375 -7248.85009765625 C -2835.128173828125 -7246.09521484375 -2838.96240234375 -7242.931640625 -2842.447265625 -7239.447265625 C -2845.931884765625 -7235.96240234375 -2849.095458984375 -7232.1279296875 -2851.850341796875 -7228.05029296875 C -2854.63134765625 -7223.93408203125 -2857.019775390625 -7219.53369140625 -2858.949462890625 -7214.97119140625 C -2862.964599609375 -7205.47900390625 -2865.000244140625 -7195.39501953125 -2865.000244140625 -7185 L -2865.000244140625 -7050.99365234375 C -2865.000244140625 -7040.59814453125 -2862.964599609375 -7030.513671875 -2858.949462890625 -7021.021484375 C -2857.019775390625 -7016.458984375 -2854.63134765625 -7012.05859375 -2851.850341796875 -7007.94189453125 C -2849.095458984375 -7003.86474609375 -2845.931884765625 -7000.0302734375 -2842.447265625 -6996.54541015625 C -2838.96240234375 -6993.06103515625 -2835.128173828125 -6989.8974609375 -2831.050537109375 -6987.142578125 C -2826.934326171875 -6984.36181640625 -2822.533935546875 -6981.97314453125 -2817.971435546875 -6980.04345703125 C -2808.479248046875 -6976.02880859375 -2798.3955078125 -6973.9931640625 -2788.000244140625 -6973.9931640625 L -2676.718994140625 -6973.9931640625 L -2699.715576171875 -6942.63427734375 M -2702.253173828125 -6940.865234375 L -2678.6923828125 -6972.9931640625 L -2788.000244140625 -6972.9931640625 C -2831.07763671875 -6972.9931640625 -2866.000244140625 -7007.9140625 -2866.000244140625 -7050.99365234375 L -2866.000244140625 -7185 C -2866.000244140625 -7228.07763671875 -2831.07763671875 -7263 -2788.000244140625 -7263 L -2287.62353515625 -7263 C -2244.5458984375 -7263 -2209.62353515625 -7228.07763671875 -2209.62353515625 -7185 L -2209.62353515625 -7050.99365234375 C -2209.62353515625 -7007.9140625 -2244.5458984375 -6972.9931640625 -2287.62353515625 -6972.9931640625 L -2590.38427734375 -6972.9931640625 L -2702.253173828125 -6940.865234375 Z" stroke="none"/>
      </g>
      <g transform="matrix(1, 0, 0, 1, 18.62, 221)" filter="url(#Union_4-2)">
        <g id="Union_4-5" data-name="Union 4" transform="translate(2875 7617.87)" fill="#fff">
          <path d="M -2700.984375 -6941.75 L -2678.2890625 -6972.697265625 L -2677.70556640625 -6973.4931640625 L -2678.6923828125 -6973.4931640625 L -2788.000244140625 -6973.4931640625 C -2793.2587890625 -6973.4931640625 -2798.513916015625 -6974.02294921875 -2803.61962890625 -6975.0673828125 C -2808.59521484375 -6976.0859375 -2813.489501953125 -6977.60498046875 -2818.166259765625 -6979.5830078125 C -2822.75830078125 -6981.525390625 -2827.1875 -6983.9296875 -2831.33056640625 -6986.728515625 C -2835.434326171875 -6989.5009765625 -2839.29345703125 -6992.68505859375 -2842.80078125 -6996.19189453125 C -2846.307861328125 -6999.69921875 -2849.491943359375 -7003.55859375 -2852.264404296875 -7007.662109375 C -2855.0634765625 -7011.80517578125 -2857.4677734375 -7016.234375 -2859.409912109375 -7020.82666015625 C -2861.38818359375 -7025.50341796875 -2862.907470703125 -7030.39794921875 -2863.92578125 -7035.37353515625 C -2864.970458984375 -7040.4794921875 -2865.500244140625 -7045.73486328125 -2865.500244140625 -7050.99365234375 L -2865.500244140625 -7185 C -2865.500244140625 -7190.25830078125 -2864.970458984375 -7195.513671875 -2863.92578125 -7200.619140625 C -2862.907470703125 -7205.59521484375 -2861.38818359375 -7210.4892578125 -2859.409912109375 -7215.166015625 C -2857.4677734375 -7219.75830078125 -2855.0634765625 -7224.1875 -2852.264404296875 -7228.33056640625 C -2849.491943359375 -7232.43408203125 -2846.307861328125 -7236.29345703125 -2842.80078125 -7239.80029296875 C -2839.29345703125 -7243.3076171875 -2835.434326171875 -7246.49169921875 -2831.33056640625 -7249.26416015625 C -2827.1875 -7252.0634765625 -2822.75830078125 -7254.4677734375 -2818.166259765625 -7256.40966796875 C -2813.4892578125 -7258.38818359375 -2808.59521484375 -7259.9072265625 -2803.61962890625 -7260.92529296875 C -2798.513916015625 -7261.97021484375 -2793.2587890625 -7262.5 -2788.000244140625 -7262.5 L -2287.62353515625 -7262.5 C -2282.364990234375 -7262.5 -2277.10986328125 -7261.97021484375 -2272.004150390625 -7260.92529296875 C -2267.028564453125 -7259.9072265625 -2262.13427734375 -7258.38818359375 -2257.45751953125 -7256.40966796875 C -2252.865234375 -7254.4677734375 -2248.436279296875 -7252.0634765625 -2244.293212890625 -7249.26416015625 C -2240.189208984375 -7246.49169921875 -2236.330078125 -7243.3076171875 -2232.822998046875 -7239.80029296875 C -2229.315673828125 -7236.29345703125 -2226.131591796875 -7232.43408203125 -2223.359130859375 -7228.33056640625 C -2220.56005859375 -7224.1875 -2218.156005859375 -7219.75830078125 -2216.2138671875 -7215.166015625 C -2214.235595703125 -7210.4892578125 -2212.71630859375 -7205.59521484375 -2211.697998046875 -7200.619140625 C -2210.6533203125 -7195.513671875 -2210.12353515625 -7190.25830078125 -2210.12353515625 -7185 L -2210.12353515625 -7050.99365234375 C -2210.12353515625 -7045.73486328125 -2210.6533203125 -7040.4794921875 -2211.697998046875 -7035.37353515625 C -2212.71630859375 -7030.39794921875 -2214.235595703125 -7025.50341796875 -2216.2138671875 -7020.82666015625 C -2218.156005859375 -7016.234375 -2220.56005859375 -7011.80517578125 -2223.359130859375 -7007.662109375 C -2226.131591796875 -7003.55859375 -2229.315673828125 -6999.69921875 -2232.822998046875 -6996.19189453125 C -2236.330078125 -6992.68505859375 -2240.189208984375 -6989.5009765625 -2244.293212890625 -6986.728515625 C -2248.436279296875 -6983.9296875 -2252.865234375 -6981.525390625 -2257.45751953125 -6979.5830078125 C -2262.13427734375 -6977.60498046875 -2267.028564453125 -6976.0859375 -2272.004150390625 -6975.0673828125 C -2277.10986328125 -6974.02294921875 -2282.364990234375 -6973.4931640625 -2287.62353515625 -6973.4931640625 L -2590.38427734375 -6973.4931640625 L -2590.45458984375 -6973.4931640625 L -2590.522216796875 -6973.4736328125 L -2700.984375 -6941.75 Z" stroke="none"/>
          <path d="M -2699.715576171875 -6942.63427734375 L -2590.52490234375 -6973.9931640625 L -2287.62353515625 -6973.9931640625 C -2277.228271484375 -6973.9931640625 -2267.14453125 -6976.02880859375 -2257.652099609375 -6980.04345703125 C -2253.08984375 -6981.97314453125 -2248.689453125 -6984.36181640625 -2244.572998046875 -6987.142578125 C -2240.49560546875 -6989.8974609375 -2236.6611328125 -6993.06103515625 -2233.176513671875 -6996.54541015625 C -2229.69189453125 -7000.0302734375 -2226.528076171875 -7003.86474609375 -2223.7734375 -7007.94189453125 C -2220.992431640625 -7012.05859375 -2218.60400390625 -7016.458984375 -2216.67431640625 -7021.021484375 C -2212.6591796875 -7030.513671875 -2210.62353515625 -7040.59814453125 -2210.62353515625 -7050.99365234375 L -2210.62353515625 -7185 C -2210.62353515625 -7195.3955078125 -2212.6591796875 -7205.47900390625 -2216.67431640625 -7214.97119140625 C -2218.60400390625 -7219.53369140625 -2220.992431640625 -7223.93408203125 -2223.7734375 -7228.05029296875 C -2226.528076171875 -7232.1279296875 -2229.69189453125 -7235.96240234375 -2233.176513671875 -7239.447265625 C -2236.6611328125 -7242.931640625 -2240.49560546875 -7246.09521484375 -2244.572998046875 -7248.85009765625 C -2248.689453125 -7251.630859375 -2253.08984375 -7254.01953125 -2257.652099609375 -7255.94921875 C -2267.14453125 -7259.96435546875 -2277.228271484375 -7262 -2287.62353515625 -7262 L -2788.000244140625 -7262 C -2798.3955078125 -7262 -2808.479248046875 -7259.96435546875 -2817.971435546875 -7255.94921875 C -2822.53369140625 -7254.01953125 -2826.934326171875 -7251.630859375 -2831.050537109375 -7248.85009765625 C -2835.128173828125 -7246.09521484375 -2838.96240234375 -7242.931640625 -2842.447265625 -7239.447265625 C -2845.931884765625 -7235.96240234375 -2849.095458984375 -7232.1279296875 -2851.850341796875 -7228.05029296875 C -2854.63134765625 -7223.93408203125 -2857.019775390625 -7219.53369140625 -2858.949462890625 -7214.97119140625 C -2862.964599609375 -7205.47900390625 -2865.000244140625 -7195.39501953125 -2865.000244140625 -7185 L -2865.000244140625 -7050.99365234375 C -2865.000244140625 -7040.59814453125 -2862.964599609375 -7030.513671875 -2858.949462890625 -7021.021484375 C -2857.019775390625 -7016.458984375 -2854.63134765625 -7012.05859375 -2851.850341796875 -7007.94189453125 C -2849.095458984375 -7003.86474609375 -2845.931884765625 -7000.0302734375 -2842.447265625 -6996.54541015625 C -2838.96240234375 -6993.06103515625 -2835.128173828125 -6989.8974609375 -2831.050537109375 -6987.142578125 C -2826.934326171875 -6984.36181640625 -2822.533935546875 -6981.97314453125 -2817.971435546875 -6980.04345703125 C -2808.479248046875 -6976.02880859375 -2798.3955078125 -6973.9931640625 -2788.000244140625 -6973.9931640625 L -2676.718994140625 -6973.9931640625 L -2699.715576171875 -6942.63427734375 M -2702.253173828125 -6940.865234375 L -2678.6923828125 -6972.9931640625 L -2788.000244140625 -6972.9931640625 C -2831.07763671875 -6972.9931640625 -2866.000244140625 -7007.9140625 -2866.000244140625 -7050.99365234375 L -2866.000244140625 -7185 C -2866.000244140625 -7228.07763671875 -2831.07763671875 -7263 -2788.000244140625 -7263 L -2287.62353515625 -7263 C -2244.5458984375 -7263 -2209.62353515625 -7228.07763671875 -2209.62353515625 -7185 L -2209.62353515625 -7050.99365234375 C -2209.62353515625 -7007.9140625 -2244.5458984375 -6972.9931640625 -2287.62353515625 -6972.9931640625 L -2590.38427734375 -6972.9931640625 L -2702.253173828125 -6940.865234375 Z" stroke="none"/>
        </g>
      </g>
      <g id="Union_4-6" data-name="Union 4" transform="translate(2893.625 7838.865)" fill="none">
        <path d="M -2700.984375 -6941.75 L -2678.2890625 -6972.697265625 L -2677.70556640625 -6973.4931640625 L -2678.6923828125 -6973.4931640625 L -2788.000244140625 -6973.4931640625 C -2793.2587890625 -6973.4931640625 -2798.513916015625 -6974.02294921875 -2803.61962890625 -6975.0673828125 C -2808.59521484375 -6976.0859375 -2813.489501953125 -6977.60498046875 -2818.166259765625 -6979.5830078125 C -2822.75830078125 -6981.525390625 -2827.1875 -6983.9296875 -2831.33056640625 -6986.728515625 C -2835.434326171875 -6989.5009765625 -2839.29345703125 -6992.68505859375 -2842.80078125 -6996.19189453125 C -2846.307861328125 -6999.69921875 -2849.491943359375 -7003.55859375 -2852.264404296875 -7007.662109375 C -2855.0634765625 -7011.80517578125 -2857.4677734375 -7016.234375 -2859.409912109375 -7020.82666015625 C -2861.38818359375 -7025.50341796875 -2862.907470703125 -7030.39794921875 -2863.92578125 -7035.37353515625 C -2864.970458984375 -7040.4794921875 -2865.500244140625 -7045.73486328125 -2865.500244140625 -7050.99365234375 L -2865.500244140625 -7185 C -2865.500244140625 -7190.25830078125 -2864.970458984375 -7195.513671875 -2863.92578125 -7200.619140625 C -2862.907470703125 -7205.59521484375 -2861.38818359375 -7210.4892578125 -2859.409912109375 -7215.166015625 C -2857.4677734375 -7219.75830078125 -2855.0634765625 -7224.1875 -2852.264404296875 -7228.33056640625 C -2849.491943359375 -7232.43408203125 -2846.307861328125 -7236.29345703125 -2842.80078125 -7239.80029296875 C -2839.29345703125 -7243.3076171875 -2835.434326171875 -7246.49169921875 -2831.33056640625 -7249.26416015625 C -2827.1875 -7252.0634765625 -2822.75830078125 -7254.4677734375 -2818.166259765625 -7256.40966796875 C -2813.4892578125 -7258.38818359375 -2808.59521484375 -7259.9072265625 -2803.61962890625 -7260.92529296875 C -2798.513916015625 -7261.97021484375 -2793.2587890625 -7262.5 -2788.000244140625 -7262.5 L -2287.62353515625 -7262.5 C -2282.364990234375 -7262.5 -2277.10986328125 -7261.97021484375 -2272.004150390625 -7260.92529296875 C -2267.028564453125 -7259.9072265625 -2262.13427734375 -7258.38818359375 -2257.45751953125 -7256.40966796875 C -2252.865234375 -7254.4677734375 -2248.436279296875 -7252.0634765625 -2244.293212890625 -7249.26416015625 C -2240.189208984375 -7246.49169921875 -2236.330078125 -7243.3076171875 -2232.822998046875 -7239.80029296875 C -2229.315673828125 -7236.29345703125 -2226.131591796875 -7232.43408203125 -2223.359130859375 -7228.33056640625 C -2220.56005859375 -7224.1875 -2218.156005859375 -7219.75830078125 -2216.2138671875 -7215.166015625 C -2214.235595703125 -7210.4892578125 -2212.71630859375 -7205.59521484375 -2211.697998046875 -7200.619140625 C -2210.6533203125 -7195.513671875 -2210.12353515625 -7190.25830078125 -2210.12353515625 -7185 L -2210.12353515625 -7050.99365234375 C -2210.12353515625 -7045.73486328125 -2210.6533203125 -7040.4794921875 -2211.697998046875 -7035.37353515625 C -2212.71630859375 -7030.39794921875 -2214.235595703125 -7025.50341796875 -2216.2138671875 -7020.82666015625 C -2218.156005859375 -7016.234375 -2220.56005859375 -7011.80517578125 -2223.359130859375 -7007.662109375 C -2226.131591796875 -7003.55859375 -2229.315673828125 -6999.69921875 -2232.822998046875 -6996.19189453125 C -2236.330078125 -6992.68505859375 -2240.189208984375 -6989.5009765625 -2244.293212890625 -6986.728515625 C -2248.436279296875 -6983.9296875 -2252.865234375 -6981.525390625 -2257.45751953125 -6979.5830078125 C -2262.13427734375 -6977.60498046875 -2267.028564453125 -6976.0859375 -2272.004150390625 -6975.0673828125 C -2277.10986328125 -6974.02294921875 -2282.364990234375 -6973.4931640625 -2287.62353515625 -6973.4931640625 L -2590.38427734375 -6973.4931640625 L -2590.45458984375 -6973.4931640625 L -2590.522216796875 -6973.4736328125 L -2700.984375 -6941.75 Z" stroke="none"/>
        <path d="M -2699.715576171875 -6942.63427734375 L -2590.52490234375 -6973.9931640625 L -2287.62353515625 -6973.9931640625 C -2277.228271484375 -6973.9931640625 -2267.14453125 -6976.02880859375 -2257.652099609375 -6980.04345703125 C -2253.08984375 -6981.97314453125 -2248.689453125 -6984.36181640625 -2244.572998046875 -6987.142578125 C -2240.49560546875 -6989.8974609375 -2236.6611328125 -6993.06103515625 -2233.176513671875 -6996.54541015625 C -2229.69189453125 -7000.0302734375 -2226.528076171875 -7003.86474609375 -2223.7734375 -7007.94189453125 C -2220.992431640625 -7012.05859375 -2218.60400390625 -7016.458984375 -2216.67431640625 -7021.021484375 C -2212.6591796875 -7030.513671875 -2210.62353515625 -7040.59814453125 -2210.62353515625 -7050.99365234375 L -2210.62353515625 -7185 C -2210.62353515625 -7195.3955078125 -2212.6591796875 -7205.47900390625 -2216.67431640625 -7214.97119140625 C -2218.60400390625 -7219.53369140625 -2220.992431640625 -7223.93408203125 -2223.7734375 -7228.05029296875 C -2226.528076171875 -7232.1279296875 -2229.69189453125 -7235.96240234375 -2233.176513671875 -7239.447265625 C -2236.6611328125 -7242.931640625 -2240.49560546875 -7246.09521484375 -2244.572998046875 -7248.85009765625 C -2248.689453125 -7251.630859375 -2253.08984375 -7254.01953125 -2257.652099609375 -7255.94921875 C -2267.14453125 -7259.96435546875 -2277.228271484375 -7262 -2287.62353515625 -7262 L -2788.000244140625 -7262 C -2798.3955078125 -7262 -2808.479248046875 -7259.96435546875 -2817.971435546875 -7255.94921875 C -2822.53369140625 -7254.01953125 -2826.934326171875 -7251.630859375 -2831.050537109375 -7248.85009765625 C -2835.128173828125 -7246.09521484375 -2838.96240234375 -7242.931640625 -2842.447265625 -7239.447265625 C -2845.931884765625 -7235.96240234375 -2849.095458984375 -7232.1279296875 -2851.850341796875 -7228.05029296875 C -2854.63134765625 -7223.93408203125 -2857.019775390625 -7219.53369140625 -2858.949462890625 -7214.97119140625 C -2862.964599609375 -7205.47900390625 -2865.000244140625 -7195.39501953125 -2865.000244140625 -7185 L -2865.000244140625 -7050.99365234375 C -2865.000244140625 -7040.59814453125 -2862.964599609375 -7030.513671875 -2858.949462890625 -7021.021484375 C -2857.019775390625 -7016.458984375 -2854.63134765625 -7012.05859375 -2851.850341796875 -7007.94189453125 C -2849.095458984375 -7003.86474609375 -2845.931884765625 -7000.0302734375 -2842.447265625 -6996.54541015625 C -2838.96240234375 -6993.06103515625 -2835.128173828125 -6989.8974609375 -2831.050537109375 -6987.142578125 C -2826.934326171875 -6984.36181640625 -2822.533935546875 -6981.97314453125 -2817.971435546875 -6980.04345703125 C -2808.479248046875 -6976.02880859375 -2798.3955078125 -6973.9931640625 -2788.000244140625 -6973.9931640625 L -2676.718994140625 -6973.9931640625 L -2699.715576171875 -6942.63427734375 M -2702.253173828125 -6940.865234375 L -2678.6923828125 -6972.9931640625 L -2788.000244140625 -6972.9931640625 C -2831.07763671875 -6972.9931640625 -2866.000244140625 -7007.9140625 -2866.000244140625 -7050.99365234375 L -2866.000244140625 -7185 C -2866.000244140625 -7228.07763671875 -2831.07763671875 -7263 -2788.000244140625 -7263 L -2287.62353515625 -7263 C -2244.5458984375 -7263 -2209.62353515625 -7228.07763671875 -2209.62353515625 -7185 L -2209.62353515625 -7050.99365234375 C -2209.62353515625 -7007.9140625 -2244.5458984375 -6972.9931640625 -2287.62353515625 -6972.9931640625 L -2590.38427734375 -6972.9931640625 L -2702.253173828125 -6940.865234375 Z" stroke="none" fill="#707070"/>
      </g>
    </g>
    <text id="I_can_tell_you_are_a_bit_sad._Let_s_create_a_comforting_space_with_soft_textures_and_warm_lighting_to_lift_your_spirits." data-name="I can tell you are a bit sad. Let’s create a comforting space with soft textures and warm lighting to lift your spirits." transform="translate(46 616.933)" fill="#527592" font-size="45" font-family="GillSans-SemiBold, Gill Sans" font-weight="600"><tspan x="0" y="42">I can tell you are a bit sad. Let’s </tspan><tspan x="0" y="95">create a comforting space with </tspan><tspan x="0" y="148">soft textures and warm lighting </tspan><tspan x="0" y="201">to lift your spirits.</tspan></text>
    <g id="Scroll_Group_1" data-name="Scroll Group 1" transform="translate(46 880)" clip-path="url(#clip-path)" style="isolation: isolate">
      <g id="Component_9_16" data-name="Component 9 – 16">
        <g id="Union_1" data-name="Union 1" fill="none">
          <path d="M0,215V85H.009C0,84.583,0,84.168,0,83.75,0,37.5,36.266,0,81,0s81,37.5,81,83.75c0,.418,0,.833-.009,1.249H162V215Z" stroke="none"/>
          <path d="M 157 210 L 157 89.99918365478516 L 156.9205932617188 89.99918365478516 L 156.9917144775391 84.92905426025391 C 156.9972229003906 84.53692626953125 157 84.14024353027344 157 83.74996185302734 C 157 73.09621429443359 154.9836273193359 62.76521301269531 151.0068511962891 53.04389953613281 C 149.0967864990234 48.37467956542969 146.7328491210938 43.87155532836914 143.9807434082031 39.65961837768555 C 141.2559661865234 35.48945999145508 138.1272888183594 31.5685863494873 134.6815948486328 28.00589942932129 C 131.2386932373047 24.44611740112305 127.4513092041016 21.21496200561523 123.4246597290039 18.4022102355957 C 119.3638763427734 15.56564903259277 115.0239715576172 13.12989902496338 110.5255661010742 11.1625862121582 C 101.1751556396484 7.073398590087891 91.24150085449219 4.999992370605469 81.00050354003906 4.999992370605469 C 70.75937652587891 4.999992370605469 60.8255615234375 7.073398590087891 51.47506332397461 11.1625862121582 C 46.9765625 13.12989902496338 42.63662338256836 15.56564903259277 38.57578277587891 18.40224266052246 C 34.5490608215332 21.21499252319336 30.76162528991699 24.44614791870117 27.31871795654297 28.00592994689941 C 23.87296867370605 31.56861686706543 20.74421882629395 35.4894905090332 18.01940536499023 39.65964889526367 C 15.2672815322876 43.87158584594727 12.90331268310547 48.37471008300781 10.99324989318848 53.04393005371094 C 7.016406059265137 62.76524353027344 5 73.09624481201172 5 83.74996185302734 C 5 84.14024353027344 5.002781391143799 84.53692626953125 5.008281230926514 84.92905426025391 L 5.079406261444092 89.99918365478516 L 5 89.99918365478516 L 5 210 L 157 210 M 162 215 L 0 215 L 0 84.99918365478516 L 0.008781249634921551 84.99918365478516 C 0.002937499899417162 84.58258819580078 0 84.16767883300781 0 83.74996185302734 C 0 37.49636840820312 36.265625 -7.62939453125e-06 81.00050354003906 -7.62939453125e-06 C 125.7348785400391 -7.62939453125e-06 162 37.49636840820312 162 83.74996185302734 C 162 84.16767883300781 161.9970550537109 84.58258819580078 161.9912261962891 84.99918365478516 L 162 84.99918365478516 L 162 215 Z" stroke="none" fill="#022c42"/>
        </g>
        <rect id="Rectangle_9" data-name="Rectangle 9" width="15" height="29" rx="5" transform="translate(111 46)" fill="#022c42"/>
        <path id="Union_2" data-name="Union 2" d="M.138,11.333H0V0H27V11.333h-.135C25.928,14.537,20.3,17,13.5,17S1.071,14.537.138,11.333Z" transform="translate(80 83)" fill="#022c42"/>
        <rect id="Rectangle_11" data-name="Rectangle 11" width="15" height="29" rx="5" transform="translate(61 46)" fill="#022c42"/>
      </g>
    </g>
  </g>
</svg>
