<svg xmlns="http://www.w3.org/2000/svg" xmlns:xlink="http://www.w3.org/1999/xlink" width="721.375" height="901" viewBox="0 0 721.375 901">
  <defs>
    <filter id="Union_4" x="0" y="324.865" width="721.375" height="375.134" filterUnits="userSpaceOnUse">
      <feOffset dy="3" input="SourceAlpha"/>
      <feGaussianBlur stdDeviation="3" result="blur"/>
      <feFlood flood-opacity="0.161"/>
      <feComposite operator="in" in2="blur"/>
    </filter>
    <filter id="Union_4-2" x="0" y="324.865" width="721.375" height="375.134" filterUnits="userSpaceOnUse">
      <feOffset dx="3" dy="3" input="SourceAlpha"/>
      <feGaussianBlur stdDeviation="2.5" result="blur-2"/>
      <feFlood flood-opacity="0.161" result="color"/>
      <feComposite operator="out" in="SourceGraphic" in2="blur-2"/>
      <feComposite operator="in" in="color"/>
      <feComposite operator="in" in2="SourceGraphic"/>
    </filter>
  </defs>
  <g id="outcome_fear" data-name="outcome fear" transform="translate(-12 -196)">
    <g id="Group_5" data-name="Group 5">
      <g id="Outcome_Fear-2" data-name="Outcome Fear" transform="translate(0.376 -14)">
        <g data-type="innerShadowGroup">
          <g transform="matrix(1, 0, 0, 1, 11.62, 210)" filter="url(#Union_4)">
            <g id="Union_4-3" data-name="Union 4" transform="translate(2875 7593.87)" fill="#fff">
              <path d="M -2689.282470703125 -6906.7578125 L -2664.87158203125 -6941.19384765625 L -2664.312255859375 -6941.98291015625 L -2665.279541015625 -6941.98291015625 L -2788.000244140625 -6941.98291015625 C -2793.2587890625 -6941.98291015625 -2798.513671875 -6942.5126953125 -2803.619384765625 -6943.5576171875 C -2808.59521484375 -6944.57568359375 -2813.4892578125 -6946.09521484375 -2818.166259765625 -6948.0732421875 C -2822.75830078125 -6950.015625 -2827.1875 -6952.41943359375 -2831.33056640625 -6955.21875 C -2835.434326171875 -6957.9912109375 -2839.29345703125 -6961.17529296875 -2842.80078125 -6964.6826171875 C -2846.307861328125 -6968.18994140625 -2849.491943359375 -6972.048828125 -2852.264404296875 -6976.15283203125 C -2855.0634765625 -6980.2958984375 -2857.4677734375 -6984.72509765625 -2859.409912109375 -6989.3173828125 C -2861.38818359375 -6993.994140625 -2862.907470703125 -6998.88818359375 -2863.92578125 -7003.8642578125 C -2864.970458984375 -7008.9697265625 -2865.500244140625 -7014.224609375 -2865.500244140625 -7019.4833984375 L -2865.500244140625 -7185 C -2865.500244140625 -7190.2587890625 -2864.970458984375 -7195.513671875 -2863.92578125 -7200.619140625 C -2862.907470703125 -7205.59521484375 -2861.38818359375 -7210.4892578125 -2859.409912109375 -7215.166015625 C -2857.4677734375 -7219.75830078125 -2855.0634765625 -7224.1875 -2852.264404296875 -7228.33056640625 C -2849.491943359375 -7232.43408203125 -2846.307861328125 -7236.29345703125 -2842.80078125 -7239.80078125 C -2839.29345703125 -7243.3076171875 -2835.434326171875 -7246.49169921875 -2831.33056640625 -7249.26416015625 C -2827.1875 -7252.0634765625 -2822.75830078125 -7254.46728515625 -2818.166259765625 -7256.40966796875 C -2813.4892578125 -7258.38818359375 -2808.59521484375 -7259.9072265625 -2803.619384765625 -7260.92529296875 C -2798.513671875 -7261.97021484375 -2793.2587890625 -7262.5 -2788.000244140625 -7262.5 L -2240.625244140625 -7262.5 C -2235.366455078125 -7262.5 -2230.111083984375 -7261.97021484375 -2225.00537109375 -7260.92529296875 C -2220.029541015625 -7259.9072265625 -2215.13525390625 -7258.38818359375 -2210.458251953125 -7256.40966796875 C -2205.8662109375 -7254.46728515625 -2201.43701171875 -7252.0634765625 -2197.2939453125 -7249.26416015625 C -2193.18994140625 -7246.49169921875 -2189.3310546875 -7243.3076171875 -2185.82373046875 -7239.80078125 C -2182.316650390625 -7236.29345703125 -2179.132568359375 -7232.43408203125 -2176.360107421875 -7228.33056640625 C -2173.561279296875 -7224.1875 -2171.1572265625 -7219.75830078125 -2169.21484375 -7215.166015625 C -2167.23681640625 -7210.4892578125 -2165.717529296875 -7205.59521484375 -2164.699462890625 -7200.619140625 C -2163.65478515625 -7195.513671875 -2163.125 -7190.2587890625 -2163.125 -7185 L -2163.125 -7019.4833984375 C -2163.125 -7014.224609375 -2163.65478515625 -7008.9697265625 -2164.699462890625 -7003.8642578125 C -2165.717529296875 -6998.88818359375 -2167.23681640625 -6993.994140625 -2169.21484375 -6989.3173828125 C -2171.1572265625 -6984.72509765625 -2173.561279296875 -6980.2958984375 -2176.360107421875 -6976.15283203125 C -2179.132568359375 -6972.048828125 -2182.316650390625 -6968.18994140625 -2185.823974609375 -6964.6826171875 C -2189.3310546875 -6961.17529296875 -2193.18994140625 -6957.9912109375 -2197.2939453125 -6955.21875 C -2201.43701171875 -6952.41943359375 -2205.8662109375 -6950.015625 -2210.458251953125 -6948.0732421875 C -2215.13525390625 -6946.09521484375 -2220.029541015625 -6944.57568359375 -2225.00537109375 -6943.5576171875 C -2230.111328125 -6942.5126953125 -2235.366455078125 -6941.98291015625 -2240.625244140625 -6941.98291015625 L -2570.647216796875 -6941.98291015625 L -2570.719970703125 -6941.98291015625 L -2570.78955078125 -6941.96240234375 L -2689.282470703125 -6906.7578125 Z" stroke="none"/>
              <path d="M -2688.037841796875 -6907.64892578125 L -2570.792724609375 -6942.48291015625 L -2240.625244140625 -6942.48291015625 C -2230.2294921875 -6942.48291015625 -2220.1455078125 -6944.5185546875 -2210.653076171875 -6948.53369140625 C -2206.090576171875 -6950.46337890625 -2201.690185546875 -6952.85205078125 -2197.573974609375 -6955.6328125 C -2193.496337890625 -6958.3876953125 -2189.662109375 -6961.55126953125 -2186.177490234375 -6965.0361328125 C -2182.69287109375 -6968.52099609375 -2179.529052734375 -6972.35498046875 -2176.7744140625 -6976.4326171875 C -2173.99365234375 -6980.54931640625 -2171.605224609375 -6984.94970703125 -2169.67529296875 -6989.51220703125 C -2165.66064453125 -6999.00439453125 -2163.625 -7009.087890625 -2163.625 -7019.4833984375 L -2163.625 -7185 C -2163.625 -7195.3955078125 -2165.66064453125 -7205.47900390625 -2169.67529296875 -7214.97119140625 C -2171.605224609375 -7219.53369140625 -2173.99365234375 -7223.93408203125 -2176.7744140625 -7228.05029296875 C -2179.529052734375 -7232.1279296875 -2182.69287109375 -7235.96240234375 -2186.177490234375 -7239.44677734375 C -2189.662109375 -7242.931640625 -2193.496337890625 -7246.09521484375 -2197.573974609375 -7248.85009765625 C -2201.690185546875 -7251.630859375 -2206.090576171875 -7254.01953125 -2210.653076171875 -7255.94921875 C -2220.1455078125 -7259.96435546875 -2230.2294921875 -7262 -2240.625244140625 -7262 L -2788.000244140625 -7262 C -2798.3955078125 -7262 -2808.479248046875 -7259.96435546875 -2817.971435546875 -7255.94921875 C -2822.53369140625 -7254.01953125 -2826.934326171875 -7251.630859375 -2831.050537109375 -7248.85009765625 C -2835.128173828125 -7246.09521484375 -2838.96240234375 -7242.931640625 -2842.447021484375 -7239.44677734375 C -2845.931884765625 -7235.96240234375 -2849.095458984375 -7232.1279296875 -2851.850341796875 -7228.05029296875 C -2854.63134765625 -7223.93408203125 -2857.019775390625 -7219.53369140625 -2858.949462890625 -7214.97119140625 C -2862.964599609375 -7205.47900390625 -2865.000244140625 -7195.39501953125 -2865.000244140625 -7185 L -2865.000244140625 -7019.4833984375 C -2865.000244140625 -7009.08837890625 -2862.964599609375 -6999.00439453125 -2858.949462890625 -6989.51220703125 C -2857.019775390625 -6984.94970703125 -2854.63134765625 -6980.54931640625 -2851.850341796875 -6976.4326171875 C -2849.095458984375 -6972.35498046875 -2845.931884765625 -6968.52099609375 -2842.447021484375 -6965.0361328125 C -2838.96240234375 -6961.55126953125 -2835.128173828125 -6958.3876953125 -2831.050537109375 -6955.6328125 C -2826.934326171875 -6952.85205078125 -2822.53369140625 -6950.46337890625 -2817.971435546875 -6948.53369140625 C -2808.479248046875 -6944.5185546875 -2798.3955078125 -6942.48291015625 -2788.000244140625 -6942.48291015625 L -2663.344970703125 -6942.48291015625 L -2688.037841796875 -6907.64892578125 M -2690.52734375 -6905.8662109375 L -2665.279541015625 -6941.48291015625 L -2788.000244140625 -6941.48291015625 C -2831.07763671875 -6941.48291015625 -2866.000244140625 -6976.40576171875 -2866.000244140625 -7019.4833984375 L -2866.000244140625 -7185 C -2866.000244140625 -7228.07763671875 -2831.07763671875 -7263 -2788.000244140625 -7263 L -2240.625244140625 -7263 C -2197.545654296875 -7263 -2162.625 -7228.07763671875 -2162.625 -7185 L -2162.625 -7019.4833984375 C -2162.625 -6976.40576171875 -2197.545654296875 -6941.48291015625 -2240.625244140625 -6941.48291015625 L -2570.647216796875 -6941.48291015625 L -2690.52734375 -6905.8662109375 Z" stroke="none" fill="#707070"/>
            </g>
          </g>
          <g id="Union_4-4" data-name="Union 4" transform="translate(2886.625 7803.865)" fill="#fff">
            <path d="M -2689.282470703125 -6906.7578125 L -2664.87158203125 -6941.19384765625 L -2664.312255859375 -6941.98291015625 L -2665.279541015625 -6941.98291015625 L -2788.000244140625 -6941.98291015625 C -2793.2587890625 -6941.98291015625 -2798.513671875 -6942.5126953125 -2803.619384765625 -6943.5576171875 C -2808.59521484375 -6944.57568359375 -2813.4892578125 -6946.09521484375 -2818.166259765625 -6948.0732421875 C -2822.75830078125 -6950.015625 -2827.1875 -6952.41943359375 -2831.33056640625 -6955.21875 C -2835.434326171875 -6957.9912109375 -2839.29345703125 -6961.17529296875 -2842.80078125 -6964.6826171875 C -2846.307861328125 -6968.18994140625 -2849.491943359375 -6972.048828125 -2852.264404296875 -6976.15283203125 C -2855.0634765625 -6980.2958984375 -2857.4677734375 -6984.72509765625 -2859.409912109375 -6989.3173828125 C -2861.38818359375 -6993.994140625 -2862.907470703125 -6998.88818359375 -2863.92578125 -7003.8642578125 C -2864.970458984375 -7008.9697265625 -2865.500244140625 -7014.224609375 -2865.500244140625 -7019.4833984375 L -2865.500244140625 -7185 C -2865.500244140625 -7190.2587890625 -2864.970458984375 -7195.513671875 -2863.92578125 -7200.619140625 C -2862.907470703125 -7205.59521484375 -2861.38818359375 -7210.4892578125 -2859.409912109375 -7215.166015625 C -2857.4677734375 -7219.75830078125 -2855.0634765625 -7224.1875 -2852.264404296875 -7228.33056640625 C -2849.491943359375 -7232.43408203125 -2846.307861328125 -7236.29345703125 -2842.80078125 -7239.80078125 C -2839.29345703125 -7243.3076171875 -2835.434326171875 -7246.49169921875 -2831.33056640625 -7249.26416015625 C -2827.1875 -7252.0634765625 -2822.75830078125 -7254.46728515625 -2818.166259765625 -7256.40966796875 C -2813.4892578125 -7258.38818359375 -2808.59521484375 -7259.9072265625 -2803.619384765625 -7260.92529296875 C -2798.513671875 -7261.97021484375 -2793.2587890625 -7262.5 -2788.000244140625 -7262.5 L -2240.625244140625 -7262.5 C -2235.366455078125 -7262.5 -2230.111083984375 -7261.97021484375 -2225.00537109375 -7260.92529296875 C -2220.029541015625 -7259.9072265625 -2215.13525390625 -7258.38818359375 -2210.458251953125 -7256.40966796875 C -2205.8662109375 -7254.46728515625 -2201.43701171875 -7252.0634765625 -2197.2939453125 -7249.26416015625 C -2193.18994140625 -7246.49169921875 -2189.3310546875 -7243.3076171875 -2185.82373046875 -7239.80078125 C -2182.316650390625 -7236.29345703125 -2179.132568359375 -7232.43408203125 -2176.360107421875 -7228.33056640625 C -2173.561279296875 -7224.1875 -2171.1572265625 -7219.75830078125 -2169.21484375 -7215.166015625 C -2167.23681640625 -7210.4892578125 -2165.717529296875 -7205.59521484375 -2164.699462890625 -7200.619140625 C -2163.65478515625 -7195.513671875 -2163.125 -7190.2587890625 -2163.125 -7185 L -2163.125 -7019.4833984375 C -2163.125 -7014.224609375 -2163.65478515625 -7008.9697265625 -2164.699462890625 -7003.8642578125 C -2165.717529296875 -6998.88818359375 -2167.23681640625 -6993.994140625 -2169.21484375 -6989.3173828125 C -2171.1572265625 -6984.72509765625 -2173.561279296875 -6980.2958984375 -2176.360107421875 -6976.15283203125 C -2179.132568359375 -6972.048828125 -2182.316650390625 -6968.18994140625 -2185.823974609375 -6964.6826171875 C -2189.3310546875 -6961.17529296875 -2193.18994140625 -6957.9912109375 -2197.2939453125 -6955.21875 C -2201.43701171875 -6952.41943359375 -2205.8662109375 -6950.015625 -2210.458251953125 -6948.0732421875 C -2215.13525390625 -6946.09521484375 -2220.029541015625 -6944.57568359375 -2225.00537109375 -6943.5576171875 C -2230.111328125 -6942.5126953125 -2235.366455078125 -6941.98291015625 -2240.625244140625 -6941.98291015625 L -2570.647216796875 -6941.98291015625 L -2570.719970703125 -6941.98291015625 L -2570.78955078125 -6941.96240234375 L -2689.282470703125 -6906.7578125 Z" stroke="none"/>
            <path d="M -2688.037841796875 -6907.64892578125 L -2570.792724609375 -6942.48291015625 L -2240.625244140625 -6942.48291015625 C -2230.2294921875 -6942.48291015625 -2220.1455078125 -6944.5185546875 -2210.653076171875 -6948.53369140625 C -2206.090576171875 -6950.46337890625 -2201.690185546875 -6952.85205078125 -2197.573974609375 -6955.6328125 C -2193.496337890625 -6958.3876953125 -2189.662109375 -6961.55126953125 -2186.177490234375 -6965.0361328125 C -2182.69287109375 -6968.52099609375 -2179.529052734375 -6972.35498046875 -2176.7744140625 -6976.4326171875 C -2173.99365234375 -6980.54931640625 -2171.605224609375 -6984.94970703125 -2169.67529296875 -6989.51220703125 C -2165.66064453125 -6999.00439453125 -2163.625 -7009.087890625 -2163.625 -7019.4833984375 L -2163.625 -7185 C -2163.625 -7195.3955078125 -2165.66064453125 -7205.47900390625 -2169.67529296875 -7214.97119140625 C -2171.605224609375 -7219.53369140625 -2173.99365234375 -7223.93408203125 -2176.7744140625 -7228.05029296875 C -2179.529052734375 -7232.1279296875 -2182.69287109375 -7235.96240234375 -2186.177490234375 -7239.44677734375 C -2189.662109375 -7242.931640625 -2193.496337890625 -7246.09521484375 -2197.573974609375 -7248.85009765625 C -2201.690185546875 -7251.630859375 -2206.090576171875 -7254.01953125 -2210.653076171875 -7255.94921875 C -2220.1455078125 -7259.96435546875 -2230.2294921875 -7262 -2240.625244140625 -7262 L -2788.000244140625 -7262 C -2798.3955078125 -7262 -2808.479248046875 -7259.96435546875 -2817.971435546875 -7255.94921875 C -2822.53369140625 -7254.01953125 -2826.934326171875 -7251.630859375 -2831.050537109375 -7248.85009765625 C -2835.128173828125 -7246.09521484375 -2838.96240234375 -7242.931640625 -2842.447021484375 -7239.44677734375 C -2845.931884765625 -7235.96240234375 -2849.095458984375 -7232.1279296875 -2851.850341796875 -7228.05029296875 C -2854.63134765625 -7223.93408203125 -2857.019775390625 -7219.53369140625 -2858.949462890625 -7214.97119140625 C -2862.964599609375 -7205.47900390625 -2865.000244140625 -7195.39501953125 -2865.000244140625 -7185 L -2865.000244140625 -7019.4833984375 C -2865.000244140625 -7009.08837890625 -2862.964599609375 -6999.00439453125 -2858.949462890625 -6989.51220703125 C -2857.019775390625 -6984.94970703125 -2854.63134765625 -6980.54931640625 -2851.850341796875 -6976.4326171875 C -2849.095458984375 -6972.35498046875 -2845.931884765625 -6968.52099609375 -2842.447021484375 -6965.0361328125 C -2838.96240234375 -6961.55126953125 -2835.128173828125 -6958.3876953125 -2831.050537109375 -6955.6328125 C -2826.934326171875 -6952.85205078125 -2822.53369140625 -6950.46337890625 -2817.971435546875 -6948.53369140625 C -2808.479248046875 -6944.5185546875 -2798.3955078125 -6942.48291015625 -2788.000244140625 -6942.48291015625 L -2663.344970703125 -6942.48291015625 L -2688.037841796875 -6907.64892578125 M -2690.52734375 -6905.8662109375 L -2665.279541015625 -6941.48291015625 L -2788.000244140625 -6941.48291015625 C -2831.07763671875 -6941.48291015625 -2866.000244140625 -6976.40576171875 -2866.000244140625 -7019.4833984375 L -2866.000244140625 -7185 C -2866.000244140625 -7228.07763671875 -2831.07763671875 -7263 -2788.000244140625 -7263 L -2240.625244140625 -7263 C -2197.545654296875 -7263 -2162.625 -7228.07763671875 -2162.625 -7185 L -2162.625 -7019.4833984375 C -2162.625 -6976.40576171875 -2197.545654296875 -6941.48291015625 -2240.625244140625 -6941.48291015625 L -2570.647216796875 -6941.48291015625 L -2690.52734375 -6905.8662109375 Z" stroke="none"/>
          </g>
          <g transform="matrix(1, 0, 0, 1, 11.62, 210)" filter="url(#Union_4-2)">
            <g id="Union_4-5" data-name="Union 4" transform="translate(2875 7593.87)" fill="#fff">
              <path d="M -2689.282470703125 -6906.7578125 L -2664.87158203125 -6941.19384765625 L -2664.312255859375 -6941.98291015625 L -2665.279541015625 -6941.98291015625 L -2788.000244140625 -6941.98291015625 C -2793.2587890625 -6941.98291015625 -2798.513671875 -6942.5126953125 -2803.619384765625 -6943.5576171875 C -2808.59521484375 -6944.57568359375 -2813.4892578125 -6946.09521484375 -2818.166259765625 -6948.0732421875 C -2822.75830078125 -6950.015625 -2827.1875 -6952.41943359375 -2831.33056640625 -6955.21875 C -2835.434326171875 -6957.9912109375 -2839.29345703125 -6961.17529296875 -2842.80078125 -6964.6826171875 C -2846.307861328125 -6968.18994140625 -2849.491943359375 -6972.048828125 -2852.264404296875 -6976.15283203125 C -2855.0634765625 -6980.2958984375 -2857.4677734375 -6984.72509765625 -2859.409912109375 -6989.3173828125 C -2861.38818359375 -6993.994140625 -2862.907470703125 -6998.88818359375 -2863.92578125 -7003.8642578125 C -2864.970458984375 -7008.9697265625 -2865.500244140625 -7014.224609375 -2865.500244140625 -7019.4833984375 L -2865.500244140625 -7185 C -2865.500244140625 -7190.2587890625 -2864.970458984375 -7195.513671875 -2863.92578125 -7200.619140625 C -2862.907470703125 -7205.59521484375 -2861.38818359375 -7210.4892578125 -2859.409912109375 -7215.166015625 C -2857.4677734375 -7219.75830078125 -2855.0634765625 -7224.1875 -2852.264404296875 -7228.33056640625 C -2849.491943359375 -7232.43408203125 -2846.307861328125 -7236.29345703125 -2842.80078125 -7239.80078125 C -2839.29345703125 -7243.3076171875 -2835.434326171875 -7246.49169921875 -2831.33056640625 -7249.26416015625 C -2827.1875 -7252.0634765625 -2822.75830078125 -7254.46728515625 -2818.166259765625 -7256.40966796875 C -2813.4892578125 -7258.38818359375 -2808.59521484375 -7259.9072265625 -2803.619384765625 -7260.92529296875 C -2798.513671875 -7261.97021484375 -2793.2587890625 -7262.5 -2788.000244140625 -7262.5 L -2240.625244140625 -7262.5 C -2235.366455078125 -7262.5 -2230.111083984375 -7261.97021484375 -2225.00537109375 -7260.92529296875 C -2220.029541015625 -7259.9072265625 -2215.13525390625 -7258.38818359375 -2210.458251953125 -7256.40966796875 C -2205.8662109375 -7254.46728515625 -2201.43701171875 -7252.0634765625 -2197.2939453125 -7249.26416015625 C -2193.18994140625 -7246.49169921875 -2189.3310546875 -7243.3076171875 -2185.82373046875 -7239.80078125 C -2182.316650390625 -7236.29345703125 -2179.132568359375 -7232.43408203125 -2176.360107421875 -7228.33056640625 C -2173.561279296875 -7224.1875 -2171.1572265625 -7219.75830078125 -2169.21484375 -7215.166015625 C -2167.23681640625 -7210.4892578125 -2165.717529296875 -7205.59521484375 -2164.699462890625 -7200.619140625 C -2163.65478515625 -7195.513671875 -2163.125 -7190.2587890625 -2163.125 -7185 L -2163.125 -7019.4833984375 C -2163.125 -7014.224609375 -2163.65478515625 -7008.9697265625 -2164.699462890625 -7003.8642578125 C -2165.717529296875 -6998.88818359375 -2167.23681640625 -6993.994140625 -2169.21484375 -6989.3173828125 C -2171.1572265625 -6984.72509765625 -2173.561279296875 -6980.2958984375 -2176.360107421875 -6976.15283203125 C -2179.132568359375 -6972.048828125 -2182.316650390625 -6968.18994140625 -2185.823974609375 -6964.6826171875 C -2189.3310546875 -6961.17529296875 -2193.18994140625 -6957.9912109375 -2197.2939453125 -6955.21875 C -2201.43701171875 -6952.41943359375 -2205.8662109375 -6950.015625 -2210.458251953125 -6948.0732421875 C -2215.13525390625 -6946.09521484375 -2220.029541015625 -6944.57568359375 -2225.00537109375 -6943.5576171875 C -2230.111328125 -6942.5126953125 -2235.366455078125 -6941.98291015625 -2240.625244140625 -6941.98291015625 L -2570.647216796875 -6941.98291015625 L -2570.719970703125 -6941.98291015625 L -2570.78955078125 -6941.96240234375 L -2689.282470703125 -6906.7578125 Z" stroke="none"/>
              <path d="M -2688.037841796875 -6907.64892578125 L -2570.792724609375 -6942.48291015625 L -2240.625244140625 -6942.48291015625 C -2230.2294921875 -6942.48291015625 -2220.1455078125 -6944.5185546875 -2210.653076171875 -6948.53369140625 C -2206.090576171875 -6950.46337890625 -2201.690185546875 -6952.85205078125 -2197.573974609375 -6955.6328125 C -2193.496337890625 -6958.3876953125 -2189.662109375 -6961.55126953125 -2186.177490234375 -6965.0361328125 C -2182.69287109375 -6968.52099609375 -2179.529052734375 -6972.35498046875 -2176.7744140625 -6976.4326171875 C -2173.99365234375 -6980.54931640625 -2171.605224609375 -6984.94970703125 -2169.67529296875 -6989.51220703125 C -2165.66064453125 -6999.00439453125 -2163.625 -7009.087890625 -2163.625 -7019.4833984375 L -2163.625 -7185 C -2163.625 -7195.3955078125 -2165.66064453125 -7205.47900390625 -2169.67529296875 -7214.97119140625 C -2171.605224609375 -7219.53369140625 -2173.99365234375 -7223.93408203125 -2176.7744140625 -7228.05029296875 C -2179.529052734375 -7232.1279296875 -2182.69287109375 -7235.96240234375 -2186.177490234375 -7239.44677734375 C -2189.662109375 -7242.931640625 -2193.496337890625 -7246.09521484375 -2197.573974609375 -7248.85009765625 C -2201.690185546875 -7251.630859375 -2206.090576171875 -7254.01953125 -2210.653076171875 -7255.94921875 C -2220.1455078125 -7259.96435546875 -2230.2294921875 -7262 -2240.625244140625 -7262 L -2788.000244140625 -7262 C -2798.3955078125 -7262 -2808.479248046875 -7259.96435546875 -2817.971435546875 -7255.94921875 C -2822.53369140625 -7254.01953125 -2826.934326171875 -7251.630859375 -2831.050537109375 -7248.85009765625 C -2835.128173828125 -7246.09521484375 -2838.96240234375 -7242.931640625 -2842.447021484375 -7239.44677734375 C -2845.931884765625 -7235.96240234375 -2849.095458984375 -7232.1279296875 -2851.850341796875 -7228.05029296875 C -2854.63134765625 -7223.93408203125 -2857.019775390625 -7219.53369140625 -2858.949462890625 -7214.97119140625 C -2862.964599609375 -7205.47900390625 -2865.000244140625 -7195.39501953125 -2865.000244140625 -7185 L -2865.000244140625 -7019.4833984375 C -2865.000244140625 -7009.08837890625 -2862.964599609375 -6999.00439453125 -2858.949462890625 -6989.51220703125 C -2857.019775390625 -6984.94970703125 -2854.63134765625 -6980.54931640625 -2851.850341796875 -6976.4326171875 C -2849.095458984375 -6972.35498046875 -2845.931884765625 -6968.52099609375 -2842.447021484375 -6965.0361328125 C -2838.96240234375 -6961.55126953125 -2835.128173828125 -6958.3876953125 -2831.050537109375 -6955.6328125 C -2826.934326171875 -6952.85205078125 -2822.53369140625 -6950.46337890625 -2817.971435546875 -6948.53369140625 C -2808.479248046875 -6944.5185546875 -2798.3955078125 -6942.48291015625 -2788.000244140625 -6942.48291015625 L -2663.344970703125 -6942.48291015625 L -2688.037841796875 -6907.64892578125 M -2690.52734375 -6905.8662109375 L -2665.279541015625 -6941.48291015625 L -2788.000244140625 -6941.48291015625 C -2831.07763671875 -6941.48291015625 -2866.000244140625 -6976.40576171875 -2866.000244140625 -7019.4833984375 L -2866.000244140625 -7185 C -2866.000244140625 -7228.07763671875 -2831.07763671875 -7263 -2788.000244140625 -7263 L -2240.625244140625 -7263 C -2197.545654296875 -7263 -2162.625 -7228.07763671875 -2162.625 -7185 L -2162.625 -7019.4833984375 C -2162.625 -6976.40576171875 -2197.545654296875 -6941.48291015625 -2240.625244140625 -6941.48291015625 L -2570.647216796875 -6941.48291015625 L -2690.52734375 -6905.8662109375 Z" stroke="none"/>
            </g>
          </g>
          <g id="Union_4-6" data-name="Union 4" transform="translate(2886.625 7803.865)" fill="none">
            <path d="M -2689.282470703125 -6906.7578125 L -2664.87158203125 -6941.19384765625 L -2664.312255859375 -6941.98291015625 L -2665.279541015625 -6941.98291015625 L -2788.000244140625 -6941.98291015625 C -2793.2587890625 -6941.98291015625 -2798.513671875 -6942.5126953125 -2803.619384765625 -6943.5576171875 C -2808.59521484375 -6944.57568359375 -2813.4892578125 -6946.09521484375 -2818.166259765625 -6948.0732421875 C -2822.75830078125 -6950.015625 -2827.1875 -6952.41943359375 -2831.33056640625 -6955.21875 C -2835.434326171875 -6957.9912109375 -2839.29345703125 -6961.17529296875 -2842.80078125 -6964.6826171875 C -2846.307861328125 -6968.18994140625 -2849.491943359375 -6972.048828125 -2852.264404296875 -6976.15283203125 C -2855.0634765625 -6980.2958984375 -2857.4677734375 -6984.72509765625 -2859.409912109375 -6989.3173828125 C -2861.38818359375 -6993.994140625 -2862.907470703125 -6998.88818359375 -2863.92578125 -7003.8642578125 C -2864.970458984375 -7008.9697265625 -2865.500244140625 -7014.224609375 -2865.500244140625 -7019.4833984375 L -2865.500244140625 -7185 C -2865.500244140625 -7190.2587890625 -2864.970458984375 -7195.513671875 -2863.92578125 -7200.619140625 C -2862.907470703125 -7205.59521484375 -2861.38818359375 -7210.4892578125 -2859.409912109375 -7215.166015625 C -2857.4677734375 -7219.75830078125 -2855.0634765625 -7224.1875 -2852.264404296875 -7228.33056640625 C -2849.491943359375 -7232.43408203125 -2846.307861328125 -7236.29345703125 -2842.80078125 -7239.80078125 C -2839.29345703125 -7243.3076171875 -2835.434326171875 -7246.49169921875 -2831.33056640625 -7249.26416015625 C -2827.1875 -7252.0634765625 -2822.75830078125 -7254.46728515625 -2818.166259765625 -7256.40966796875 C -2813.4892578125 -7258.38818359375 -2808.59521484375 -7259.9072265625 -2803.619384765625 -7260.92529296875 C -2798.513671875 -7261.97021484375 -2793.2587890625 -7262.5 -2788.000244140625 -7262.5 L -2240.625244140625 -7262.5 C -2235.366455078125 -7262.5 -2230.111083984375 -7261.97021484375 -2225.00537109375 -7260.92529296875 C -2220.029541015625 -7259.9072265625 -2215.13525390625 -7258.38818359375 -2210.458251953125 -7256.40966796875 C -2205.8662109375 -7254.46728515625 -2201.43701171875 -7252.0634765625 -2197.2939453125 -7249.26416015625 C -2193.18994140625 -7246.49169921875 -2189.3310546875 -7243.3076171875 -2185.82373046875 -7239.80078125 C -2182.316650390625 -7236.29345703125 -2179.132568359375 -7232.43408203125 -2176.360107421875 -7228.33056640625 C -2173.561279296875 -7224.1875 -2171.1572265625 -7219.75830078125 -2169.21484375 -7215.166015625 C -2167.23681640625 -7210.4892578125 -2165.717529296875 -7205.59521484375 -2164.699462890625 -7200.619140625 C -2163.65478515625 -7195.513671875 -2163.125 -7190.2587890625 -2163.125 -7185 L -2163.125 -7019.4833984375 C -2163.125 -7014.224609375 -2163.65478515625 -7008.9697265625 -2164.699462890625 -7003.8642578125 C -2165.717529296875 -6998.88818359375 -2167.23681640625 -6993.994140625 -2169.21484375 -6989.3173828125 C -2171.1572265625 -6984.72509765625 -2173.561279296875 -6980.2958984375 -2176.360107421875 -6976.15283203125 C -2179.132568359375 -6972.048828125 -2182.316650390625 -6968.18994140625 -2185.823974609375 -6964.6826171875 C -2189.3310546875 -6961.17529296875 -2193.18994140625 -6957.9912109375 -2197.2939453125 -6955.21875 C -2201.43701171875 -6952.41943359375 -2205.8662109375 -6950.015625 -2210.458251953125 -6948.0732421875 C -2215.13525390625 -6946.09521484375 -2220.029541015625 -6944.57568359375 -2225.00537109375 -6943.5576171875 C -2230.111328125 -6942.5126953125 -2235.366455078125 -6941.98291015625 -2240.625244140625 -6941.98291015625 L -2570.647216796875 -6941.98291015625 L -2570.719970703125 -6941.98291015625 L -2570.78955078125 -6941.96240234375 L -2689.282470703125 -6906.7578125 Z" stroke="none"/>
            <path d="M -2688.037841796875 -6907.64892578125 L -2570.792724609375 -6942.48291015625 L -2240.625244140625 -6942.48291015625 C -2230.2294921875 -6942.48291015625 -2220.1455078125 -6944.5185546875 -2210.653076171875 -6948.53369140625 C -2206.090576171875 -6950.46337890625 -2201.690185546875 -6952.85205078125 -2197.573974609375 -6955.6328125 C -2193.496337890625 -6958.3876953125 -2189.662109375 -6961.55126953125 -2186.177490234375 -6965.0361328125 C -2182.69287109375 -6968.52099609375 -2179.529052734375 -6972.35498046875 -2176.7744140625 -6976.4326171875 C -2173.99365234375 -6980.54931640625 -2171.605224609375 -6984.94970703125 -2169.67529296875 -6989.51220703125 C -2165.66064453125 -6999.00439453125 -2163.625 -7009.087890625 -2163.625 -7019.4833984375 L -2163.625 -7185 C -2163.625 -7195.3955078125 -2165.66064453125 -7205.47900390625 -2169.67529296875 -7214.97119140625 C -2171.605224609375 -7219.53369140625 -2173.99365234375 -7223.93408203125 -2176.7744140625 -7228.05029296875 C -2179.529052734375 -7232.1279296875 -2182.69287109375 -7235.96240234375 -2186.177490234375 -7239.44677734375 C -2189.662109375 -7242.931640625 -2193.496337890625 -7246.09521484375 -2197.573974609375 -7248.85009765625 C -2201.690185546875 -7251.630859375 -2206.090576171875 -7254.01953125 -2210.653076171875 -7255.94921875 C -2220.1455078125 -7259.96435546875 -2230.2294921875 -7262 -2240.625244140625 -7262 L -2788.000244140625 -7262 C -2798.3955078125 -7262 -2808.479248046875 -7259.96435546875 -2817.971435546875 -7255.94921875 C -2822.53369140625 -7254.01953125 -2826.934326171875 -7251.630859375 -2831.050537109375 -7248.85009765625 C -2835.128173828125 -7246.09521484375 -2838.96240234375 -7242.931640625 -2842.447021484375 -7239.44677734375 C -2845.931884765625 -7235.96240234375 -2849.095458984375 -7232.1279296875 -2851.850341796875 -7228.05029296875 C -2854.63134765625 -7223.93408203125 -2857.019775390625 -7219.53369140625 -2858.949462890625 -7214.97119140625 C -2862.964599609375 -7205.47900390625 -2865.000244140625 -7195.39501953125 -2865.000244140625 -7185 L -2865.000244140625 -7019.4833984375 C -2865.000244140625 -7009.08837890625 -2862.964599609375 -6999.00439453125 -2858.949462890625 -6989.51220703125 C -2857.019775390625 -6984.94970703125 -2854.63134765625 -6980.54931640625 -2851.850341796875 -6976.4326171875 C -2849.095458984375 -6972.35498046875 -2845.931884765625 -6968.52099609375 -2842.447021484375 -6965.0361328125 C -2838.96240234375 -6961.55126953125 -2835.128173828125 -6958.3876953125 -2831.050537109375 -6955.6328125 C -2826.934326171875 -6952.85205078125 -2822.53369140625 -6950.46337890625 -2817.971435546875 -6948.53369140625 C -2808.479248046875 -6944.5185546875 -2798.3955078125 -6942.48291015625 -2788.000244140625 -6942.48291015625 L -2663.344970703125 -6942.48291015625 L -2688.037841796875 -6907.64892578125 M -2690.52734375 -6905.8662109375 L -2665.279541015625 -6941.48291015625 L -2788.000244140625 -6941.48291015625 C -2831.07763671875 -6941.48291015625 -2866.000244140625 -6976.40576171875 -2866.000244140625 -7019.4833984375 L -2866.000244140625 -7185 C -2866.000244140625 -7228.07763671875 -2831.07763671875 -7263 -2788.000244140625 -7263 L -2240.625244140625 -7263 C -2197.545654296875 -7263 -2162.625 -7228.07763671875 -2162.625 -7185 L -2162.625 -7019.4833984375 C -2162.625 -6976.40576171875 -2197.545654296875 -6941.48291015625 -2240.625244140625 -6941.48291015625 L -2570.647216796875 -6941.48291015625 L -2690.52734375 -6905.8662109375 Z" stroke="none" fill="#707070"/>
          </g>
        </g>
        <text id="I_sense_a_bit_of_fear._No_worries_we_can_transform_this_space_into_a_comforting_haven_perhaps_with_soft_lighting_and_warm_colors_to_ease_your_mind." data-name="I sense a bit of fear. No worries, we can transform this space into a comforting haven, perhaps with soft lighting and warm colors to ease your mind." transform="translate(46 568)" fill="#527592" font-size="45" font-family="GillSans-SemiBold, Gill Sans" font-weight="600"><tspan x="0" y="42">I sense a bit of fear. No worries, </tspan><tspan x="0" y="95">we can transform this space into </tspan><tspan x="0" y="148">a comforting haven, perhaps with </tspan><tspan x="0" y="201">soft lighting and warm colors to </tspan><tspan x="0" y="254">ease your mind.</tspan></text>
        <g id="Group_4" data-name="Group 4" transform="translate(-12 -7)">
          <circle id="Ellipse_71" data-name="Ellipse 71" cx="100.5" cy="100.5" r="100.5" transform="translate(296 217)" fill="#070101" opacity="0.183"/>
          <g id="Ellipse_11" data-name="Ellipse 11" transform="translate(305 226)" fill="#fff" stroke="#707070" stroke-width="1">
            <circle cx="91.5" cy="91.5" r="91.5" stroke="none"/>
            <circle cx="91.5" cy="91.5" r="91" fill="none"/>
          </g>
          <ellipse id="Ellipse_12" data-name="Ellipse 12" cx="12.5" cy="13" rx="12.5" ry="13" transform="translate(421.053 284.219)" fill="#070101"/>
          <circle id="Ellipse_13" data-name="Ellipse 13" cx="13" cy="13" r="13" transform="translate(344.676 284.219)" fill="#070101"/>
          <circle id="Ellipse_14" data-name="Ellipse 14" cx="16.5" cy="16.5" r="16.5" transform="translate(381.167 333.667)" fill="#070101"/>
          <rect id="Rectangle_18" data-name="Rectangle 18" width="12.761" height="38.283" rx="5" transform="translate(424.119 276.978) rotate(-45)" fill="#070101"/>
          <rect id="Rectangle_19" data-name="Rectangle 19" width="12.761" height="38.283" rx="5" transform="matrix(0.656, 0.755, -0.755, 0.656, 357.781, 268.672)" fill="#070101"/>
          <g id="Ellipse_19" data-name="Ellipse 19" transform="translate(305 226)" fill="#747474" stroke="#707070" stroke-width="1">
            <circle cx="91.5" cy="91.5" r="91.5" stroke="none"/>
            <circle cx="91.5" cy="91.5" r="91" fill="none"/>
          </g>
          <ellipse id="Ellipse_20" data-name="Ellipse 20" cx="12.5" cy="13" rx="12.5" ry="13" transform="translate(421.053 284.219)" fill="#070101"/>
          <circle id="Ellipse_21" data-name="Ellipse 21" cx="13" cy="13" r="13" transform="translate(344.676 284.219)" fill="#070101"/>
          <ellipse id="Ellipse_22" data-name="Ellipse 22" cx="27.5" cy="15.5" rx="27.5" ry="15.5" transform="translate(370.197 332.274)" fill="#070101"/>
          <rect id="Rectangle_22" data-name="Rectangle 22" width="12.761" height="38.283" rx="5" transform="translate(424.119 276.978) rotate(-45)" fill="#070101"/>
          <rect id="Rectangle_23" data-name="Rectangle 23" width="12.761" height="38.283" rx="5" transform="matrix(0.656, 0.755, -0.755, 0.656, 357.781, 268.672)" fill="#070101"/>
        </g>
        <text id="Fear" transform="translate(321 397)" fill="#030101" font-size="70" font-family="GillSans-SemiBold, Gill Sans" font-weight="600"><tspan x="0" y="66">Fear</tspan></text>
      </g>
      <g id="Component_9_18" data-name="Component 9 – 18" transform="translate(21 882)">
        <g id="Union_1" data-name="Union 1" fill="none">
          <path d="M0,215V85H.009C0,84.583,0,84.168,0,83.75,0,37.5,36.266,0,81,0s81,37.5,81,83.75c0,.418,0,.833-.009,1.249H162V215Z" stroke="none"/>
          <path d="M 157 210 L 157 89.99918365478516 L 156.9205932617188 89.99918365478516 L 156.9917144775391 84.92905426025391 C 156.9972229003906 84.53692626953125 157 84.14024353027344 157 83.74996185302734 C 157 73.09621429443359 154.9836273193359 62.76521301269531 151.0068511962891 53.04389953613281 C 149.0967864990234 48.37467956542969 146.7328491210938 43.87155532836914 143.9807434082031 39.65961837768555 C 141.2559661865234 35.48945999145508 138.1272888183594 31.5685863494873 134.6815948486328 28.00589942932129 C 131.2386932373047 24.44611740112305 127.4513092041016 21.21496200561523 123.4246597290039 18.4022102355957 C 119.3638763427734 15.56564903259277 115.0239715576172 13.12989902496338 110.5255661010742 11.1625862121582 C 101.1751556396484 7.073398590087891 91.24150085449219 4.999992370605469 81.00050354003906 4.999992370605469 C 70.75937652587891 4.999992370605469 60.8255615234375 7.073398590087891 51.47506332397461 11.1625862121582 C 46.9765625 13.12989902496338 42.63662338256836 15.56564903259277 38.57578277587891 18.40224266052246 C 34.5490608215332 21.21499252319336 30.76162528991699 24.44614791870117 27.31871795654297 28.00592994689941 C 23.87296867370605 31.56861686706543 20.74421882629395 35.4894905090332 18.01940536499023 39.65964889526367 C 15.2672815322876 43.87158584594727 12.90331268310547 48.37471008300781 10.99324989318848 53.04393005371094 C 7.016406059265137 62.76524353027344 5 73.09624481201172 5 83.74996185302734 C 5 84.14024353027344 5.002781391143799 84.53692626953125 5.008281230926514 84.92905426025391 L 5.079406261444092 89.99918365478516 L 5 89.99918365478516 L 5 210 L 157 210 M 162 215 L 0 215 L 0 84.99918365478516 L 0.008781249634921551 84.99918365478516 C 0.002937499899417162 84.58258819580078 0 84.16767883300781 0 83.74996185302734 C 0 37.49636840820312 36.265625 -7.62939453125e-06 81.00050354003906 -7.62939453125e-06 C 125.7348785400391 -7.62939453125e-06 162 37.49636840820312 162 83.74996185302734 C 162 84.16767883300781 161.9970550537109 84.58258819580078 161.9912261962891 84.99918365478516 L 162 84.99918365478516 L 162 215 Z" stroke="none" fill="#022c42"/>
        </g>
        <rect id="Rectangle_9" data-name="Rectangle 9" width="15" height="29" rx="5" transform="translate(111 46)" fill="#022c42"/>
        <path id="Union_2" data-name="Union 2" d="M.138,11.333H0V0H27V11.333h-.135C25.928,14.537,20.3,17,13.5,17S1.071,14.537.138,11.333Z" transform="translate(80 83)" fill="#022c42"/>
        <rect id="Rectangle_11" data-name="Rectangle 11" width="15" height="29" rx="5" transform="translate(61 46)" fill="#022c42"/>
      </g>
    </g>
  </g>
</svg>
