<svg xmlns="http://www.w3.org/2000/svg" xmlns:xlink="http://www.w3.org/1999/xlink" width="721.376" height="867" viewBox="0 0 721.376 867">
  <defs>
    <filter id="Union_4" x="0" y="412.953" width="721.376" height="269.583" filterUnits="userSpaceOnUse">
      <feOffset dy="3" input="SourceAlpha"/>
      <feGaussianBlur stdDeviation="3" result="blur"/>
      <feFlood flood-opacity="0.161"/>
      <feComposite operator="in" in2="blur"/>
    </filter>
    <filter id="Union_4-2" x="0" y="412.953" width="721.376" height="269.583" filterUnits="userSpaceOnUse">
      <feOffset dx="3" dy="3" input="SourceAlpha"/>
      <feGaussianBlur stdDeviation="2.5" result="blur-2"/>
      <feFlood flood-opacity="0.161" result="color"/>
      <feComposite operator="out" in="SourceGraphic" in2="blur-2"/>
      <feComposite operator="in" in="color"/>
      <feComposite operator="in" in2="SourceGraphic"/>
    </filter>
  </defs>
  <g id="outcome_neutral" data-name="outcome neutral" transform="translate(-23.312 -187)">
    <g id="Group_6" data-name="Group 6" transform="translate(11.312 79.087)">
      <g data-type="innerShadowGroup">
        <g transform="matrix(1, 0, 0, 1, 12, 107.91)" filter="url(#Union_4)">
          <g id="Union_4-3" data-name="Union 4" transform="translate(9 418.95)" fill="#fff">
            <path d="M 177.0227355957031 250.7481231689453 L 201.0730438232422 226.8468322753906 L 201.9330444335938 225.9922027587891 L 200.7205963134766 225.9922027587891 L 78.00032043457031 225.9922027587891 C 72.74168395996094 225.9922027587891 67.48650360107422 225.4624786376953 62.38077545166016 224.4176635742188 C 57.40504837036133 223.3994750976562 52.51068496704102 221.8802032470703 47.83386611938477 219.9020233154297 C 43.24168395996094 217.9597473144531 38.81259536743164 215.5557403564453 34.66950225830078 212.7566528320312 C 30.56559562683105 209.9842071533203 26.70650291442871 206.8001098632812 23.19932174682617 203.2929229736328 C 19.69214057922363 199.7857513427734 16.50804901123047 195.9266510009766 13.73559474945068 191.82275390625 C 10.93650341033936 187.6796569824219 8.532504081726074 183.2505645751953 6.590230941772461 178.6583862304688 C 4.612049102783203 173.9815673828125 3.092776536941528 169.0872039794922 2.074594736099243 164.1114807128906 C 1.029776573181152 159.0057525634766 0.5000492930412292 153.7505645751953 0.5000492930412292 148.4919281005859 L 0.5000492930412292 78.00028991699219 C 0.5000492930412292 72.74165344238281 1.029776573181152 67.48647308349609 2.074594736099243 62.3807487487793 C 3.092776536941528 57.40502166748047 4.612049102783203 52.51065826416016 6.590230941772461 47.83383941650391 C 8.532504081726074 43.24165725708008 10.93650341033936 38.81256484985352 13.73559474945068 34.66947555541992 C 16.50804901123047 30.56556510925293 19.69214057922363 26.70647430419922 23.19932174682617 23.19929313659668 C 26.70650291442871 19.69211196899414 30.56559562683105 16.50802040100098 34.66950225830078 13.73556518554688 C 38.81259536743164 10.93647480010986 43.24168395996094 8.532474517822266 47.83386611938477 6.590201854705811 C 52.51068496704102 4.612020015716553 57.40504837036133 3.092747449874878 62.38077545166016 2.074565649032593 C 67.48650360107422 1.029747366905212 72.74168395996094 0.5000201463699341 78.00032043457031 0.5000201463699341 L 625.3757934570312 0.5000201463699341 C 630.6343994140625 0.5000201463699341 635.8895874023438 1.029747366905212 640.9954223632812 2.074565649032593 C 645.9711303710938 3.092747449874878 650.8654174804688 4.612020015716553 655.5422973632812 6.590201854705811 C 660.1343994140625 8.532474517822266 664.5635986328125 10.93647480010986 668.7066650390625 13.73556518554688 C 672.8106079101562 16.50802040100098 676.669677734375 19.69211196899414 680.1768798828125 23.19929313659668 C 683.6840209960938 26.70647430419922 686.8681640625 30.56556510925293 689.640625 34.66947555541992 C 692.439697265625 38.81256484985352 694.8436889648438 43.24165725708008 696.7859497070312 47.83383941650391 C 698.76416015625 52.51065826416016 700.2833862304688 57.40502166748047 701.3015747070312 62.3807487487793 C 702.346435546875 67.48647308349609 702.8761596679688 72.74165344238281 702.8761596679688 78.00028991699219 L 702.8761596679688 148.4919281005859 C 702.8761596679688 153.7505645751953 702.346435546875 159.0057525634766 701.3015747070312 164.1114807128906 C 700.2833862304688 169.0872039794922 698.76416015625 173.9815673828125 696.7859497070312 178.6583862304688 C 694.8436889648438 183.2505645751953 692.439697265625 187.6796569824219 689.640625 191.82275390625 C 686.8681640625 195.9266510009766 683.6840209960938 199.7857513427734 680.1768798828125 203.2929229736328 C 676.669677734375 206.8001098632812 672.8106079101562 209.9842071533203 668.7066650390625 212.7566528320312 C 664.5635986328125 215.5557403564453 660.1343994140625 217.9597473144531 655.5422973632812 219.9020233154297 C 650.8654174804688 221.8802032470703 645.9711303710938 223.3994750976562 640.9954223632812 224.4176635742188 C 635.8895874023438 225.4624786376953 630.6343994140625 225.9922027587891 625.3757934570312 225.9922027587891 L 295.3477783203125 225.9922027587891 L 295.2960510253906 225.9922027587891 L 295.2453308105469 226.0028381347656 L 177.0227355957031 250.7481231689453 Z" stroke="none"/>
            <path d="M 178.5725402832031 249.9128265380859 L 295.2442321777344 225.4922027587891 L 625.3757934570312 225.4922027587891 C 635.771240234375 225.4922027587891 645.855224609375 223.4564819335938 655.3475341796875 219.4415588378906 C 659.9099731445312 217.5118408203125 664.3104248046875 215.123291015625 668.4267578125 212.3423767089844 C 672.5043334960938 209.5876617431641 676.338623046875 206.4240264892578 679.8233032226562 202.9393768310547 C 683.3079833984375 199.4547424316406 686.4716186523438 195.6203765869141 689.226318359375 191.5428314208984 C 692.0072021484375 187.4264678955078 694.395751953125 183.0260162353516 696.3255004882812 178.4636535644531 C 700.3403930664062 168.9712982177734 702.3761596679688 158.8873901367188 702.3761596679688 148.4919281005859 L 702.3761596679688 78.00028991699219 C 702.3761596679688 67.60483551025391 700.3403930664062 57.52092742919922 696.3255004882812 48.028564453125 C 694.395751953125 43.46620178222656 692.0072021484375 39.06574630737305 689.226318359375 34.94938278198242 C 686.4716186523438 30.8718376159668 683.3079833984375 27.0374755859375 679.8233032226562 23.55283737182617 C 676.338623046875 20.06820106506348 672.5043334960938 16.90456581115723 668.4267578125 14.1498384475708 C 664.3104248046875 11.36892890930176 659.9099731445312 8.98038387298584 655.3475341796875 7.050656318664551 C 645.855224609375 3.035747289657593 635.771240234375 1.000020146369934 625.3757934570312 1.000020146369934 L 78.00032043457031 1.000020146369934 C 67.60486602783203 1.000020146369934 57.52095794677734 3.035747289657593 48.02859497070312 7.050656318664551 C 43.46623229980469 8.98038387298584 39.06577682495117 11.36892890930176 34.94941329956055 14.1498384475708 C 30.87186813354492 16.90456581115723 27.03750419616699 20.06820106506348 23.5528678894043 23.55283737182617 C 20.0682315826416 27.0374755859375 16.90459442138672 30.8718376159668 14.14986705780029 34.94938278198242 C 11.36895847320557 39.06574630737305 8.980412483215332 43.46620178222656 7.050685882568359 48.028564453125 C 3.035776615142822 57.52092742919922 1.000049352645874 67.60483551025391 1.000049352645874 78.00028991699219 L 1.000049352645874 148.4919281005859 C 1.000049352645874 158.8873901367188 3.035776615142822 168.9712982177734 7.050685882568359 178.4636535644531 C 8.980412483215332 183.0260162353516 11.36895847320557 187.4264678955078 14.14986705780029 191.5428314208984 C 16.90459442138672 195.6203765869141 20.0682315826416 199.4547424316406 23.5528678894043 202.9393768310547 C 27.03750419616699 206.4240264892578 30.87186813354492 209.5876617431641 34.94941329956055 212.3423767089844 C 39.06577682495117 215.123291015625 43.46623229980469 217.5118408203125 48.02859497070312 219.4415588378906 C 57.52095794677734 223.4564819335938 67.60486602783203 225.4922027587891 78.00032043457031 225.4922027587891 L 203.1455078125 225.4922027587891 L 178.5725402832031 249.9128265380859 M 175.4730529785156 251.5832977294922 L 200.7205963134766 226.4922027587891 L 78.00032043457031 226.4922027587891 C 34.92186737060547 226.4922027587891 4.9316407967126e-05 191.5703887939453 4.9316407967126e-05 148.4919281005859 L 4.9316407967126e-05 78.00028991699219 C 4.9316407967126e-05 34.92183685302734 34.92186737060547 2.01305047085043e-05 78.00032043457031 2.01305047085043e-05 L 625.3757934570312 2.01305047085043e-05 C 668.454345703125 2.01305047085043e-05 703.3761596679688 34.92183685302734 703.3761596679688 78.00028991699219 L 703.3761596679688 148.4919281005859 C 703.3761596679688 191.5703887939453 668.454345703125 226.4922027587891 625.3757934570312 226.4922027587891 L 295.3477783203125 226.4922027587891 L 175.4730529785156 251.5832977294922 Z" stroke="none" fill="#707070"/>
          </g>
        </g>
        <g id="Union_4-4" data-name="Union 4" transform="translate(21 526.865)" fill="#fff">
          <path d="M 177.0227355957031 250.7481231689453 L 201.0730438232422 226.8468322753906 L 201.9330444335938 225.9922027587891 L 200.7205963134766 225.9922027587891 L 78.00032043457031 225.9922027587891 C 72.74168395996094 225.9922027587891 67.48650360107422 225.4624786376953 62.38077545166016 224.4176635742188 C 57.40504837036133 223.3994750976562 52.51068496704102 221.8802032470703 47.83386611938477 219.9020233154297 C 43.24168395996094 217.9597473144531 38.81259536743164 215.5557403564453 34.66950225830078 212.7566528320312 C 30.56559562683105 209.9842071533203 26.70650291442871 206.8001098632812 23.19932174682617 203.2929229736328 C 19.69214057922363 199.7857513427734 16.50804901123047 195.9266510009766 13.73559474945068 191.82275390625 C 10.93650341033936 187.6796569824219 8.532504081726074 183.2505645751953 6.590230941772461 178.6583862304688 C 4.612049102783203 173.9815673828125 3.092776536941528 169.0872039794922 2.074594736099243 164.1114807128906 C 1.029776573181152 159.0057525634766 0.5000492930412292 153.7505645751953 0.5000492930412292 148.4919281005859 L 0.5000492930412292 78.00028991699219 C 0.5000492930412292 72.74165344238281 1.029776573181152 67.48647308349609 2.074594736099243 62.3807487487793 C 3.092776536941528 57.40502166748047 4.612049102783203 52.51065826416016 6.590230941772461 47.83383941650391 C 8.532504081726074 43.24165725708008 10.93650341033936 38.81256484985352 13.73559474945068 34.66947555541992 C 16.50804901123047 30.56556510925293 19.69214057922363 26.70647430419922 23.19932174682617 23.19929313659668 C 26.70650291442871 19.69211196899414 30.56559562683105 16.50802040100098 34.66950225830078 13.73556518554688 C 38.81259536743164 10.93647480010986 43.24168395996094 8.532474517822266 47.83386611938477 6.590201854705811 C 52.51068496704102 4.612020015716553 57.40504837036133 3.092747449874878 62.38077545166016 2.074565649032593 C 67.48650360107422 1.029747366905212 72.74168395996094 0.5000201463699341 78.00032043457031 0.5000201463699341 L 625.3757934570312 0.5000201463699341 C 630.6343994140625 0.5000201463699341 635.8895874023438 1.029747366905212 640.9954223632812 2.074565649032593 C 645.9711303710938 3.092747449874878 650.8654174804688 4.612020015716553 655.5422973632812 6.590201854705811 C 660.1343994140625 8.532474517822266 664.5635986328125 10.93647480010986 668.7066650390625 13.73556518554688 C 672.8106079101562 16.50802040100098 676.669677734375 19.69211196899414 680.1768798828125 23.19929313659668 C 683.6840209960938 26.70647430419922 686.8681640625 30.56556510925293 689.640625 34.66947555541992 C 692.439697265625 38.81256484985352 694.8436889648438 43.24165725708008 696.7859497070312 47.83383941650391 C 698.76416015625 52.51065826416016 700.2833862304688 57.40502166748047 701.3015747070312 62.3807487487793 C 702.346435546875 67.48647308349609 702.8761596679688 72.74165344238281 702.8761596679688 78.00028991699219 L 702.8761596679688 148.4919281005859 C 702.8761596679688 153.7505645751953 702.346435546875 159.0057525634766 701.3015747070312 164.1114807128906 C 700.2833862304688 169.0872039794922 698.76416015625 173.9815673828125 696.7859497070312 178.6583862304688 C 694.8436889648438 183.2505645751953 692.439697265625 187.6796569824219 689.640625 191.82275390625 C 686.8681640625 195.9266510009766 683.6840209960938 199.7857513427734 680.1768798828125 203.2929229736328 C 676.669677734375 206.8001098632812 672.8106079101562 209.9842071533203 668.7066650390625 212.7566528320312 C 664.5635986328125 215.5557403564453 660.1343994140625 217.9597473144531 655.5422973632812 219.9020233154297 C 650.8654174804688 221.8802032470703 645.9711303710938 223.3994750976562 640.9954223632812 224.4176635742188 C 635.8895874023438 225.4624786376953 630.6343994140625 225.9922027587891 625.3757934570312 225.9922027587891 L 295.3477783203125 225.9922027587891 L 295.2960510253906 225.9922027587891 L 295.2453308105469 226.0028381347656 L 177.0227355957031 250.7481231689453 Z" stroke="none"/>
          <path d="M 178.5725402832031 249.9128265380859 L 295.2442321777344 225.4922027587891 L 625.3757934570312 225.4922027587891 C 635.771240234375 225.4922027587891 645.855224609375 223.4564819335938 655.3475341796875 219.4415588378906 C 659.9099731445312 217.5118408203125 664.3104248046875 215.123291015625 668.4267578125 212.3423767089844 C 672.5043334960938 209.5876617431641 676.338623046875 206.4240264892578 679.8233032226562 202.9393768310547 C 683.3079833984375 199.4547424316406 686.4716186523438 195.6203765869141 689.226318359375 191.5428314208984 C 692.0072021484375 187.4264678955078 694.395751953125 183.0260162353516 696.3255004882812 178.4636535644531 C 700.3403930664062 168.9712982177734 702.3761596679688 158.8873901367188 702.3761596679688 148.4919281005859 L 702.3761596679688 78.00028991699219 C 702.3761596679688 67.60483551025391 700.3403930664062 57.52092742919922 696.3255004882812 48.028564453125 C 694.395751953125 43.46620178222656 692.0072021484375 39.06574630737305 689.226318359375 34.94938278198242 C 686.4716186523438 30.8718376159668 683.3079833984375 27.0374755859375 679.8233032226562 23.55283737182617 C 676.338623046875 20.06820106506348 672.5043334960938 16.90456581115723 668.4267578125 14.1498384475708 C 664.3104248046875 11.36892890930176 659.9099731445312 8.98038387298584 655.3475341796875 7.050656318664551 C 645.855224609375 3.035747289657593 635.771240234375 1.000020146369934 625.3757934570312 1.000020146369934 L 78.00032043457031 1.000020146369934 C 67.60486602783203 1.000020146369934 57.52095794677734 3.035747289657593 48.02859497070312 7.050656318664551 C 43.46623229980469 8.98038387298584 39.06577682495117 11.36892890930176 34.94941329956055 14.1498384475708 C 30.87186813354492 16.90456581115723 27.03750419616699 20.06820106506348 23.5528678894043 23.55283737182617 C 20.0682315826416 27.0374755859375 16.90459442138672 30.8718376159668 14.14986705780029 34.94938278198242 C 11.36895847320557 39.06574630737305 8.980412483215332 43.46620178222656 7.050685882568359 48.028564453125 C 3.035776615142822 57.52092742919922 1.000049352645874 67.60483551025391 1.000049352645874 78.00028991699219 L 1.000049352645874 148.4919281005859 C 1.000049352645874 158.8873901367188 3.035776615142822 168.9712982177734 7.050685882568359 178.4636535644531 C 8.980412483215332 183.0260162353516 11.36895847320557 187.4264678955078 14.14986705780029 191.5428314208984 C 16.90459442138672 195.6203765869141 20.0682315826416 199.4547424316406 23.5528678894043 202.9393768310547 C 27.03750419616699 206.4240264892578 30.87186813354492 209.5876617431641 34.94941329956055 212.3423767089844 C 39.06577682495117 215.123291015625 43.46623229980469 217.5118408203125 48.02859497070312 219.4415588378906 C 57.52095794677734 223.4564819335938 67.60486602783203 225.4922027587891 78.00032043457031 225.4922027587891 L 203.1455078125 225.4922027587891 L 178.5725402832031 249.9128265380859 M 175.4730529785156 251.5832977294922 L 200.7205963134766 226.4922027587891 L 78.00032043457031 226.4922027587891 C 34.92186737060547 226.4922027587891 4.9316407967126e-05 191.5703887939453 4.9316407967126e-05 148.4919281005859 L 4.9316407967126e-05 78.00028991699219 C 4.9316407967126e-05 34.92183685302734 34.92186737060547 2.01305047085043e-05 78.00032043457031 2.01305047085043e-05 L 625.3757934570312 2.01305047085043e-05 C 668.454345703125 2.01305047085043e-05 703.3761596679688 34.92183685302734 703.3761596679688 78.00028991699219 L 703.3761596679688 148.4919281005859 C 703.3761596679688 191.5703887939453 668.454345703125 226.4922027587891 625.3757934570312 226.4922027587891 L 295.3477783203125 226.4922027587891 L 175.4730529785156 251.5832977294922 Z" stroke="none"/>
        </g>
        <g transform="matrix(1, 0, 0, 1, 12, 107.91)" filter="url(#Union_4-2)">
          <g id="Union_4-5" data-name="Union 4" transform="translate(9 418.95)" fill="#fff">
            <path d="M 177.0227355957031 250.7481231689453 L 201.0730438232422 226.8468322753906 L 201.9330444335938 225.9922027587891 L 200.7205963134766 225.9922027587891 L 78.00032043457031 225.9922027587891 C 72.74168395996094 225.9922027587891 67.48650360107422 225.4624786376953 62.38077545166016 224.4176635742188 C 57.40504837036133 223.3994750976562 52.51068496704102 221.8802032470703 47.83386611938477 219.9020233154297 C 43.24168395996094 217.9597473144531 38.81259536743164 215.5557403564453 34.66950225830078 212.7566528320312 C 30.56559562683105 209.9842071533203 26.70650291442871 206.8001098632812 23.19932174682617 203.2929229736328 C 19.69214057922363 199.7857513427734 16.50804901123047 195.9266510009766 13.73559474945068 191.82275390625 C 10.93650341033936 187.6796569824219 8.532504081726074 183.2505645751953 6.590230941772461 178.6583862304688 C 4.612049102783203 173.9815673828125 3.092776536941528 169.0872039794922 2.074594736099243 164.1114807128906 C 1.029776573181152 159.0057525634766 0.5000492930412292 153.7505645751953 0.5000492930412292 148.4919281005859 L 0.5000492930412292 78.00028991699219 C 0.5000492930412292 72.74165344238281 1.029776573181152 67.48647308349609 2.074594736099243 62.3807487487793 C 3.092776536941528 57.40502166748047 4.612049102783203 52.51065826416016 6.590230941772461 47.83383941650391 C 8.532504081726074 43.24165725708008 10.93650341033936 38.81256484985352 13.73559474945068 34.66947555541992 C 16.50804901123047 30.56556510925293 19.69214057922363 26.70647430419922 23.19932174682617 23.19929313659668 C 26.70650291442871 19.69211196899414 30.56559562683105 16.50802040100098 34.66950225830078 13.73556518554688 C 38.81259536743164 10.93647480010986 43.24168395996094 8.532474517822266 47.83386611938477 6.590201854705811 C 52.51068496704102 4.612020015716553 57.40504837036133 3.092747449874878 62.38077545166016 2.074565649032593 C 67.48650360107422 1.029747366905212 72.74168395996094 0.5000201463699341 78.00032043457031 0.5000201463699341 L 625.3757934570312 0.5000201463699341 C 630.6343994140625 0.5000201463699341 635.8895874023438 1.029747366905212 640.9954223632812 2.074565649032593 C 645.9711303710938 3.092747449874878 650.8654174804688 4.612020015716553 655.5422973632812 6.590201854705811 C 660.1343994140625 8.532474517822266 664.5635986328125 10.93647480010986 668.7066650390625 13.73556518554688 C 672.8106079101562 16.50802040100098 676.669677734375 19.69211196899414 680.1768798828125 23.19929313659668 C 683.6840209960938 26.70647430419922 686.8681640625 30.56556510925293 689.640625 34.66947555541992 C 692.439697265625 38.81256484985352 694.8436889648438 43.24165725708008 696.7859497070312 47.83383941650391 C 698.76416015625 52.51065826416016 700.2833862304688 57.40502166748047 701.3015747070312 62.3807487487793 C 702.346435546875 67.48647308349609 702.8761596679688 72.74165344238281 702.8761596679688 78.00028991699219 L 702.8761596679688 148.4919281005859 C 702.8761596679688 153.7505645751953 702.346435546875 159.0057525634766 701.3015747070312 164.1114807128906 C 700.2833862304688 169.0872039794922 698.76416015625 173.9815673828125 696.7859497070312 178.6583862304688 C 694.8436889648438 183.2505645751953 692.439697265625 187.6796569824219 689.640625 191.82275390625 C 686.8681640625 195.9266510009766 683.6840209960938 199.7857513427734 680.1768798828125 203.2929229736328 C 676.669677734375 206.8001098632812 672.8106079101562 209.9842071533203 668.7066650390625 212.7566528320312 C 664.5635986328125 215.5557403564453 660.1343994140625 217.9597473144531 655.5422973632812 219.9020233154297 C 650.8654174804688 221.8802032470703 645.9711303710938 223.3994750976562 640.9954223632812 224.4176635742188 C 635.8895874023438 225.4624786376953 630.6343994140625 225.9922027587891 625.3757934570312 225.9922027587891 L 295.3477783203125 225.9922027587891 L 295.2960510253906 225.9922027587891 L 295.2453308105469 226.0028381347656 L 177.0227355957031 250.7481231689453 Z" stroke="none"/>
            <path d="M 178.5725402832031 249.9128265380859 L 295.2442321777344 225.4922027587891 L 625.3757934570312 225.4922027587891 C 635.771240234375 225.4922027587891 645.855224609375 223.4564819335938 655.3475341796875 219.4415588378906 C 659.9099731445312 217.5118408203125 664.3104248046875 215.123291015625 668.4267578125 212.3423767089844 C 672.5043334960938 209.5876617431641 676.338623046875 206.4240264892578 679.8233032226562 202.9393768310547 C 683.3079833984375 199.4547424316406 686.4716186523438 195.6203765869141 689.226318359375 191.5428314208984 C 692.0072021484375 187.4264678955078 694.395751953125 183.0260162353516 696.3255004882812 178.4636535644531 C 700.3403930664062 168.9712982177734 702.3761596679688 158.8873901367188 702.3761596679688 148.4919281005859 L 702.3761596679688 78.00028991699219 C 702.3761596679688 67.60483551025391 700.3403930664062 57.52092742919922 696.3255004882812 48.028564453125 C 694.395751953125 43.46620178222656 692.0072021484375 39.06574630737305 689.226318359375 34.94938278198242 C 686.4716186523438 30.8718376159668 683.3079833984375 27.0374755859375 679.8233032226562 23.55283737182617 C 676.338623046875 20.06820106506348 672.5043334960938 16.90456581115723 668.4267578125 14.1498384475708 C 664.3104248046875 11.36892890930176 659.9099731445312 8.98038387298584 655.3475341796875 7.050656318664551 C 645.855224609375 3.035747289657593 635.771240234375 1.000020146369934 625.3757934570312 1.000020146369934 L 78.00032043457031 1.000020146369934 C 67.60486602783203 1.000020146369934 57.52095794677734 3.035747289657593 48.02859497070312 7.050656318664551 C 43.46623229980469 8.98038387298584 39.06577682495117 11.36892890930176 34.94941329956055 14.1498384475708 C 30.87186813354492 16.90456581115723 27.03750419616699 20.06820106506348 23.5528678894043 23.55283737182617 C 20.0682315826416 27.0374755859375 16.90459442138672 30.8718376159668 14.14986705780029 34.94938278198242 C 11.36895847320557 39.06574630737305 8.980412483215332 43.46620178222656 7.050685882568359 48.028564453125 C 3.035776615142822 57.52092742919922 1.000049352645874 67.60483551025391 1.000049352645874 78.00028991699219 L 1.000049352645874 148.4919281005859 C 1.000049352645874 158.8873901367188 3.035776615142822 168.9712982177734 7.050685882568359 178.4636535644531 C 8.980412483215332 183.0260162353516 11.36895847320557 187.4264678955078 14.14986705780029 191.5428314208984 C 16.90459442138672 195.6203765869141 20.0682315826416 199.4547424316406 23.5528678894043 202.9393768310547 C 27.03750419616699 206.4240264892578 30.87186813354492 209.5876617431641 34.94941329956055 212.3423767089844 C 39.06577682495117 215.123291015625 43.46623229980469 217.5118408203125 48.02859497070312 219.4415588378906 C 57.52095794677734 223.4564819335938 67.60486602783203 225.4922027587891 78.00032043457031 225.4922027587891 L 203.1455078125 225.4922027587891 L 178.5725402832031 249.9128265380859 M 175.4730529785156 251.5832977294922 L 200.7205963134766 226.4922027587891 L 78.00032043457031 226.4922027587891 C 34.92186737060547 226.4922027587891 4.9316407967126e-05 191.5703887939453 4.9316407967126e-05 148.4919281005859 L 4.9316407967126e-05 78.00028991699219 C 4.9316407967126e-05 34.92183685302734 34.92186737060547 2.01305047085043e-05 78.00032043457031 2.01305047085043e-05 L 625.3757934570312 2.01305047085043e-05 C 668.454345703125 2.01305047085043e-05 703.3761596679688 34.92183685302734 703.3761596679688 78.00028991699219 L 703.3761596679688 148.4919281005859 C 703.3761596679688 191.5703887939453 668.454345703125 226.4922027587891 625.3757934570312 226.4922027587891 L 295.3477783203125 226.4922027587891 L 175.4730529785156 251.5832977294922 Z" stroke="none"/>
          </g>
        </g>
        <g id="Union_4-6" data-name="Union 4" transform="translate(21 526.865)" fill="none">
          <path d="M 177.0227355957031 250.7481231689453 L 201.0730438232422 226.8468322753906 L 201.9330444335938 225.9922027587891 L 200.7205963134766 225.9922027587891 L 78.00032043457031 225.9922027587891 C 72.74168395996094 225.9922027587891 67.48650360107422 225.4624786376953 62.38077545166016 224.4176635742188 C 57.40504837036133 223.3994750976562 52.51068496704102 221.8802032470703 47.83386611938477 219.9020233154297 C 43.24168395996094 217.9597473144531 38.81259536743164 215.5557403564453 34.66950225830078 212.7566528320312 C 30.56559562683105 209.9842071533203 26.70650291442871 206.8001098632812 23.19932174682617 203.2929229736328 C 19.69214057922363 199.7857513427734 16.50804901123047 195.9266510009766 13.73559474945068 191.82275390625 C 10.93650341033936 187.6796569824219 8.532504081726074 183.2505645751953 6.590230941772461 178.6583862304688 C 4.612049102783203 173.9815673828125 3.092776536941528 169.0872039794922 2.074594736099243 164.1114807128906 C 1.029776573181152 159.0057525634766 0.5000492930412292 153.7505645751953 0.5000492930412292 148.4919281005859 L 0.5000492930412292 78.00028991699219 C 0.5000492930412292 72.74165344238281 1.029776573181152 67.48647308349609 2.074594736099243 62.3807487487793 C 3.092776536941528 57.40502166748047 4.612049102783203 52.51065826416016 6.590230941772461 47.83383941650391 C 8.532504081726074 43.24165725708008 10.93650341033936 38.81256484985352 13.73559474945068 34.66947555541992 C 16.50804901123047 30.56556510925293 19.69214057922363 26.70647430419922 23.19932174682617 23.19929313659668 C 26.70650291442871 19.69211196899414 30.56559562683105 16.50802040100098 34.66950225830078 13.73556518554688 C 38.81259536743164 10.93647480010986 43.24168395996094 8.532474517822266 47.83386611938477 6.590201854705811 C 52.51068496704102 4.612020015716553 57.40504837036133 3.092747449874878 62.38077545166016 2.074565649032593 C 67.48650360107422 1.029747366905212 72.74168395996094 0.5000201463699341 78.00032043457031 0.5000201463699341 L 625.3757934570312 0.5000201463699341 C 630.6343994140625 0.5000201463699341 635.8895874023438 1.029747366905212 640.9954223632812 2.074565649032593 C 645.9711303710938 3.092747449874878 650.8654174804688 4.612020015716553 655.5422973632812 6.590201854705811 C 660.1343994140625 8.532474517822266 664.5635986328125 10.93647480010986 668.7066650390625 13.73556518554688 C 672.8106079101562 16.50802040100098 676.669677734375 19.69211196899414 680.1768798828125 23.19929313659668 C 683.6840209960938 26.70647430419922 686.8681640625 30.56556510925293 689.640625 34.66947555541992 C 692.439697265625 38.81256484985352 694.8436889648438 43.24165725708008 696.7859497070312 47.83383941650391 C 698.76416015625 52.51065826416016 700.2833862304688 57.40502166748047 701.3015747070312 62.3807487487793 C 702.346435546875 67.48647308349609 702.8761596679688 72.74165344238281 702.8761596679688 78.00028991699219 L 702.8761596679688 148.4919281005859 C 702.8761596679688 153.7505645751953 702.346435546875 159.0057525634766 701.3015747070312 164.1114807128906 C 700.2833862304688 169.0872039794922 698.76416015625 173.9815673828125 696.7859497070312 178.6583862304688 C 694.8436889648438 183.2505645751953 692.439697265625 187.6796569824219 689.640625 191.82275390625 C 686.8681640625 195.9266510009766 683.6840209960938 199.7857513427734 680.1768798828125 203.2929229736328 C 676.669677734375 206.8001098632812 672.8106079101562 209.9842071533203 668.7066650390625 212.7566528320312 C 664.5635986328125 215.5557403564453 660.1343994140625 217.9597473144531 655.5422973632812 219.9020233154297 C 650.8654174804688 221.8802032470703 645.9711303710938 223.3994750976562 640.9954223632812 224.4176635742188 C 635.8895874023438 225.4624786376953 630.6343994140625 225.9922027587891 625.3757934570312 225.9922027587891 L 295.3477783203125 225.9922027587891 L 295.2960510253906 225.9922027587891 L 295.2453308105469 226.0028381347656 L 177.0227355957031 250.7481231689453 Z" stroke="none"/>
          <path d="M 178.5725402832031 249.9128265380859 L 295.2442321777344 225.4922027587891 L 625.3757934570312 225.4922027587891 C 635.771240234375 225.4922027587891 645.855224609375 223.4564819335938 655.3475341796875 219.4415588378906 C 659.9099731445312 217.5118408203125 664.3104248046875 215.123291015625 668.4267578125 212.3423767089844 C 672.5043334960938 209.5876617431641 676.338623046875 206.4240264892578 679.8233032226562 202.9393768310547 C 683.3079833984375 199.4547424316406 686.4716186523438 195.6203765869141 689.226318359375 191.5428314208984 C 692.0072021484375 187.4264678955078 694.395751953125 183.0260162353516 696.3255004882812 178.4636535644531 C 700.3403930664062 168.9712982177734 702.3761596679688 158.8873901367188 702.3761596679688 148.4919281005859 L 702.3761596679688 78.00028991699219 C 702.3761596679688 67.60483551025391 700.3403930664062 57.52092742919922 696.3255004882812 48.028564453125 C 694.395751953125 43.46620178222656 692.0072021484375 39.06574630737305 689.226318359375 34.94938278198242 C 686.4716186523438 30.8718376159668 683.3079833984375 27.0374755859375 679.8233032226562 23.55283737182617 C 676.338623046875 20.06820106506348 672.5043334960938 16.90456581115723 668.4267578125 14.1498384475708 C 664.3104248046875 11.36892890930176 659.9099731445312 8.98038387298584 655.3475341796875 7.050656318664551 C 645.855224609375 3.035747289657593 635.771240234375 1.000020146369934 625.3757934570312 1.000020146369934 L 78.00032043457031 1.000020146369934 C 67.60486602783203 1.000020146369934 57.52095794677734 3.035747289657593 48.02859497070312 7.050656318664551 C 43.46623229980469 8.98038387298584 39.06577682495117 11.36892890930176 34.94941329956055 14.1498384475708 C 30.87186813354492 16.90456581115723 27.03750419616699 20.06820106506348 23.5528678894043 23.55283737182617 C 20.0682315826416 27.0374755859375 16.90459442138672 30.8718376159668 14.14986705780029 34.94938278198242 C 11.36895847320557 39.06574630737305 8.980412483215332 43.46620178222656 7.050685882568359 48.028564453125 C 3.035776615142822 57.52092742919922 1.000049352645874 67.60483551025391 1.000049352645874 78.00028991699219 L 1.000049352645874 148.4919281005859 C 1.000049352645874 158.8873901367188 3.035776615142822 168.9712982177734 7.050685882568359 178.4636535644531 C 8.980412483215332 183.0260162353516 11.36895847320557 187.4264678955078 14.14986705780029 191.5428314208984 C 16.90459442138672 195.6203765869141 20.0682315826416 199.4547424316406 23.5528678894043 202.9393768310547 C 27.03750419616699 206.4240264892578 30.87186813354492 209.5876617431641 34.94941329956055 212.3423767089844 C 39.06577682495117 215.123291015625 43.46623229980469 217.5118408203125 48.02859497070312 219.4415588378906 C 57.52095794677734 223.4564819335938 67.60486602783203 225.4922027587891 78.00032043457031 225.4922027587891 L 203.1455078125 225.4922027587891 L 178.5725402832031 249.9128265380859 M 175.4730529785156 251.5832977294922 L 200.7205963134766 226.4922027587891 L 78.00032043457031 226.4922027587891 C 34.92186737060547 226.4922027587891 4.9316407967126e-05 191.5703887939453 4.9316407967126e-05 148.4919281005859 L 4.9316407967126e-05 78.00028991699219 C 4.9316407967126e-05 34.92183685302734 34.92186737060547 2.01305047085043e-05 78.00032043457031 2.01305047085043e-05 L 625.3757934570312 2.01305047085043e-05 C 668.454345703125 2.01305047085043e-05 703.3761596679688 34.92183685302734 703.3761596679688 78.00028991699219 L 703.3761596679688 148.4919281005859 C 703.3761596679688 191.5703887939453 668.454345703125 226.4922027587891 625.3757934570312 226.4922027587891 L 295.3477783203125 226.4922027587891 L 175.4730529785156 251.5832977294922 Z" stroke="none" fill="#707070"/>
        </g>
      </g>
      <g id="Component_9_23" data-name="Component 9 – 23" transform="translate(21 759.913)">
        <g id="Union_1" data-name="Union 1" fill="none">
          <path d="M0,215V85H.009C0,84.583,0,84.168,0,83.75,0,37.5,36.266,0,81,0s81,37.5,81,83.75c0,.418,0,.833-.009,1.249H162V215Z" stroke="none"/>
          <path d="M 157 210 L 157 89.99919128417969 L 156.9205932617188 89.99919128417969 L 156.9917144775391 84.92906188964844 C 156.9972229003906 84.53693389892578 157 84.14025115966797 157 83.74996948242188 C 157 73.09622192382812 154.9836273193359 62.76522064208984 151.0068511962891 53.04390716552734 C 149.0967864990234 48.37468719482422 146.7328491210938 43.87156295776367 143.9807434082031 39.65959548950195 C 141.2559661865234 35.48946762084961 138.1272888183594 31.56859397888184 134.6815948486328 28.00590705871582 C 131.2386932373047 24.44612503051758 127.4513092041016 21.21496963500977 123.4246597290039 18.40221786499023 C 119.3638763427734 15.5656566619873 115.0239715576172 13.12987518310547 110.5255661010742 11.16259384155273 C 101.1751556396484 7.073406219482422 91.24150085449219 5 81.00050354003906 5 C 70.75937652587891 5 60.8255615234375 7.073406219482422 51.47506332397461 11.16259384155273 C 46.9765625 13.12990665435791 42.63662338256836 15.5656566619873 38.57578277587891 18.40225028991699 C 34.5490608215332 21.21500015258789 30.76162528991699 24.44612503051758 27.31871795654297 28.00593757629395 C 23.87296867370605 31.56862449645996 20.74421882629395 35.48949813842773 18.01940536499023 39.65962600708008 C 15.2672815322876 43.8715934753418 12.90331268310547 48.37471771240234 10.99324989318848 53.04390716552734 C 7.016406059265137 62.76522064208984 5 73.09625244140625 5 83.74996948242188 C 5 84.14025115966797 5.002781391143799 84.53693389892578 5.008281230926514 84.92906188964844 L 5.079406261444092 89.99919128417969 L 5 89.99919128417969 L 5 210 L 157 210 M 162 215 L 0 215 L 0 84.99919128417969 L 0.008781249634921551 84.99919128417969 C 0.002937499899417162 84.58259582519531 0 84.16768646240234 0 83.74996948242188 C 0 37.49634552001953 36.265625 0 81.00050354003906 0 C 125.7348785400391 0 162 37.49634552001953 162 83.74996948242188 C 162 84.16768646240234 161.9970550537109 84.58259582519531 161.9912261962891 84.99919128417969 L 162 84.99919128417969 L 162 215 Z" stroke="none" fill="#022c42"/>
        </g>
        <rect id="Rectangle_9" data-name="Rectangle 9" width="15" height="29" rx="5" transform="translate(111 46)" fill="#022c42"/>
        <path id="Union_2" data-name="Union 2" d="M.138,11.333H0V0H27V11.333h-.135C25.929,14.537,20.3,17,13.5,17S1.072,14.537.138,11.333Z" transform="translate(80 83)" fill="#022c42"/>
        <rect id="Rectangle_11" data-name="Rectangle 11" width="15" height="29" rx="5" transform="translate(61 46)" fill="#022c42"/>
      </g>
    </g>
    <text id="I_sense_a_neutral_mood._How_about_we_keep_things_balanced_and_harmonious_" data-name="I sense a neutral mood. How about we keep things balanced and harmonious? " transform="translate(71.312 632)" fill="#527592" font-size="45" font-family="GillSans-SemiBold, Gill Sans" font-weight="600"><tspan x="0" y="42">I sense a neutral mood. How </tspan><tspan x="0" y="95">about we keep things balanced </tspan><tspan x="0" y="148">and harmonious? </tspan></text>
    <text id="Neutral" transform="translate(282 396)" fill="#a5a5a5" font-size="70" font-family="GillSans-SemiBold, Gill Sans" font-weight="600"><tspan x="0" y="66">Neutral</tspan></text>
    <g id="Group_12" data-name="Group 12" transform="translate(-40 -1.379)">
      <circle id="Ellipse_117" data-name="Ellipse 117" cx="115" cy="115" r="115" transform="translate(322 188.379)" fill="#a5a5a5" opacity="0.183"/>
      <ellipse id="Ellipse_118" data-name="Ellipse 118" cx="16" cy="16.5" rx="16" ry="16.5" transform="translate(465.449 259.097)" fill="#070101"/>
      <ellipse id="Ellipse_119" data-name="Ellipse 119" cx="16" cy="16.5" rx="16" ry="16.5" transform="translate(379.582 259.097)" fill="#070101"/>
      <ellipse id="Ellipse_120" data-name="Ellipse 120" cx="21" cy="21.5" rx="21" ry="21.5" transform="translate(420.043 313.719)" fill="#070101"/>
      <rect id="Rectangle_70" data-name="Rectangle 70" width="16.471" height="49.412" rx="5" transform="translate(467.236 251.594) rotate(-45)" fill="#070101"/>
      <rect id="Rectangle_71" data-name="Rectangle 71" width="16.471" height="49.412" rx="5" transform="matrix(0.656, 0.755, -0.755, 0.656, 398.305, 240.821)" fill="#070101"/>
      <g id="Ellipse_121" data-name="Ellipse 121" transform="translate(335 199.379)" fill="#a5a5a5" stroke="#707070" stroke-width="1">
        <ellipse cx="104" cy="103.5" rx="104" ry="103.5" stroke="none"/>
        <ellipse cx="104" cy="103.5" rx="103.5" ry="103" fill="none"/>
      </g>
      <ellipse id="Ellipse_122" data-name="Ellipse 122" cx="16" cy="16.5" rx="16" ry="16.5" transform="translate(465.449 259.097)" fill="#070101"/>
      <ellipse id="Ellipse_123" data-name="Ellipse 123" cx="16" cy="16.5" rx="16" ry="16.5" transform="translate(379.582 259.097)" fill="#070101"/>
      <rect id="Rectangle_72" data-name="Rectangle 72" width="9.002" height="97.942" rx="4.501" transform="matrix(0, 1, -1, 0, 488.63, 336.111)" fill="#070101"/>
    </g>
  </g>
</svg>
